<svg width="34" height="38" viewBox="0 0 34 38" fill="none" xmlns="http://www.w3.org/2000/svg">
<g clip-path="url(#clip0_199_18761)">
<path d="M24.1133 24.6424C24.1133 20.8055 24.1133 16.9679 24.1133 13.1295C24.1133 12.1589 24.4747 11.7998 25.4534 11.7998C27.7992 11.7998 30.1446 11.7998 32.4897 11.7998C33.4777 11.7998 33.8437 12.1704 33.8437 13.1677V36.109C33.8437 37.1444 33.4962 37.4988 32.4723 37.4988H25.4789C24.4457 37.4988 24.1133 37.1618 24.1133 36.109V24.6424ZM31.7345 13.9101H26.2282V35.414H31.7345V13.9101Z" fill="url(#paint0_linear_199_18761)"/>
<path d="M12.4834 27.4623C12.4834 24.5382 12.4834 21.6128 12.4834 18.6863C12.4834 17.7401 12.8529 17.3625 13.7876 17.3613H20.9119C21.8292 17.3613 22.2126 17.7435 22.2126 18.647C22.2126 24.4984 22.2126 30.3491 22.2126 36.199C22.2126 37.1255 21.842 37.4973 20.9304 37.4985H13.7575C12.8529 37.4985 12.4834 37.1163 12.4834 36.1955C12.4834 33.2844 12.4834 30.3734 12.4834 27.4623ZM14.5937 19.4705V35.4032H20.1023V19.4682L14.5937 19.4705Z" fill="url(#paint1_linear_199_18761)"/>
<path d="M14.6506 12.8203L26.6778 2.68566L26.6431 2.58374C25.9273 2.58374 25.2115 2.60111 24.4957 2.58374C23.8308 2.56289 23.4104 2.02779 23.5077 1.37801C23.5818 0.888078 23.9884 0.522075 24.5501 0.517442C26.2589 0.501999 27.9669 0.501999 29.6742 0.517442C30.2973 0.523233 30.6471 0.878808 30.6517 1.49731C30.6649 3.13429 30.6649 4.77011 30.6517 6.40477C30.6517 7.03833 30.2185 7.47267 29.6406 7.4831C29.0626 7.49352 28.6086 7.07308 28.5831 6.44068C28.5542 5.73184 28.5738 5.02183 28.5727 4.31299C28.5727 4.15779 28.5727 4.00259 28.5727 3.74662C28.1615 4.09409 27.821 4.36627 27.4851 4.65004L15.5112 14.7638C14.7004 15.4506 14.2939 15.4321 13.5422 14.6804L10.3559 11.4848C9.93195 11.8636 9.52542 12.2249 9.12119 12.5898C8.3915 13.25 2.56788 18.5466 1.83703 19.2057C1.3135 19.6771 0.668348 19.6782 0.260648 19.2149C-0.147053 18.7516 -0.0868303 18.154 0.428587 17.6826C1.77678 16.4537 8.22471 10.5965 9.57869 9.37798C10.1648 8.84982 10.679 8.86951 11.2512 9.43705C12.3793 10.5443 13.4924 11.6632 14.6506 12.8203Z" fill="url(#paint2_linear_199_18761)"/>
<path d="M10.5757 30.2018C10.5757 32.2001 10.5757 34.1985 10.5757 36.1968C10.5757 37.1234 10.2108 37.4941 9.30159 37.4952H2.13439C1.23327 37.4952 0.851074 37.1061 0.851074 36.1922C0.851074 32.1955 0.851074 28.1984 0.851074 24.2009C0.851074 23.3183 1.24139 22.9269 2.11702 22.9199C4.52076 22.9199 6.9245 22.9199 9.32823 22.9199C10.19 22.9199 10.5791 23.3102 10.5803 24.1627C10.5795 26.1811 10.578 28.1942 10.5757 30.2018ZM8.46303 35.4139V25.043H2.95907V35.4139H8.46303Z" fill="url(#paint3_linear_199_18761)"/>
<path d="M3.37027 15.2383C3.90885 15.2649 4.22853 15.4607 4.41269 15.8475C4.59685 16.2344 4.58179 16.6722 4.26211 16.9756C3.40386 17.7864 2.52475 18.5844 1.6248 19.35C1.23563 19.6801 0.635658 19.5655 0.292819 19.1856C-0.0500206 18.8057 -0.0917116 18.193 0.269659 17.842C1.11865 17.0197 1.99776 16.2205 2.88266 15.441C3.0286 15.3089 3.26719 15.2788 3.37027 15.2383Z" fill="url(#paint4_linear_199_18761)"/>
</g>
<defs>
<linearGradient id="paint0_linear_199_18761" x1="28.9785" y1="11.7998" x2="28.9785" y2="37.4988" gradientUnits="userSpaceOnUse">
<stop stop-color="#76A4A7"/>
<stop offset="1" stop-color="#EFCB84"/>
</linearGradient>
<linearGradient id="paint1_linear_199_18761" x1="17.348" y1="17.3613" x2="17.348" y2="37.4985" gradientUnits="userSpaceOnUse">
<stop stop-color="#76A4A7"/>
<stop offset="1" stop-color="#EFCB84"/>
</linearGradient>
<linearGradient id="paint2_linear_199_18761" x1="15.3274" y1="0.505859" x2="15.3274" y2="19.5608" gradientUnits="userSpaceOnUse">
<stop stop-color="#76A4A7"/>
<stop offset="1" stop-color="#EFCB84"/>
</linearGradient>
<linearGradient id="paint3_linear_199_18761" x1="5.71569" y1="22.9199" x2="5.71569" y2="37.4952" gradientUnits="userSpaceOnUse">
<stop stop-color="#76A4A7"/>
<stop offset="1" stop-color="#EFCB84"/>
</linearGradient>
<linearGradient id="paint4_linear_199_18761" x1="2.27405" y1="15.2383" x2="2.27405" y2="19.5442" gradientUnits="userSpaceOnUse">
<stop stop-color="#76A4A7"/>
<stop offset="1" stop-color="#EFCB84"/>
</linearGradient>
<clipPath id="clip0_199_18761">
<rect width="33.845" height="37" fill="white" transform="translate(0 0.5)"/>
</clipPath>
</defs>
</svg>
