<svg width="32" height="32" viewBox="0 0 32 32" fill="none" xmlns="http://www.w3.org/2000/svg">
<path fill-rule="evenodd" clip-rule="evenodd" d="M16 32C24.8366 32 32 24.8366 32 16C32 7.16344 24.8366 0 16 0C7.16344 0 0 7.16344 0 16C0 24.8366 7.16344 32 16 32ZM13.9151 18.3451C13.8937 18.3787 13.8723 18.4123 13.8496 18.4446C13.8037 18.4135 13.7736 18.3937 13.7529 18.3802C13.7243 18.3614 13.7139 18.3546 13.7052 18.3459C13.4147 18.0557 13.1244 17.7652 12.8341 17.4748C12.5435 17.184 12.2529 16.8932 11.9621 16.6028C11.833 16.4738 11.705 16.3435 11.5771 16.2132C11.2677 15.898 10.9582 15.5827 10.6315 15.2865C10.0533 14.7621 9.21333 14.8671 8.77583 15.4878C8.40896 16.0084 8.48396 16.6484 8.98708 17.1553C9.93103 18.1059 10.8779 19.0536 11.8246 20.0012C12.1203 20.2971 12.4159 20.593 12.7115 20.889C13.4565 21.6359 14.1065 21.6334 14.8565 20.8821C17.5165 18.2171 20.1765 15.5521 22.8358 12.8865L22.8429 12.8794C22.9431 12.7786 23.0441 12.677 23.1302 12.5646C23.6721 11.8553 23.3408 10.8578 22.484 10.6121C21.9396 10.4565 21.5171 10.6678 21.1396 11.0471C19.9615 12.23 18.7824 13.4117 17.6033 14.5934C16.4243 15.7751 15.2452 16.9568 14.0671 18.1396C14.008 18.1995 13.9616 18.2723 13.9151 18.3451Z" fill="url(#paint0_linear_305_16002)"/>
<defs>
<linearGradient id="paint0_linear_305_16002" x1="16" y1="0" x2="16" y2="32" gradientUnits="userSpaceOnUse">
<stop stop-color="#F2CA83"/>
<stop offset="1" stop-color="#6A8C90"/>
</linearGradient>
</defs>
</svg>
