<svg width="35" height="38" viewBox="0 0 35 38" fill="none" xmlns="http://www.w3.org/2000/svg">
<g clip-path="url(#clip0_1_3557)">
<path d="M17.8495 0.0810547C20.1892 1.46416 22.5293 2.84703 24.87 4.22964C26.4893 5.18489 28.11 6.1379 29.7504 7.10281C30.2312 6.64227 30.7739 6.32137 31.4258 6.20326C32.1653 6.07074 32.9267 6.22084 33.5645 6.62483C34.2023 7.02881 34.6717 7.65834 34.8829 8.39305C35.32 9.93067 34.5376 11.5693 33.0706 12.1338C32.7545 12.2557 32.667 12.4035 32.6678 12.737C32.6794 17.1381 32.6678 21.54 32.6853 25.9419C32.6853 26.4893 32.509 26.8214 32.0384 27.0954C28.2645 29.2971 24.5043 31.5226 20.7347 33.7324C20.5118 33.8632 20.4507 33.9813 20.4907 34.2524C20.6881 35.5553 20.2598 36.6294 19.1876 37.3596C18.1153 38.0897 16.9681 38.109 15.8783 37.4004C14.7886 36.6918 14.3355 35.6437 14.4943 34.3304C14.5104 34.1974 14.5344 34.0652 14.5584 33.9085L11.8633 32.3211C8.86217 30.5532 5.85986 28.7871 2.85632 27.0227C2.47536 26.7998 2.31802 26.5138 2.31875 26.0682C2.32822 21.592 2.32312 17.1166 2.32676 12.6412C2.32676 12.4183 2.30709 12.2816 2.04777 12.1821C0.826202 11.7149 0.124737 10.799 0.0147447 9.47087C-0.0369135 8.85727 0.0969282 8.24226 0.39827 7.70855C0.699611 7.17484 1.154 6.74804 1.70032 6.48553C2.89785 5.90391 4.0218 6.07477 5.05106 6.92157C5.10715 6.96762 5.16105 7.01739 5.21641 7.06418C5.23583 7.07546 5.25634 7.08466 5.2776 7.09166L7.35798 5.86826C10.5169 4.00975 13.6758 2.15052 16.8348 0.290531C16.9367 0.230364 17.03 0.153109 17.1261 0.0832853L17.8495 0.0810547ZM29.0104 8.39157C28.9514 8.35294 28.8938 8.30987 28.8326 8.27422C25.1303 6.09235 21.4287 3.90922 17.7278 1.72488C17.5319 1.609 17.4008 1.66027 17.2347 1.75757C13.5751 3.91518 9.91304 6.06932 6.24859 8.21999C6.05119 8.33587 5.98708 8.44283 6.03006 8.68053C6.29739 10.2167 5.52016 11.6325 4.09828 12.1591C3.82949 12.2586 3.76685 12.3819 3.76758 12.6598C3.77681 16.9259 3.77681 21.1924 3.76758 25.459C3.76758 25.7376 3.83678 25.8958 4.08444 26.0399C6.56108 27.4825 9.02607 28.9406 11.4947 30.3935L15.2825 32.6219C16.649 31.3495 18.4191 31.3866 19.715 32.616C19.7597 32.5986 19.8035 32.5788 19.8461 32.5566C23.5596 30.3697 27.2745 28.1847 30.9909 26.0013C31.1964 25.881 31.2313 25.7369 31.2313 25.5244C31.2269 21.2335 31.2269 16.942 31.2313 12.6501C31.2313 12.3663 31.1483 12.2393 30.886 12.1532C30.6456 12.0717 30.4196 11.9513 30.2166 11.7966C29.0781 10.9424 28.7219 9.79027 29.0104 8.39157ZM4.64096 9.27775C4.64432 8.84839 4.48183 8.43493 4.18863 8.12676C3.89543 7.8186 3.49508 7.64048 3.07412 7.63093C2.65318 7.62531 2.24696 7.78883 1.94328 8.08614C1.6396 8.38345 1.46283 8.79068 1.45119 9.21981C1.44734 9.43534 1.48534 9.64952 1.56301 9.85002C1.64068 10.0505 1.75647 10.2334 1.90374 10.388C2.051 10.5427 2.22682 10.6661 2.42106 10.7512C2.6153 10.8362 2.82413 10.8813 3.03551 10.8837C3.45628 10.8845 3.86049 10.7166 4.16087 10.4161C4.46125 10.1156 4.63369 9.70676 4.64096 9.27775ZM33.5404 9.2718C33.5437 9.0592 33.5058 8.84804 33.4289 8.65041C33.3519 8.45278 33.2375 8.27257 33.0922 8.12012C32.9468 7.96768 32.7734 7.846 32.5818 7.76205C32.3902 7.67811 32.1843 7.63355 31.9758 7.63093C31.764 7.62927 31.554 7.67028 31.3578 7.75159C31.1616 7.83289 30.9831 7.95291 30.8325 8.10475C30.6819 8.25658 30.5623 8.43724 30.4803 8.63637C30.3984 8.8355 30.3558 9.04916 30.355 9.26511C30.3594 9.69443 30.5288 10.1049 30.8269 10.4081C31.1249 10.7113 31.5278 10.8832 31.9488 10.8867C32.1575 10.8878 32.3643 10.8469 32.5574 10.7663C32.7505 10.6857 32.9261 10.5669 33.074 10.4168C33.2219 10.2667 33.3393 10.0883 33.4193 9.8918C33.4994 9.6953 33.5405 9.48459 33.5404 9.2718ZM19.0878 34.7835C19.0885 34.5708 19.0482 34.3601 18.9691 34.1634C18.89 33.9666 18.7737 33.7877 18.6268 33.6367C18.4799 33.4858 18.3053 33.3659 18.1129 33.2838C17.9205 33.2017 17.7142 33.159 17.5056 33.1582C17.0846 33.1591 16.6807 33.3281 16.3803 33.629C16.08 33.9298 15.9071 34.3387 15.8987 34.7679C15.8985 35.2036 16.068 35.6216 16.3699 35.93C16.6717 36.2383 17.0813 36.4119 17.5086 36.4125C17.9297 36.4095 18.3324 36.2364 18.6285 35.931C18.9245 35.6256 19.0897 35.2129 19.0878 34.7835Z" fill="url(#paint0_linear_1_3557)"/>
<path d="M27.798 17.7821C27.798 19.5946 27.7907 21.407 27.8038 23.2187C27.8038 23.6518 27.6509 23.9288 27.283 24.1443C24.193 25.9537 21.1077 27.7707 18.0269 29.595C17.6627 29.8104 17.3415 29.8111 16.9766 29.595C13.8953 27.7711 10.8112 25.9555 7.72412 24.148C7.34097 23.9251 7.18801 23.6317 7.18946 23.189C7.1982 19.5765 7.1982 15.964 7.18946 12.3515C7.18946 11.8902 7.35991 11.6005 7.7518 11.3717C10.8214 9.57708 13.8859 7.77304 16.9452 5.9596C17.3349 5.72859 17.6678 5.72266 18.059 5.95442C21.1184 7.76736 24.1828 9.57163 27.2524 11.3672C27.6443 11.596 27.814 11.8827 27.8097 12.347C27.7878 14.1572 27.798 15.9697 27.798 17.7821ZM26.347 13.433C26.1736 13.5266 26.0556 13.5815 25.9471 13.6499C23.3107 15.1999 20.676 16.7524 18.043 18.3073C17.6656 18.5301 17.3466 18.5361 16.9649 18.3073C14.3363 16.7449 11.7018 15.1917 9.06151 13.6477C8.94059 13.5734 8.81603 13.5117 8.6616 13.4248C8.65213 13.5362 8.64266 13.5949 8.64266 13.6529C8.64266 16.6731 8.64267 19.6934 8.63538 22.7151C8.63538 22.9483 8.74611 23.0345 8.91146 23.1318C11.4231 24.607 13.9334 26.084 16.4426 27.5627C16.5329 27.6154 16.6291 27.6577 16.769 27.7283V27.3235C16.769 26.3994 16.7653 25.4746 16.769 24.5498C16.769 24.0232 17.0727 23.6793 17.5083 23.686C17.9439 23.6926 18.2142 24.0172 18.2171 24.535C18.2214 25.2993 18.2171 26.0637 18.2171 26.828V27.7372C18.3351 27.6808 18.4006 27.6555 18.4611 27.6199C21.013 26.1184 23.5659 24.6182 26.1197 23.1192C26.331 22.9959 26.347 22.8436 26.3463 22.6378C26.3429 20.3946 26.3429 18.1511 26.3463 15.9073L26.347 13.433ZM25.6062 12.1368C25.5224 12.0759 25.4787 12.0387 25.4299 12.0105C22.8561 10.4962 20.2858 8.98012 17.7188 7.46232C17.5192 7.34421 17.391 7.40364 17.2293 7.49946C15.1926 8.70182 13.1548 9.90292 11.1157 11.1028L9.3995 12.1145C9.5124 12.1888 9.58743 12.2504 9.66828 12.298C12.1974 13.789 14.7257 15.2808 17.2534 16.7734C17.4529 16.8922 17.5921 16.8655 17.7778 16.7556C20.1889 15.3279 22.6029 13.9049 25.0198 12.4867C25.2063 12.376 25.3898 12.2631 25.6062 12.1368Z" fill="url(#paint1_linear_1_3557)"/>
<path d="M18.2142 21.0804C18.217 21.1785 18.2003 21.2762 18.1653 21.3676C18.1303 21.459 18.0777 21.5423 18.0105 21.6126C17.9433 21.6829 17.8629 21.7386 17.7742 21.7766C17.6854 21.8146 17.5901 21.834 17.4938 21.8336C17.3059 21.8289 17.1268 21.7517 16.9925 21.6176C16.8583 21.4834 16.7789 21.3023 16.7705 21.1109C16.7711 20.9131 16.8477 20.7235 16.9839 20.5828C17.1201 20.4421 17.3051 20.3615 17.4989 20.3584C17.6872 20.359 17.8677 20.435 18.0015 20.5701C18.1354 20.7051 18.2118 20.8884 18.2142 21.0804Z" fill="url(#paint2_linear_1_3557)"/>
</g>
<defs>
<linearGradient id="paint0_linear_1_3557" x1="17.5038" y1="0.0810547" x2="17.5038" y2="37.9198" gradientUnits="userSpaceOnUse">
<stop stop-color="#FFCF7E"/>
<stop offset="1" stop-color="#6FA1A9"/>
</linearGradient>
<linearGradient id="paint1_linear_1_3557" x1="17.4996" y1="5.78345" x2="17.4996" y2="29.7568" gradientUnits="userSpaceOnUse">
<stop stop-color="#FFCF7E"/>
<stop offset="1" stop-color="#6FA1A9"/>
</linearGradient>
<linearGradient id="paint2_linear_1_3557" x1="17.4925" y1="20.3584" x2="17.4925" y2="21.8336" gradientUnits="userSpaceOnUse">
<stop stop-color="#FFCF7E"/>
<stop offset="1" stop-color="#6FA1A9"/>
</linearGradient>
<clipPath id="clip0_1_3557">
<rect width="35" height="37.8378" fill="white" transform="translate(0 0.0810547)"/>
</clipPath>
</defs>
</svg>
