<svg width="48" height="48" viewBox="0 0 48 48" fill="none" xmlns="http://www.w3.org/2000/svg">
<g clip-path="url(#clip0_199_16864)">
<path d="M0 31.2032C0.262938 31.0252 0.500843 30.7883 0.791327 30.6755C3.6369 29.5624 6.48873 28.4639 9.34683 27.38C9.66111 27.261 9.76002 27.1105 9.75877 26.7771C9.74624 22.9941 9.74374 19.2106 9.75125 15.4267C9.75125 14.7361 9.85267 14.5882 10.4812 14.345L13.5 13.1842V7.0133C13.5 6.20103 13.5075 5.38376 13.5 4.57525C13.4848 4.38662 13.5348 4.19849 13.6414 4.04224C13.748 3.88599 13.9049 3.77105 14.086 3.71661C17.2588 2.49822 20.4278 1.27105 23.6018 0.0676928C23.8626 -0.0225643 24.1461 -0.0225643 24.4069 0.0676928C27.571 1.26603 30.725 2.49195 33.884 3.70282C34.351 3.88207 34.51 4.20422 34.51 4.6818C34.5 7.35425 34.51 10.0279 34.4937 12.7042C34.4937 13.0877 34.619 13.2494 34.9595 13.3698C35.8272 13.6744 36.6811 14.0166 37.5388 14.3487C38.1423 14.5819 38.255 14.7486 38.255 15.3979C38.255 19.181 38.2525 22.9644 38.2475 26.7483C38.2475 27.093 38.3289 27.256 38.6732 27.3863C41.5029 28.4555 44.3226 29.5511 47.1448 30.6454C47.9387 30.9512 48.005 31.044 48.005 31.8738V43.1314C48.005 43.9399 47.9274 44.0565 47.1836 44.3423L38.1436 47.8132C38.0199 47.8689 37.8995 47.9317 37.783 48.0013H37.2208C36.8677 47.8458 36.5209 47.6779 36.1628 47.5387C33.3418 46.4469 30.5209 45.3526 27.6912 44.2796C27.1903 44.0891 26.9624 43.7883 26.9988 43.2606C27.0163 42.9973 26.9988 42.7328 26.9988 42.4032C26.1386 42.7328 25.3235 43.0299 24.5171 43.3596C24.3543 43.4318 24.1781 43.4691 24 43.4691C23.8219 43.4691 23.6457 43.4318 23.4829 43.3596C22.679 43.0274 21.8614 42.7328 20.9988 42.4057V43.0324C20.9988 43.9788 20.9612 44.0352 20.091 44.3699C18.0392 45.1596 15.9875 45.951 13.9357 46.744C12.8802 47.1552 11.8322 47.5864 10.7805 48.0088H10.222C10.0909 47.9333 9.95588 47.8647 9.81762 47.8032C6.82388 46.6462 3.82639 45.4993 0.837654 44.331C0.534649 44.2119 0.28047 43.97 0.00250662 43.7858L0 31.2032ZM34.5 14.7962C34.5 15.339 34.4875 15.8191 34.5 16.3004C34.5125 16.7818 34.3197 17.0613 33.874 17.2305C30.7137 18.4414 27.5597 19.6673 24.3944 20.8656C24.1335 20.9552 23.8502 20.9552 23.5893 20.8656C20.4253 19.6661 17.27 18.4401 14.1098 17.2305C13.6678 17.0613 13.4725 16.7717 13.4837 16.3029C13.495 15.8341 13.4837 15.3428 13.4837 14.7987L11.2538 15.6574C11.2462 15.7539 11.235 15.8304 11.235 15.9081C11.235 19.567 11.235 23.226 11.225 26.8849C11.225 27.1958 11.374 27.2735 11.6068 27.3625C14.4449 28.4489 17.283 29.5411 20.121 30.6391C20.9174 30.945 20.9825 31.0377 20.9825 31.8676C20.9825 34.6979 20.9825 37.5283 20.9762 40.3587C20.9762 40.6658 21.0426 40.8325 21.3518 40.9416C22.1319 41.2123 22.8932 41.5382 23.6732 41.8128C23.8735 41.8775 24.089 41.8775 24.2892 41.8128C25.0405 41.5508 25.7705 41.2324 26.5242 40.9767C26.876 40.8576 26.9937 40.6921 26.9912 40.3098C26.9712 37.4481 26.9912 34.5864 26.9737 31.7247C26.9737 31.1982 27.1653 30.8961 27.6686 30.7056C30.5484 29.61 33.4282 28.4856 36.3155 27.3851C36.6173 27.271 36.7437 27.1344 36.74 26.7922C36.7187 25.0561 36.73 23.32 36.73 21.5839C36.73 19.7388 36.73 17.8936 36.7225 16.0485C36.7225 15.8943 36.6436 15.6499 36.5346 15.6022C35.8998 15.3139 35.2262 15.0733 34.5 14.7962ZM1.52756 32.5883C1.51253 32.7137 1.5025 32.755 1.5025 32.8002C1.5025 36.0843 1.50251 39.3672 1.49375 42.6501C1.49375 42.9234 1.59641 43.0261 1.83055 43.1139C4.32137 44.0632 6.81052 45.0179 9.298 45.9781C9.43448 46.0308 9.5722 46.0784 9.75 46.1436C9.75 42.7115 9.75 39.3509 9.73623 35.9903C9.73623 35.8649 9.55217 35.6869 9.4157 35.6318C8.27254 35.1743 7.11937 34.7393 5.96995 34.2968L1.52756 32.5883ZM46.5 32.6008C46.3109 32.6673 46.1657 32.7137 46.0242 32.7676C43.5939 33.7014 41.1674 34.6478 38.7308 35.5641C38.3777 35.697 38.23 35.8499 38.2387 36.2523C38.2588 39.3785 38.25 42.5059 38.25 45.6322V46.1336C38.4403 46.0684 38.5868 46.0245 38.7283 45.9693C41.1724 45.0292 43.6114 44.0766 46.0655 43.1578C46.4311 43.0199 46.51 42.8381 46.5088 42.4796C46.495 39.3534 46.5 36.2272 46.5 33.0997V32.6008ZM19.0129 12.6703C18.0664 13.0376 17.1536 13.3898 16.2421 13.7471C15.8377 13.9063 15.273 13.9714 15.0789 14.271C14.871 14.5944 15.0263 15.1485 14.995 15.5935C14.975 15.8742 15.0814 15.9983 15.3406 16.0949C17.8447 17.0475 20.3489 18.0152 22.8531 18.9779C22.9783 19.0243 23.1035 19.0506 23.255 19.0945C23.255 15.6962 23.255 12.3519 23.2625 9.00886C23.2625 8.73685 23.1185 8.67292 22.9194 8.59646C20.3994 7.62876 17.8815 6.66023 15.3656 5.69086C15.2566 5.65482 15.1459 5.62428 15.0338 5.59936V12.5901L18.4858 11.2739C18.6699 11.7653 18.8351 12.1977 19.0129 12.6665V12.6703ZM29.5217 11.2739L32.9775 12.5913V5.58306C32.8034 5.64448 32.6582 5.69086 32.5154 5.74602C30.0714 6.68488 27.626 7.63378 25.182 8.5576C24.8502 8.68295 24.74 8.8271 24.7412 9.18435C24.7575 12.3406 24.75 15.4982 24.75 18.6545V19.112C24.9416 19.0468 25.0881 19.0017 25.2296 18.9465L31.7329 16.4483C33.0488 15.9469 33.0413 15.9469 33.0075 14.5217C33.0168 14.4232 32.9897 14.3246 32.9313 14.2447C32.873 14.1648 32.7874 14.109 32.6907 14.088C31.8856 13.7922 31.0881 13.4801 30.288 13.1705C29.8598 13.005 29.4341 12.8333 28.9858 12.6565C29.1736 12.1727 29.3402 11.739 29.5217 11.2702V11.2739ZM36.75 46.1536C36.75 42.7291 36.75 39.3848 36.7575 36.0417C36.7575 35.7408 36.5822 35.6907 36.3819 35.6117C33.8911 34.6532 31.4023 33.6926 28.9157 32.73C28.7905 32.6823 28.6653 32.6522 28.52 32.6046V40.1907L33.4821 38.2892L34.0092 39.668C33.8351 39.7407 33.6949 39.8034 33.5522 39.8598L29.2325 41.5232C28.4887 41.8103 28.5075 41.8128 28.4912 42.5962C28.4912 42.9096 28.6165 43.0174 28.8806 43.1177C30.4846 43.7218 32.0822 44.3461 33.6811 44.9615C34.6828 45.3601 35.6845 45.7425 36.75 46.1499V46.1536ZM13.9846 39.6868L14.5242 38.293L19.4875 40.197V32.6046C19.3197 32.6635 19.1745 32.7086 19.0342 32.7638C16.5751 33.7089 14.121 34.6628 11.6569 35.5929C11.3402 35.7183 11.2437 35.8599 11.245 36.1921C11.2588 39.3647 11.2525 42.5373 11.2538 45.7099C11.2538 45.8352 11.27 45.9719 11.2801 46.1373C11.4566 46.0734 11.5881 46.0295 11.7158 45.9806L18.7826 43.2593C19.5125 42.9773 19.4975 42.976 19.5088 42.1763C19.5088 41.8892 19.4111 41.7689 19.1532 41.6749C18.4345 41.4242 17.7245 41.1346 17.0134 40.8601C16.0142 40.4753 15.0163 40.0867 13.9846 39.6868ZM16.3811 4.44364C16.5676 4.53138 16.6315 4.56899 16.7016 4.59406C19.0417 5.49532 21.3806 6.40661 23.727 7.28405C23.9448 7.34685 24.1773 7.33584 24.3882 7.25271C26.6607 6.39282 28.927 5.51412 31.1932 4.63918C31.3084 4.59406 31.4161 4.52887 31.6039 4.43486C29.0772 3.4609 26.6519 2.52203 24.2166 1.60071C24.0402 1.55507 23.8537 1.56872 23.6857 1.63957C22.7942 1.96799 21.9115 2.31897 21.0238 2.65992L16.3811 4.44364ZM11.2475 28.8203V31.4526H9.73623V28.8328L2.89733 31.4652C3.06135 31.5467 3.12396 31.5843 3.19157 31.6106C5.54674 32.5181 7.90192 33.4294 10.2634 34.3231C10.4521 34.3783 10.6539 34.369 10.8368 34.2968C13.139 33.4244 15.4387 32.5428 17.7358 31.652C17.8581 31.5937 17.9765 31.5276 18.0902 31.4539L11.2475 28.8203ZM29.9036 31.4627C30.0501 31.5429 30.0977 31.5755 30.154 31.5955C32.5242 32.5106 34.8932 33.4282 37.2696 34.3256C37.4747 34.3812 37.6923 34.3666 37.8882 34.2843C40.1607 33.4219 42.4282 32.5444 44.697 31.6682C44.8134 31.6231 44.9211 31.5579 45.1114 31.4627L38.2475 28.8203V31.4526H36.7362V28.8366L29.9036 31.4627Z" fill="url(#paint0_linear_199_16864)"/>
</g>
<defs>
<linearGradient id="paint0_linear_199_16864" x1="24.0025" y1="0" x2="24.0025" y2="48.0088" gradientUnits="userSpaceOnUse">
<stop stop-color="#FCCE80"/>
<stop offset="1" stop-color="#6D99A0"/>
</linearGradient>
<clipPath id="clip0_199_16864">
<rect width="48" height="48" fill="white"/>
</clipPath>
</defs>
</svg>
