<svg width="41" height="36" viewBox="0 0 41 36" fill="none" xmlns="http://www.w3.org/2000/svg">
<g clip-path="url(#clip0_199_18724)">
<path d="M40.6041 1.2724V29.4251C40.2493 30.3563 39.5667 30.7134 38.5881 30.6501C37.8784 30.6049 37.1619 30.6501 36.4477 30.6501H35.2588V31.1225C35.2588 32.1938 35.2588 33.2629 35.2588 34.3342C35.243 35.3626 34.5808 36.009 33.5524 36.009H1.71565C0.662415 36.009 0.00244141 35.3513 0.00244141 34.3048C0.00244141 25.2264 0.00244141 16.1481 0.00244141 7.06974C0.00244141 6.02102 0.628512 5.38817 1.67271 5.38139C2.71691 5.37461 3.8131 5.38139 4.88442 5.38139H5.33645V1.99114C5.33645 0.567229 5.89697 0.00896577 7.33444 0.00896577C17.7734 0.00896577 28.2131 0.00896577 38.6536 0.00896577C39.6278 -7.49128e-05 40.2945 0.33669 40.6041 1.2724ZM6.66543 7.49013V28.7109C6.66543 29.3166 6.68352 29.3369 7.28698 29.3369H38.6898C39.2571 29.3369 39.2774 29.3166 39.2774 28.7606V7.90374C39.2774 7.76587 39.2616 7.628 39.2526 7.49013H6.66543ZM1.3269 12.8513V34.063C1.3269 34.6687 1.3269 34.6687 1.94844 34.6687H24.5818C27.5291 34.6687 30.4756 34.6687 33.4213 34.6687C33.9073 34.6687 33.9366 34.637 33.9389 34.1488C33.9389 33.3962 33.9389 32.6436 33.9389 31.8887V30.6411H10.1484C9.10415 30.6411 8.05996 30.6411 7.01576 30.6411C6.80433 30.6508 6.59306 30.6187 6.39409 30.5465C6.19511 30.4744 6.01235 30.3636 5.85629 30.2207C5.44494 29.841 5.34097 29.355 5.34323 28.8171C5.34323 23.6639 5.34323 18.5115 5.34323 13.3598V12.849L1.3269 12.8513ZM6.66543 6.13177H39.2774V1.9934C39.2774 1.34247 39.2774 1.34247 38.622 1.34247H7.35252C7.24629 1.34247 7.14006 1.34247 7.03383 1.34247C6.78973 1.34247 6.66543 1.43965 6.66543 1.69279C6.66769 3.15738 6.66543 4.63101 6.66543 6.13177ZM5.32289 11.4861V6.69681C5.18502 6.69681 5.06975 6.67647 4.95448 6.67647C3.9148 6.67647 2.8706 6.67647 1.83093 6.67647C1.45348 6.67647 1.3156 6.79852 1.32012 7.18049C1.33595 8.51173 1.32012 9.84297 1.32012 11.1765C1.32012 11.2759 1.33368 11.3776 1.34272 11.4929L5.32289 11.4861Z" fill="url(#paint0_linear_199_18724)"/>
<path d="M19.1118 21.6778C18.9514 21.6032 18.8338 21.5557 18.7208 21.497C16.8675 20.5432 15.0209 19.5736 13.1563 18.6446C12.8127 18.4729 12.8557 18.2401 12.8421 17.9666C12.8182 17.8533 12.8352 17.7352 12.8903 17.6334C12.9454 17.5315 13.0348 17.4526 13.1427 17.4106C15.0187 16.4726 16.8833 15.5098 18.7525 14.5582C18.8542 14.5063 18.9627 14.4633 19.1118 14.3955C19.1268 14.7496 19.1223 15.1042 19.0983 15.4578C19.0847 15.5731 18.9355 15.7087 18.8157 15.772C17.4596 16.4658 16.0809 17.1461 14.7113 17.831C14.5937 17.8897 14.4853 17.953 14.318 18.0412L15.9001 18.8367C16.8675 19.3227 17.8303 19.8131 18.8044 20.2855C18.9041 20.3153 18.9899 20.3797 19.0463 20.4672C19.1026 20.5546 19.1259 20.6593 19.1118 20.7624C19.096 21.0517 19.1118 21.341 19.1118 21.6778Z" fill="url(#paint1_linear_199_18724)"/>
<path d="M26.7331 14.3955C26.9049 14.4724 27.0224 14.5198 27.1331 14.5763C28.9797 15.5166 30.8195 16.4636 32.6728 17.3925C32.7878 17.4329 32.8847 17.5128 32.9463 17.6179C33.008 17.723 33.0304 17.8465 33.0096 17.9666C32.9892 18.2378 33.0322 18.4751 32.6977 18.6446C30.8217 19.5826 28.9616 20.5545 27.097 21.515C26.9953 21.567 26.889 21.6077 26.7353 21.6778C26.7203 21.323 26.7248 20.9676 26.7489 20.6132C26.7625 20.498 26.9207 20.3691 27.0427 20.3059C28.3988 19.6165 29.7798 18.9385 31.1495 18.2559C31.2783 18.1926 31.4049 18.1248 31.5812 18.0299L30.2251 17.3518C29.1741 16.8275 28.1276 16.2963 27.0608 15.79C26.9428 15.7552 26.8418 15.6781 26.7771 15.5734C26.7125 15.4687 26.6888 15.3438 26.7105 15.2227C26.7557 14.9786 26.7331 14.7165 26.7331 14.3955Z" fill="url(#paint2_linear_199_18724)"/>
<path d="M20.4995 22.1023L21.7268 18.8996C22.4862 16.9174 23.2547 14.9375 23.987 12.9486C24.109 12.6186 24.2582 12.4807 24.6062 12.5259C24.8569 12.5408 25.1082 12.5408 25.3589 12.5259C25.2979 12.7022 25.2527 12.8491 25.1984 12.9938C24.0842 15.8845 22.9608 18.7708 21.8579 21.6683C21.729 22.0119 21.5618 22.1543 21.2024 22.1045C20.9684 22.0889 20.7336 22.0881 20.4995 22.1023Z" fill="url(#paint3_linear_199_18724)"/>
<path d="M10.9959 4.27872C10.6139 4.27872 10.2297 4.29002 9.84995 4.27872C9.75791 4.28363 9.66583 4.26973 9.57935 4.23786C9.49286 4.20599 9.41379 4.15683 9.34694 4.09337C9.2801 4.02991 9.22689 3.95349 9.19058 3.86878C9.15426 3.78406 9.13561 3.69283 9.13574 3.60066C9.14064 3.51137 9.16315 3.42393 9.20199 3.34337C9.24082 3.26281 9.2952 3.19074 9.36201 3.13129C9.42881 3.07183 9.50671 3.02618 9.59123 2.99696C9.67575 2.96775 9.76522 2.95554 9.85448 2.96104C10.629 2.95049 11.4057 2.95049 12.1847 2.96104C12.274 2.95616 12.3633 2.96898 12.4476 2.99876C12.5319 3.02855 12.6094 3.0747 12.6758 3.13456C12.7422 3.19443 12.7961 3.26683 12.8343 3.3476C12.8726 3.42836 12.8946 3.51591 12.8989 3.60519C12.8991 3.69776 12.8803 3.78938 12.8437 3.87442C12.8071 3.95945 12.7535 4.03609 12.6862 4.09962C12.6188 4.16314 12.5392 4.2122 12.4522 4.24378C12.3652 4.27536 12.2726 4.28879 12.1802 4.28324C11.7937 4.29002 11.3982 4.27872 10.9959 4.27872Z" fill="url(#paint4_linear_199_18724)"/>
<path d="M16.5738 4.27814C16.2189 4.27814 15.8641 4.27814 15.5092 4.27814C15.0233 4.27814 14.7408 4.025 14.734 3.62043C14.7272 3.21586 15.0098 2.95368 15.4912 2.94238C16.2446 2.94238 16.998 2.94238 17.7513 2.94238C18.2034 2.94238 18.4859 3.20908 18.4904 3.59331C18.4906 3.68609 18.4718 3.77791 18.435 3.86311C18.3983 3.9483 18.3445 4.02505 18.2769 4.08861C18.2093 4.15217 18.1294 4.20118 18.0421 4.23262C17.9548 4.26405 17.862 4.27724 17.7694 4.27136C17.3648 4.28719 16.9693 4.27814 16.5738 4.27814Z" fill="url(#paint5_linear_199_18724)"/>
</g>
<defs>
<linearGradient id="paint0_linear_199_18724" x1="20.3033" y1="0.00878906" x2="20.3033" y2="36.009" gradientUnits="userSpaceOnUse">
<stop stop-color="#75A3A7"/>
<stop offset="1" stop-color="#FDCF7F"/>
</linearGradient>
<linearGradient id="paint1_linear_199_18724" x1="15.976" y1="14.3955" x2="15.976" y2="21.6778" gradientUnits="userSpaceOnUse">
<stop stop-color="#75A3A7"/>
<stop offset="1" stop-color="#FDCF7F"/>
</linearGradient>
<linearGradient id="paint2_linear_199_18724" x1="29.8599" y1="14.3955" x2="29.8599" y2="21.6778" gradientUnits="userSpaceOnUse">
<stop stop-color="#75A3A7"/>
<stop offset="1" stop-color="#FDCF7F"/>
</linearGradient>
<linearGradient id="paint3_linear_199_18724" x1="22.9292" y1="12.5176" x2="22.9292" y2="22.1142" gradientUnits="userSpaceOnUse">
<stop stop-color="#75A3A7"/>
<stop offset="1" stop-color="#FDCF7F"/>
</linearGradient>
<linearGradient id="paint4_linear_199_18724" x1="11.0173" y1="2.95312" x2="11.0173" y2="4.2854" gradientUnits="userSpaceOnUse">
<stop stop-color="#75A3A7"/>
<stop offset="1" stop-color="#FDCF7F"/>
</linearGradient>
<linearGradient id="paint5_linear_199_18724" x1="16.6121" y1="2.94238" x2="16.6121" y2="4.28072" gradientUnits="userSpaceOnUse">
<stop stop-color="#75A3A7"/>
<stop offset="1" stop-color="#FDCF7F"/>
</linearGradient>
<clipPath id="clip0_199_18724">
<rect width="40.604" height="36" fill="white"/>
</clipPath>
</defs>
</svg>
