<svg width="41" height="48" viewBox="0 0 41 48" fill="none" xmlns="http://www.w3.org/2000/svg">
<g clip-path="url(#clip0_199_16847)">
<path d="M15.3639 -0.000849566C16.1603 0.364788 16.4045 1.0009 16.3895 1.84988C16.3569 3.67431 16.3895 5.5 16.3757 7.32443C16.3669 8.4514 15.3414 9.1426 14.386 8.69307C13.8788 8.45515 13.5783 8.04444 13.5745 7.4797C13.5645 5.43614 13.5683 3.39257 13.5745 1.344C13.5745 0.637764 14.0253 0.257099 14.6151 -0.00585938L15.3639 -0.000849566Z" fill="url(#paint0_linear_199_16847)"/>
<path d="M15.5638 20.3971C16.0546 19.8962 16.4628 19.463 16.881 19.0435C21.1201 14.8027 25.3608 10.562 29.6032 6.32128C31.1184 4.80864 33.1519 4.46554 34.92 5.40343C35.5212 5.71712 36.0415 6.16576 36.4402 6.71419C36.839 7.26261 37.1053 7.89593 37.2184 8.5645C37.3314 9.23307 37.2881 9.91874 37.0918 10.5678C36.8955 11.2168 36.5516 11.8116 36.0871 12.3055C34.7159 13.7593 33.2721 15.1454 31.8572 16.5629C31.732 16.6881 31.5955 16.782 31.4164 16.9298C33.5051 18.0693 34.3503 19.7547 33.9947 22.0425C36.4827 22.9616 37.5434 24.7484 37.209 27.3267C37.7099 27.5959 38.2108 27.805 38.6528 28.1193C39.1458 28.4734 39.5599 28.926 39.8688 29.4485C40.1777 29.971 40.3747 30.5519 40.4473 31.1545C40.52 31.7572 40.4666 32.3683 40.2907 32.9492C40.1148 33.5301 39.8201 34.0682 39.4254 34.5292C39.2739 34.7083 39.1098 34.8761 38.9433 35.0414C35.2894 38.6978 31.6218 42.3429 27.9842 46.0155C26.6418 47.3691 25.0678 48.019 23.1608 48.0053C19.0223 47.9752 14.8826 47.9902 10.7441 48.0053C10.4722 48.016 10.2011 47.9688 9.94871 47.867C9.69637 47.7651 9.46854 47.6108 9.28029 47.4142C6.37438 44.4925 3.46055 41.5753 0.538783 38.6627C-0.172458 37.9502 -0.17371 37.1601 0.538783 36.4476C1.7509 35.2292 2.96176 34.0108 4.18765 32.8075C4.3011 32.7052 4.39047 32.579 4.44936 32.4381C4.50825 32.2972 4.53519 32.1449 4.52825 31.9923C4.51322 26.4476 4.52073 20.9017 4.49569 15.357C4.4812 15.0155 4.55054 14.6755 4.69765 14.3669C4.84476 14.0582 5.06518 13.7903 5.33966 13.5865C6.10321 12.9589 7.01372 12.5358 7.98568 12.3567C8.95765 12.1777 9.95917 12.2486 10.8962 12.5628C11.8332 12.877 12.675 13.4243 13.3426 14.1531C14.0101 14.8819 14.4814 15.7685 14.7123 16.7294C14.999 17.9002 15.2582 19.0873 15.5638 20.3971ZM25.2156 29.7234C25.0465 29.6933 24.88 29.6607 24.7147 29.6357C23.7318 29.4949 22.8293 29.0142 22.164 28.2771C20.5086 26.479 20.6063 23.8456 22.4044 22.0437C26.161 18.273 29.9259 14.5064 33.6991 10.744C33.8589 10.5948 34.0074 10.4341 34.1437 10.2632C34.3034 10.0541 34.4087 9.80863 34.4501 9.54881C34.4914 9.28898 34.4676 9.02295 34.3807 8.77463C34.2938 8.5263 34.1465 8.30347 33.9521 8.12615C33.7578 7.94884 33.5224 7.8226 33.2671 7.75879C32.5847 7.57472 32.0563 7.83517 31.583 8.3085C26.722 13.172 21.8622 18.033 17.0038 22.8914C16.9186 22.9766 16.8485 23.0743 16.7696 23.1682C18.6942 25.1642 19.5895 27.5183 19.3879 30.258C19.2483 32.3685 18.3367 34.3538 16.8272 35.8353C16.6579 36.0161 16.4432 36.1484 16.2056 36.2183C15.9679 36.2882 15.7159 36.2933 15.4756 36.233C15.2353 36.1727 15.0155 36.0492 14.839 35.8754C14.6625 35.7015 14.5357 35.4836 14.4718 35.2442C14.3091 34.6607 14.5232 34.1887 14.9264 33.7579C17.2229 31.2961 17.1803 27.6335 14.8275 25.2155C14.5557 24.935 14.289 24.6483 13.9973 24.3891C13.63 24.0492 13.3841 23.5984 13.2973 23.1056C12.8766 21.2185 12.4471 19.334 11.9913 17.4545C11.5355 15.5749 9.63466 14.5857 7.8816 15.2994C7.47965 15.461 7.29683 15.6751 7.29933 16.1559C7.32563 21.653 7.31561 27.1501 7.3369 32.6472C7.3369 33.3209 7.14531 33.8418 6.65571 34.3101C5.65897 35.253 4.7048 36.2397 3.73436 37.2127C3.62918 37.3179 3.53276 37.4343 3.42757 37.5495C3.49144 37.6259 3.52775 37.6747 3.57157 37.7198C5.98829 40.1407 8.40918 42.5562 10.8342 44.9662C11.0124 45.1059 11.2341 45.1782 11.4603 45.1703C15.3647 45.1816 19.269 45.1641 23.1733 45.1878C23.7034 45.204 24.2309 45.1068 24.7204 44.9027C25.2099 44.6986 25.6503 44.3924 26.012 44.0045C27.914 42.0649 29.8487 40.1553 31.772 38.232C31.8872 38.1168 31.9949 37.9928 32.1264 37.8563C30.4986 37.0274 29.6508 35.7276 29.4968 33.9971C26.9636 33.649 25.5512 32.2315 25.2156 29.7234ZM23.7818 25.0727C23.8294 25.9493 24.1262 26.4501 24.7322 26.7356C25.3383 27.0211 26.017 26.9272 26.5417 26.4088C27.9608 25.0064 29.3728 23.5943 30.7778 22.1727C31.449 21.4902 31.4277 20.501 30.7778 19.8687C30.1279 19.2363 29.1788 19.2513 28.5076 19.9137C27.0864 21.3162 25.6676 22.7224 24.2815 24.1587C24.0085 24.4404 23.8883 24.8699 23.7818 25.0727ZM29.7009 31.2297C30.0315 31.0757 30.4297 30.9918 30.6801 30.7539C31.8334 29.6557 32.9654 28.5325 34.061 27.3805C34.6496 26.7632 34.5782 25.8165 33.9834 25.2193C33.3886 24.622 32.4369 24.5443 31.8221 25.1303C30.6689 26.2298 29.5444 27.3592 28.4412 28.5112C27.9804 28.9921 27.9241 29.6094 28.2033 30.2155C28.4825 30.8215 28.9909 31.1271 29.7009 31.2297ZM32.3055 33.5663C32.333 34.4591 32.631 34.9613 33.2358 35.248C33.5219 35.4007 33.85 35.4558 34.1703 35.4049C34.4906 35.3541 34.7855 35.2 35.0102 34.9663C35.7548 34.2559 36.4836 33.5279 37.1965 32.7824C37.3444 32.6364 37.4617 32.4622 37.5415 32.2703C37.6213 32.0784 37.662 31.8724 37.6613 31.6645C37.6606 31.4567 37.6185 31.251 37.5374 31.0596C37.4563 30.8682 37.3378 30.6949 37.189 30.5498C37.0417 30.398 36.8656 30.2772 36.671 30.1945C36.4764 30.1117 36.2672 30.0687 36.0557 30.0678C35.8442 30.067 35.6347 30.1085 35.4395 30.1897C35.2443 30.271 35.0672 30.3904 34.9188 30.541C34.2 31.2347 33.4788 31.9285 32.8088 32.6698C32.5471 32.9552 32.4144 33.3747 32.3105 33.5663H32.3055Z" fill="url(#paint1_linear_199_16847)"/>
<path d="M21.1567 8.83222C20.4242 8.79966 19.9809 8.55549 19.7279 8.02206C19.475 7.48863 19.5313 6.96396 19.9183 6.53571C20.4528 5.94483 21.0166 5.38106 21.6075 4.84652C21.8693 4.61659 22.2092 4.49573 22.5574 4.50877C22.9056 4.52181 23.2356 4.66777 23.4795 4.91664C23.7323 5.15631 23.8838 5.48357 23.9032 5.83137C23.9225 6.17917 23.8081 6.5212 23.5834 6.7874C23.0424 7.39292 22.4671 7.96694 21.8604 8.50665C21.6438 8.70074 21.3107 8.7646 21.1567 8.83222Z" fill="url(#paint2_linear_199_16847)"/>
<path d="M8.76431 8.83617C8.58399 8.74476 8.22712 8.63958 7.97293 8.41669C7.42322 7.93334 6.91233 7.40367 6.4127 6.86773C6.16282 6.60319 6.02666 6.25121 6.03345 5.88737C6.04024 5.52354 6.18944 5.17687 6.44902 4.92184C6.69753 4.66672 7.03563 4.51841 7.39164 4.50836C7.74765 4.49831 8.09359 4.6273 8.3561 4.868C8.92083 5.38264 9.46178 5.92609 9.98394 6.48832C10.3909 6.92909 10.4535 7.46753 10.2081 8.01474C9.96265 8.56194 9.51562 8.7961 8.76431 8.83617Z" fill="url(#paint3_linear_199_16847)"/>
</g>
<defs>
<linearGradient id="paint0_linear_199_16847" x1="14.9792" y1="-0.00585938" x2="14.9792" y2="8.83189" gradientUnits="userSpaceOnUse">
<stop stop-color="#FBCE81"/>
<stop offset="1" stop-color="#709AA0"/>
</linearGradient>
<linearGradient id="paint1_linear_199_16847" x1="20.2419" y1="4.88281" x2="20.2419" y2="48.0068" gradientUnits="userSpaceOnUse">
<stop stop-color="#FBCE81"/>
<stop offset="1" stop-color="#709AA0"/>
</linearGradient>
<linearGradient id="paint2_linear_199_16847" x1="21.7397" y1="4.50781" x2="21.7397" y2="8.83222" gradientUnits="userSpaceOnUse">
<stop stop-color="#FBCE81"/>
<stop offset="1" stop-color="#709AA0"/>
</linearGradient>
<linearGradient id="paint3_linear_199_16847" x1="8.19286" y1="4.50781" x2="8.19286" y2="8.83617" gradientUnits="userSpaceOnUse">
<stop stop-color="#FBCE81"/>
<stop offset="1" stop-color="#709AA0"/>
</linearGradient>
<clipPath id="clip0_199_16847">
<rect width="40.4706" height="48" fill="white"/>
</clipPath>
</defs>
</svg>
