<svg width="32" height="30" viewBox="0 0 32 30" fill="none" xmlns="http://www.w3.org/2000/svg">
<g clip-path="url(#clip0_199_15388)">
<path d="M0.994948 21.3238C1.04128 21.0565 1.08047 20.7893 1.13571 20.522C1.7968 17.3359 4.65675 14.5883 7.85882 14.0786C8.28437 14.019 8.71388 13.9921 9.14356 13.9985C10.8043 13.9895 12.465 13.9985 14.1329 13.9985H14.4892V12.0063H15.5317C15.527 11.5457 15.4901 11.0861 15.4212 10.6307C15.3285 10.2155 14.9419 10.0017 14.4714 9.9981C13.6696 9.9981 12.8677 9.9981 12.0677 9.9981C11.6042 10.011 11.1506 9.86283 10.7841 9.57887C10.4177 9.29491 10.1609 8.8927 10.0577 8.44072C9.99543 8.17129 9.99007 7.89184 10.0419 7.62022C10.0938 7.3486 10.2017 7.09078 10.3589 6.86323C10.516 6.63568 10.7188 6.4434 10.9545 6.29867C11.1901 6.15394 11.4533 6.05995 11.7273 6.02269C11.9118 6.00041 12.0975 5.9897 12.2833 5.99062H19.9026C20.5299 5.99062 20.9593 5.63423 20.9985 5.08719C21.0431 4.45997 20.6083 4.00024 19.9419 3.99133C19.1703 3.99133 18.3969 3.99133 17.6254 3.99133C16.3478 3.99133 15.5192 3.16631 15.5067 1.88691C15.5067 1.26325 15.5067 0.63958 15.5067 0.00878906H16.4974C16.4974 0.525539 16.5224 1.0316 16.4974 1.53588C16.4351 2.55156 16.7843 3.06652 17.9622 2.99881C18.6446 2.95961 19.3307 2.97921 20.0131 2.99881C20.4778 3.00081 20.9273 3.16415 21.2848 3.4609C21.6423 3.75764 21.8857 4.16937 21.9732 4.62568C22.0614 5.06597 21.9956 5.52318 21.7871 5.92083C21.5785 6.31848 21.2398 6.63247 20.8275 6.81029C20.5094 6.93104 20.1716 6.99147 19.8314 6.98848C17.3011 7.00273 14.7708 6.98848 12.2405 6.99739C12.0541 6.99173 11.8677 7.01091 11.6863 7.05441C11.4746 7.12067 11.292 7.2574 11.1688 7.44186C11.0456 7.62632 10.9893 7.84739 11.0092 8.06831C11.021 8.28439 11.1045 8.49036 11.2465 8.65366C11.3885 8.81696 11.5809 8.92826 11.7932 8.96995C11.9179 8.99219 12.0444 9.00292 12.171 9.00202C12.9247 9.00202 13.6767 9.00202 14.4287 9.00202C15.6582 9.01627 16.4761 9.83239 16.5028 11.0655C16.5028 11.3648 16.5028 11.666 16.5028 11.9956H17.4989V14.0038H17.8552C19.5445 14.0038 21.2409 14.0323 22.9247 14.0038C26.9251 13.9218 30.4283 17.4072 30.9433 20.914C31.5456 24.9963 28.7213 29.0287 24.6621 29.8377C24.3182 29.9054 23.9725 29.9571 23.6268 30.0159H22.3955C22.3412 29.9959 22.2851 29.981 22.228 29.9714C20.982 29.837 19.7817 29.4268 18.7141 28.7704C16.918 27.7226 15.1111 27.7529 13.2882 28.7561C12.6016 29.1213 11.8872 29.4317 11.1518 29.6845C10.6635 29.8627 10.1254 29.8983 9.61041 29.9981H8.37913C8.30429 29.9803 8.23123 29.9571 8.15461 29.9464C4.82068 29.4849 2.56836 27.6674 1.41547 24.5152C1.19986 23.9272 1.13037 23.2875 0.993164 22.6709L0.994948 21.3238ZM16.0181 14.9928C13.7319 14.9928 11.4458 15.0052 9.16138 14.9928C7.78261 14.9569 6.42986 15.3723 5.30892 16.1759C2.91405 17.9097 1.61505 20.162 2.10151 23.218C2.71626 27.0384 6.60258 29.6756 10.398 28.8577C11.2528 28.655 12.0714 28.3221 12.825 27.8705C14.9347 26.6766 17.0783 26.6535 19.1703 27.8705C20.8577 28.8595 22.6183 29.2354 24.5374 28.8238C28.062 28.0701 30.4889 24.5473 29.9383 20.9942C29.475 18.0131 26.3745 14.9019 22.9016 14.9803C20.6118 15.0355 18.315 14.9928 16.0181 14.9928ZM15.5138 13.9806H16.485V13.0149H15.5138V13.9806Z" fill="url(#paint0_linear_199_15388)"/>
<path d="M10.4963 23.4942C10.4963 24.1607 10.4963 24.7754 10.4963 25.3902C10.4963 25.8143 10.3182 25.9978 9.8905 26.0014C9.29357 26.0014 8.69841 26.0014 8.1086 26.0014C7.68451 26.0014 7.50989 25.8107 7.50632 25.383C7.50632 24.7879 7.50632 24.1909 7.50632 23.6011C7.50167 23.5668 7.49453 23.5329 7.48494 23.4996H7.04125C6.54232 23.4996 6.04339 23.4996 5.54624 23.4996C5.47737 23.5065 5.40782 23.4986 5.34225 23.4764C5.27668 23.4543 5.21658 23.4184 5.16599 23.3712C5.11539 23.3239 5.07544 23.2664 5.04883 23.2026C5.02222 23.1387 5.00955 23.0698 5.01167 23.0006C4.99741 22.3378 4.99741 21.6737 5.01167 21.0085C5.01167 20.6788 5.2255 20.5096 5.57297 20.5078C6.20554 20.5078 6.83812 20.5078 7.51167 20.5078V19.5812C7.51167 19.2248 7.51167 18.8773 7.51167 18.5263C7.50502 18.457 7.51325 18.3871 7.53582 18.3213C7.55839 18.2555 7.59477 18.1952 7.64252 18.1446C7.69027 18.094 7.7483 18.0542 7.81271 18.0278C7.87711 18.0014 7.94641 17.9891 8.01595 17.9917C8.67882 17.9787 9.34287 17.9787 10.0081 17.9917C10.3289 17.9917 10.5017 18.2109 10.5053 18.5584C10.5053 19.1909 10.5053 19.8235 10.5053 20.4953H12.4244C12.8164 20.4953 13.0088 20.6735 13.0124 21.0637C13.0195 21.6779 13.0195 22.2932 13.0124 22.9098C13.0124 23.3089 12.8164 23.4889 12.4065 23.4907C11.7757 23.4978 11.1521 23.4942 10.4963 23.4942ZM6.00954 22.4964H7.85379C8.33491 22.4964 8.49706 22.6639 8.49884 23.1521C8.49884 23.5423 8.49884 23.9344 8.49884 24.3246V24.9857H9.49848V23.1877C9.49848 22.6532 9.65173 22.4964 10.1988 22.4964H11.9807V21.4967C11.3356 21.4967 10.712 21.4967 10.0865 21.4967C9.68202 21.4967 9.50027 21.3061 9.49492 20.8998C9.49492 20.6254 9.49492 20.3527 9.49492 20.0783V19.0092H8.49528V20.7751C8.49528 21.3542 8.34917 21.4985 7.76827 21.5003H6.00597L6.00954 22.4964Z" fill="url(#paint1_linear_199_15388)"/>
<path d="M23.0087 23.0005C23.5375 23.0005 24.0448 23.2102 24.4192 23.5837C24.7937 23.9571 25.0048 24.4638 25.0062 24.9927C25.0039 25.5216 24.7937 26.0285 24.421 26.4038C24.0483 26.7792 23.543 26.993 23.014 26.9991C22.4804 26.9967 21.9694 26.7836 21.5922 26.4061C21.215 26.0286 21.0024 25.5174 21.0005 24.9837C21.0061 24.4552 21.2203 23.9502 21.5964 23.5788C21.9725 23.2074 22.4801 22.9995 23.0087 23.0005ZM23.0087 24.0019C22.8771 24.0005 22.7465 24.0252 22.6245 24.0747C22.5025 24.1241 22.3915 24.1973 22.2981 24.29C22.2046 24.3826 22.1304 24.4929 22.0799 24.6145C22.0293 24.736 22.0035 24.8664 22.0037 24.998C22.0074 25.2638 22.1154 25.5175 22.3044 25.7045C22.4934 25.8915 22.7482 25.9967 23.014 25.9976C23.2749 25.9935 23.5238 25.8879 23.7081 25.7033C23.8924 25.5187 23.9975 25.2695 24.0012 25.0087C24.0036 24.877 23.9796 24.7462 23.9308 24.6239C23.8819 24.5016 23.8091 24.3904 23.7167 24.2966C23.6242 24.2028 23.514 24.1284 23.3924 24.0778C23.2708 24.0272 23.1404 24.0014 23.0087 24.0019Z" fill="url(#paint2_linear_199_15388)"/>
<path d="M17.5099 21.9887C17.5108 21.4598 17.7211 20.9529 18.0947 20.5786C18.4683 20.2043 18.9749 19.9931 19.5038 19.9912C19.7687 19.9931 20.0306 20.0471 20.2746 20.1502C20.5187 20.2533 20.74 20.4034 20.926 20.5921C21.1119 20.7807 21.2589 21.0041 21.3586 21.2496C21.4582 21.495 21.5085 21.7577 21.5067 22.0226C21.4982 22.5515 21.2818 23.0558 20.9043 23.4263C20.5268 23.7968 20.0185 24.0037 19.4895 24.0023C19.2272 24.0004 18.9679 23.9468 18.7263 23.8445C18.4848 23.7423 18.2658 23.5933 18.0819 23.4063C17.898 23.2192 17.7528 22.9978 17.6546 22.7545C17.5565 22.5112 17.5073 22.251 17.5099 21.9887ZM19.5074 22.9919C19.7736 22.9905 20.0284 22.8835 20.2158 22.6944C20.4032 22.5053 20.508 22.2496 20.507 21.9834C20.5011 21.7226 20.3948 21.4742 20.2102 21.29C20.0256 21.1057 19.777 20.9999 19.5163 20.9944C19.3847 20.993 19.2541 21.0177 19.1321 21.0672C19.0101 21.1166 18.8991 21.1898 18.8057 21.2825C18.7122 21.3751 18.638 21.4854 18.5875 21.607C18.5369 21.7285 18.511 21.8589 18.5113 21.9905C18.5089 22.1222 18.533 22.2531 18.5821 22.3753C18.6313 22.4975 18.7045 22.6086 18.7974 22.702C18.8903 22.7955 19.001 22.8692 19.1229 22.919C19.2449 22.9688 19.3756 22.9936 19.5074 22.9919Z" fill="url(#paint3_linear_199_15388)"/>
<path d="M23.0053 20.9888C22.4752 20.9893 21.9666 20.7794 21.5911 20.4052C21.2155 20.031 21.0039 19.5232 21.0024 18.9931C21.0039 18.4593 21.2171 17.948 21.5953 17.5715C21.9736 17.1949 22.4858 16.9839 23.0195 16.9849C23.5483 16.9905 24.0534 17.2046 24.4251 17.5807C24.7968 17.9567 25.0051 18.4643 25.0046 18.9931C25.0046 19.2554 24.9528 19.5153 24.8523 19.7576C24.7518 20 24.6045 20.2201 24.4188 20.4055C24.2331 20.5909 24.0127 20.7378 23.7701 20.8379C23.5276 20.938 23.2677 20.9893 23.0053 20.9888ZM24.0014 18.9895C24.0009 18.8577 23.9744 18.7273 23.9234 18.6057C23.8725 18.4842 23.798 18.3739 23.7043 18.2812C23.6106 18.1884 23.4995 18.1152 23.3774 18.0655C23.2553 18.0158 23.1246 17.9907 22.9928 17.9916C22.7318 17.9967 22.4829 18.1027 22.2985 18.2875C22.114 18.4723 22.0084 18.7213 22.0039 18.9824C22.0025 19.114 22.0272 19.2446 22.0766 19.3666C22.1261 19.4886 22.1992 19.5995 22.2919 19.693C22.3846 19.7865 22.4949 19.8606 22.6164 19.9112C22.7379 19.9617 22.8683 19.9876 22.9999 19.9874C23.1314 19.9893 23.2619 19.9649 23.3838 19.9157C23.5056 19.8665 23.6165 19.7934 23.7098 19.7008C23.803 19.6082 23.8769 19.4979 23.927 19.3764C23.977 19.2548 24.0023 19.1245 24.0014 18.9931V18.9895Z" fill="url(#paint4_linear_199_15388)"/>
<path d="M28.4986 21.9816C28.5014 22.2434 28.4526 22.5031 28.355 22.746C28.2574 22.9889 28.1128 23.2102 27.9296 23.3972C27.7464 23.5842 27.5282 23.7332 27.2873 23.8358C27.0465 23.9384 26.7878 23.9926 26.526 23.9951C26.2617 23.997 25.9995 23.9466 25.7547 23.8469C25.5098 23.7471 25.2871 23.5999 25.0993 23.4138C24.9116 23.2277 24.7624 23.0063 24.6605 22.7623C24.5586 22.5184 24.5058 22.2567 24.5054 21.9923C24.5086 21.4635 24.7198 20.9572 25.0932 20.5828C25.4666 20.2084 25.9723 19.9959 26.5011 19.9912C27.0295 19.9917 27.5362 20.2013 27.9105 20.5743C28.2848 20.9472 28.4962 21.4532 28.4986 21.9816ZM27.499 21.9941C27.4994 21.8625 27.4738 21.7322 27.4237 21.6105C27.3735 21.4889 27.2997 21.3785 27.2066 21.2855C27.1135 21.1926 27.0029 21.119 26.8812 21.069C26.7595 21.0191 26.6291 20.9937 26.4975 20.9944C26.2367 20.9981 25.9874 21.1028 25.8022 21.2866C25.6171 21.4705 25.5105 21.719 25.505 21.9798C25.5034 22.1115 25.5278 22.2423 25.5768 22.3645C25.6259 22.4868 25.6986 22.5982 25.7909 22.6922C25.8831 22.7863 25.993 22.8612 26.1143 22.9126C26.2356 22.964 26.3658 22.991 26.4975 22.9919C26.6293 22.9938 26.7601 22.9694 26.8822 22.9199C27.0043 22.8705 27.1153 22.7971 27.2086 22.7041C27.302 22.6111 27.3757 22.5004 27.4256 22.3785C27.4754 22.2565 27.5004 22.1258 27.499 21.9941Z" fill="url(#paint5_linear_199_15388)"/>
</g>
<defs>
<linearGradient id="paint0_linear_199_15388" x1="16.0087" y1="0.00878906" x2="16.0087" y2="30.0159" gradientUnits="userSpaceOnUse">
<stop stop-color="#80A7A3"/>
<stop offset="1" stop-color="#FACE80"/>
</linearGradient>
<linearGradient id="paint1_linear_199_15388" x1="9.00935" y1="17.9819" x2="9.00935" y2="26.0014" gradientUnits="userSpaceOnUse">
<stop stop-color="#80A7A3"/>
<stop offset="1" stop-color="#FACE80"/>
</linearGradient>
<linearGradient id="paint2_linear_199_15388" x1="23.0033" y1="23.0005" x2="23.0033" y2="26.9991" gradientUnits="userSpaceOnUse">
<stop stop-color="#80A7A3"/>
<stop offset="1" stop-color="#FACE80"/>
</linearGradient>
<linearGradient id="paint3_linear_199_15388" x1="19.5082" y1="19.9912" x2="19.5082" y2="24.0023" gradientUnits="userSpaceOnUse">
<stop stop-color="#80A7A3"/>
<stop offset="1" stop-color="#FACE80"/>
</linearGradient>
<linearGradient id="paint4_linear_199_15388" x1="23.0035" y1="16.9849" x2="23.0035" y2="20.9888" gradientUnits="userSpaceOnUse">
<stop stop-color="#80A7A3"/>
<stop offset="1" stop-color="#FACE80"/>
</linearGradient>
<linearGradient id="paint5_linear_199_15388" x1="26.502" y1="19.9912" x2="26.502" y2="23.9952" gradientUnits="userSpaceOnUse">
<stop stop-color="#80A7A3"/>
<stop offset="1" stop-color="#FACE80"/>
</linearGradient>
<clipPath id="clip0_199_15388">
<rect width="30.0267" height="30" fill="white" transform="translate(0.995117)"/>
</clipPath>
</defs>
</svg>
