<svg width="35" height="30" viewBox="0 0 35 30" fill="none" xmlns="http://www.w3.org/2000/svg">
<g clip-path="url(#clip0_199_15379)">
<path d="M6.24717 22.2467C6.6398 20.4637 7.00001 18.7941 7.38183 17.1299C7.61056 16.134 8.05902 15.7828 9.08562 15.7647C9.9195 15.7503 10.7552 15.7647 11.6071 15.7647C11.9799 14.0537 12.3275 12.4184 12.6967 10.7885C12.9615 9.61597 13.3757 9.28098 14.5626 9.27738C16.6326 9.27017 18.7026 9.27017 20.7726 9.27738C21.9325 9.27738 22.3575 9.60516 22.6097 10.7056C22.9843 12.3392 23.3301 13.9817 23.7227 15.7629C24.5044 15.7629 25.3328 15.7629 26.1613 15.7629C27.2996 15.7755 27.721 16.1069 27.9732 17.2182C28.346 18.8535 28.6936 20.4943 29.0898 22.2449C29.8823 22.2449 30.7108 22.2449 31.5464 22.2449C32.6685 22.2593 33.0989 22.6051 33.3475 23.7218C33.6681 25.1626 33.9851 26.589 34.2894 28.0263C34.556 29.287 33.9923 29.984 32.6901 29.9894C29.9003 30.002 27.1069 29.9894 24.3207 29.9894H14.2942C10.4724 29.9894 6.65 29.9894 2.82699 29.9894C1.28349 29.9894 0.762995 29.3464 1.08178 27.848C1.38075 26.4407 1.68753 25.0353 2.00211 23.6317C2.22724 22.6357 2.6811 22.2647 3.69509 22.2431C4.53438 22.2323 5.37007 22.2467 6.24717 22.2467ZM12.92 15.7053H22.4187C22.0585 14.0682 21.7289 12.494 21.3561 10.9289C21.3109 10.831 21.2422 10.7457 21.1561 10.6807C21.07 10.6156 20.9692 10.5729 20.8626 10.5561C18.6203 10.5309 16.378 10.5399 14.0565 10.5399L12.92 15.7053ZM17.0624 22.1999C16.7022 20.5213 16.3798 18.9706 15.9998 17.4361C15.9566 17.256 15.5748 17.0435 15.346 17.0399C13.3109 17.0099 11.2757 17.0099 9.24051 17.0399C9.03519 17.0399 8.68939 17.2308 8.64977 17.4001C8.26254 18.9778 7.92935 20.5699 7.56914 22.2107L17.0624 22.1999ZM27.7895 22.1891C27.4293 20.5681 27.1159 19.0264 26.7304 17.4937C26.6782 17.292 26.282 17.0453 26.0407 17.0417C24.0361 17.0057 22.0297 17.0417 20.0234 17.0111C19.5209 17.0111 19.3534 17.2182 19.2705 17.6756C19.1102 18.5582 18.8959 19.4299 18.705 20.307C18.5717 20.9247 18.4438 21.5425 18.307 22.1891H27.7895ZM11.7043 28.6908C11.3441 27.0447 11.0199 25.494 10.6399 23.9577C10.5931 23.7776 10.2347 23.5326 10.0168 23.529C7.97978 23.4966 5.9428 23.5002 3.90401 23.529C3.68969 23.529 3.32768 23.7091 3.28986 23.855C2.90083 25.4399 2.56944 27.0375 2.20023 28.6962L11.7043 28.6908ZM22.4224 28.6908C22.0621 27.0537 21.747 25.4814 21.3543 23.9271C21.3075 23.738 20.8717 23.5381 20.6123 23.5326C18.9661 23.4966 17.32 23.5146 15.6738 23.5146C14.0277 23.5146 14.0529 23.5146 13.7089 25.1104C13.4568 26.2882 13.2028 27.4661 12.9381 28.6908H22.4224ZM33.1566 28.6908C32.7964 27.0555 32.4812 25.5318 32.1012 24.0261C32.0413 23.8967 31.9505 23.7841 31.8368 23.698C31.7231 23.612 31.59 23.5552 31.4492 23.5326C29.4122 23.493 27.3752 23.5002 25.3382 23.5326C25.1275 23.5326 24.7709 23.7127 24.7313 23.8748C24.3459 25.4562 24.0109 27.0501 23.6507 28.698L33.1566 28.6908ZM17.2516 17.0795C17.3794 17.6792 17.4785 18.1493 17.5793 18.6194H17.7793C17.8783 18.1277 17.9774 17.636 18.0908 17.0759L17.2516 17.0795ZM11.8646 23.5507C12.0141 24.1648 12.1366 24.6583 12.2573 25.1518L12.4194 25.1284C12.5112 24.6205 12.5995 24.1126 12.7039 23.5507H11.8646ZM22.8942 25.096L23.1248 25.114L23.4183 23.5741C22.127 23.8496 23.1031 24.5935 22.8942 25.096Z" fill="url(#paint0_linear_199_15379)"/>
<path d="M17.0476 2.46023C17.0476 1.86409 16.9918 1.26073 17.0746 0.675392C17.1089 0.428649 17.4348 0.22333 17.6293 0C17.8509 0.226932 18.2489 0.443064 18.2633 0.682603C18.3291 1.84335 18.3291 3.00688 18.2633 4.16762C18.2489 4.41977 17.8707 4.6539 17.6618 4.88804C17.4529 4.6431 17.1125 4.42157 17.0656 4.14781C16.972 3.59669 17.0386 3.02036 17.0386 2.45303L17.0476 2.46023Z" fill="url(#paint1_linear_199_15379)"/>
<path d="M4.70369 5.39795C4.91119 5.49972 5.10893 5.62029 5.29443 5.75816C6.1121 6.50739 6.94779 7.24222 7.70603 8.05088C7.89874 8.2562 7.8321 8.70647 7.88613 9.04506C7.54393 9.01265 7.09907 9.1045 6.88115 8.9244C6.03148 8.2098 5.21932 7.45174 4.44793 6.65327C4.26983 6.43241 4.18573 6.15036 4.2138 5.86802C4.23181 5.70052 4.52358 5.56184 4.70369 5.39795Z" fill="url(#paint2_linear_199_15379)"/>
<path d="M27.8469 9.28271C27.71 9.17465 27.4579 9.07198 27.3822 8.89368C27.3066 8.71538 27.3138 8.37138 27.4344 8.25071C28.3224 7.3718 29.2355 6.5109 30.181 5.69863C30.3161 5.58336 30.7682 5.67882 30.9501 5.82651C31.0762 5.93097 31.1014 6.40104 30.9825 6.5199C30.082 7.42043 29.1328 8.28493 28.1927 9.15483C28.0837 9.21288 27.9674 9.2559 27.8469 9.28271Z" fill="url(#paint3_linear_199_15379)"/>
<path d="M11.2378 2.28027C11.5728 2.72873 11.8484 2.96648 11.9583 3.26365C12.2266 4.01829 12.4175 4.79814 12.6409 5.56898C12.3509 5.6032 11.8538 5.74909 11.8034 5.65723C11.363 4.85407 10.9819 4.01976 10.6633 3.16099C10.6021 3.0043 10.9515 2.69812 11.2378 2.28027Z" fill="url(#paint4_linear_199_15379)"/>
<path d="M23.0166 6.00493C22.8563 5.6051 22.5663 5.25029 22.6438 5.00895C22.8855 4.27296 23.2023 3.56381 23.5893 2.89272C23.6802 2.79182 23.7956 2.7161 23.9243 2.67287C24.0531 2.62965 24.1908 2.62038 24.3241 2.64598C24.5042 2.72342 24.7312 3.15388 24.6681 3.33758C24.3901 4.09133 24.0653 4.82699 23.6956 5.54026C23.6145 5.68614 23.375 5.75818 23.0166 6.00493Z" fill="url(#paint5_linear_199_15379)"/>
</g>
<defs>
<linearGradient id="paint0_linear_199_15379" x1="17.6731" y1="9.27197" x2="17.6731" y2="29.995" gradientUnits="userSpaceOnUse">
<stop stop-color="#6C968B"/>
<stop offset="1" stop-color="#E8BB64"/>
</linearGradient>
<linearGradient id="paint1_linear_199_15379" x1="17.6641" y1="0" x2="17.6641" y2="4.88804" gradientUnits="userSpaceOnUse">
<stop stop-color="#6C968B"/>
<stop offset="1" stop-color="#E8BB64"/>
</linearGradient>
<linearGradient id="paint2_linear_199_15379" x1="6.04731" y1="5.39795" x2="6.04731" y2="9.04506" gradientUnits="userSpaceOnUse">
<stop stop-color="#6C968B"/>
<stop offset="1" stop-color="#E8BB64"/>
</linearGradient>
<linearGradient id="paint3_linear_199_15379" x1="29.1962" y1="5.64746" x2="29.1962" y2="9.28271" gradientUnits="userSpaceOnUse">
<stop stop-color="#6C968B"/>
<stop offset="1" stop-color="#E8BB64"/>
</linearGradient>
<linearGradient id="paint4_linear_199_15379" x1="11.6486" y1="2.28027" x2="11.6486" y2="5.68714" gradientUnits="userSpaceOnUse">
<stop stop-color="#6C968B"/>
<stop offset="1" stop-color="#E8BB64"/>
</linearGradient>
<linearGradient id="paint5_linear_199_15379" x1="23.6549" y1="2.63184" x2="23.6549" y2="6.00493" gradientUnits="userSpaceOnUse">
<stop stop-color="#6C968B"/>
<stop offset="1" stop-color="#E8BB64"/>
</linearGradient>
<clipPath id="clip0_199_15379">
<rect width="33.3625" height="30" fill="white" transform="translate(0.995117)"/>
</clipPath>
</defs>
</svg>
