<svg width="42" height="35" viewBox="0 0 42 35" fill="none" xmlns="http://www.w3.org/2000/svg">
<g clip-path="url(#clip0_199_18743)">
<path d="M41.9999 6.95506C41.818 7.35393 41.4958 7.45474 41.0751 7.48542C39.9805 7.56126 38.8889 7.29966 37.9476 6.7359C35.9182 5.5853 33.8756 4.45005 31.7958 3.3915C30.2836 2.62444 28.6881 2.02394 26.9742 1.9319C24.0309 1.7741 21.5719 2.80854 19.8975 5.25656C18.508 7.29914 17.2961 9.46007 16.0096 11.5706C15.8011 11.8909 15.6116 12.2231 15.442 12.5656C15.3894 12.6817 15.442 12.9557 15.5165 13.0039C16.0622 13.303 16.6309 13.558 17.2172 13.7666C17.7454 13.9375 18.2122 13.6745 18.5804 13.2932C19.5206 12.3201 20.4345 11.3207 21.3791 10.3542C22.3236 9.38775 23.3055 8.41248 24.2873 7.45913C25.1333 6.63947 26.0055 6.52551 26.9392 7.2575C28.0476 8.10043 29.0915 9.02494 30.0622 10.0233C32.3809 12.4779 34.6208 15.007 36.8957 17.5055C37.2036 17.8251 37.4446 18.2029 37.6045 18.6169C37.7645 19.0309 37.8401 19.4726 37.8271 19.9162C37.7898 21.7879 37.8271 23.6639 37.8139 25.5355C37.8139 26.9864 37.0271 28.0427 35.7122 28.4131C35.0547 28.5972 34.5835 28.538 33.6082 28.1545C33.1458 30.368 31.0769 31.1154 29.4442 30.2672C29.308 30.6601 29.1417 31.0418 28.9467 31.409C28.7577 31.7162 28.5099 31.9831 28.2175 32.1943C27.9252 32.4056 27.5941 32.5571 27.2431 32.6402C26.8921 32.7232 26.5282 32.7362 26.1721 32.6784C25.8161 32.6206 25.475 32.4931 25.1684 32.3032C25.0669 32.2408 24.9696 32.1719 24.8769 32.0972C24.5131 31.8079 24.4232 31.42 24.6446 31.0956C24.8659 30.7713 25.2867 30.7055 25.6921 30.9685C26.4066 31.4288 27.0444 31.4178 27.5638 30.9378C27.7244 30.779 27.848 30.5866 27.9257 30.3744C28.0033 30.1623 28.0332 29.9356 28.0131 29.7105C28.0131 27.3305 28.0131 24.9511 28.0131 22.5725C28.0076 22.3816 28.0267 22.1908 28.07 22.0048C28.1055 21.8558 28.1946 21.7249 28.3203 21.6372C28.4459 21.5495 28.5995 21.5111 28.7516 21.5293C28.9043 21.5278 29.0523 21.5819 29.1681 21.6815C29.2838 21.7811 29.3594 21.9194 29.3806 22.0706C29.4052 22.233 29.4154 22.3973 29.4113 22.5615C29.4113 24.2578 29.4113 25.9519 29.4113 27.6482C29.4113 28.6147 30.014 29.2328 30.8753 29.2043C31.1922 29.194 31.4956 29.0738 31.7336 28.8643C31.9715 28.6547 32.1291 28.3689 32.1793 28.0559C32.2064 27.8525 32.2181 27.6474 32.2144 27.4422C32.2144 25.4194 32.1925 23.3943 32.2297 21.3715C32.2409 21.0656 32.1858 20.7609 32.0682 20.4783C31.9505 20.1957 31.7731 19.9419 31.5481 19.7343C30.0644 18.2616 28.5873 16.7779 27.1079 15.2985C27.0312 15.2218 26.9501 15.1473 26.8778 15.064C26.56 14.709 26.5381 14.3298 26.8142 14.0383C27.0904 13.7469 27.5265 13.7447 27.8684 14.0844C29.5165 15.7237 31.1668 17.3718 32.793 19.0243C33.0718 19.3077 33.2896 19.6453 33.4328 20.0162C33.5761 20.3871 33.6418 20.7835 33.6258 21.1808C33.6017 22.6711 33.6082 24.1614 33.6258 25.6517C33.6258 26.6269 34.395 27.2537 35.3024 27.0762C35.6158 27.0175 35.8986 26.8502 36.101 26.6037C36.3034 26.3572 36.4125 26.0473 36.4091 25.7284C36.431 23.6478 36.431 21.5694 36.4091 19.4933C36.3846 19.2079 36.2686 18.938 36.0782 18.724C35.23 17.7422 34.36 16.7757 33.4811 15.8201C31.7278 13.9156 29.9987 12.0023 28.2213 10.1373C27.5923 9.4798 26.8318 8.94943 26.1261 8.36646C25.8324 8.12319 25.565 8.16921 25.2998 8.44535C23.5466 10.249 21.7933 12.044 20.04 13.852C19.3825 14.5314 18.7009 15.178 17.6862 15.1846C17.0482 15.2095 16.413 15.0888 15.8286 14.8317C15.2442 14.5747 14.726 14.1879 14.3133 13.7008C14.1034 13.4783 13.974 13.1918 13.9458 12.8872C13.9176 12.5825 13.9922 12.2772 14.1577 12.0199C15.6458 9.53458 17.0769 7.01204 18.6746 4.59908C20.9955 1.09251 24.901 -0.0537038 28.6157 0.763767C30.8687 1.25907 32.9069 2.28036 34.9101 3.37835C36.1176 4.03584 37.3208 4.71962 38.5065 5.42313C39.2779 5.88117 40.0669 6.19676 40.983 6.08061C41.1847 6.04163 41.3936 6.06548 41.5813 6.14896C41.769 6.23244 41.9266 6.37153 42.0328 6.54742L41.9999 6.95506Z" fill="url(#paint0_linear_199_18743)"/>
<path d="M42.0002 23.7735C41.9192 23.9478 41.7843 24.0914 41.6153 24.183C41.4464 24.2745 41.2524 24.3092 41.0622 24.2819C40.6808 24.2578 40.2973 24.2819 39.9138 24.2819C39.7337 24.2873 39.5589 24.2211 39.4275 24.0979C39.296 23.9747 39.2187 23.8045 39.2124 23.6245C39.2046 23.5349 39.2153 23.4447 39.2437 23.3594C39.2721 23.2741 39.3177 23.1956 39.3777 23.1286C39.4377 23.0617 39.5107 23.0077 39.5924 22.9701C39.674 22.9325 39.7625 22.9121 39.8524 22.91C40.3557 22.8636 40.8624 22.8687 41.3646 22.9253C41.5838 22.9582 41.7898 23.2168 42.0002 23.3637L42.0002 23.7735Z" fill="url(#paint1_linear_199_18743)"/>
<path d="M16.06 31.8644C14.219 32.5614 12.606 31.5598 12.1567 29.8613C11.3414 30.1681 10.5174 30.2251 9.71746 29.8262C9.33483 29.6418 9.00118 29.3696 8.74372 29.0318C8.48626 28.694 8.31227 28.3001 8.23594 27.8823C5.869 28.8356 3.63356 26.9026 4.38309 24.299C4.24502 24.299 4.1179 24.2771 3.9886 24.2771C2.96292 24.2771 1.93944 24.2771 0.920343 24.2771C0.332992 24.2771 -0.000132092 24.0163 0.00644272 23.5736C0.0130175 23.1309 0.352716 22.881 0.940067 22.881C2.32078 22.881 3.7015 22.881 5.08221 22.881C5.22225 22.8869 5.36184 22.8615 5.49076 22.8065C5.61969 22.7515 5.73469 22.6684 5.82736 22.5632C7.32642 21.0466 8.83278 19.5374 10.3465 18.0354C11.3919 16.9987 12.7068 16.8081 13.8969 17.5072C14.5122 17.8838 14.9618 18.4799 15.1548 19.175C15.7312 18.5964 16.2616 18.0485 16.8051 17.516C17.8439 16.4991 19.1962 16.315 20.3599 17.0272C20.9615 17.4094 21.4009 18.0002 21.5938 18.6863C22.0212 18.248 22.3915 17.8513 22.786 17.4787C24.2654 16.0761 26.4635 16.4092 27.3292 18.1844C27.5734 18.6408 27.6759 19.1596 27.6236 19.6746C27.5713 20.1895 27.3665 20.6772 27.0356 21.0751C26.6219 21.5659 26.1784 22.0307 25.7074 22.4668C25.5563 22.5907 25.3958 22.7028 25.2275 22.8021C26.3781 23.1769 27.0509 23.8278 27.3161 24.8469C27.4338 25.2636 27.4482 25.7026 27.3581 26.1261C27.268 26.5496 27.076 26.9448 26.7989 27.2774C26.6889 27.4169 26.5711 27.5501 26.446 27.6763C24.6284 29.4924 22.8109 31.3092 20.9933 33.1268C19.6783 34.4242 17.787 34.387 16.7153 33.0282C16.4659 32.6585 16.2467 32.2694 16.06 31.8644ZM24.8264 18.0135C24.3311 17.9959 23.9826 18.2655 23.6539 18.5942C20.4775 21.7735 17.3004 24.9521 14.1226 28.1299C14.012 28.2324 13.9101 28.3438 13.818 28.4631C13.6544 28.667 13.5546 28.9148 13.5312 29.1752C13.5078 29.4356 13.5618 29.6972 13.6865 29.927C13.7958 30.1651 13.9737 30.3651 14.1975 30.5014C14.4212 30.6377 14.6806 30.704 14.9423 30.6919C15.4178 30.6919 15.7641 30.453 16.0841 30.1309L25.6439 20.5645C25.7639 20.4534 25.8718 20.33 25.9661 20.1963C26.1155 19.9819 26.201 19.7294 26.2126 19.4683C26.2243 19.2073 26.1616 18.9482 26.0318 18.7214C25.9189 18.4987 25.744 18.3134 25.5282 18.1878C25.3124 18.0622 25.0649 18.0017 24.8155 18.0135L24.8264 18.0135ZM18.9091 18.0135C18.6967 18.0118 18.4864 18.0564 18.293 18.1442C18.0996 18.232 17.9277 18.3609 17.7892 18.5219L10.1185 26.2101C10.0196 26.3042 9.93009 26.4077 9.85115 26.5191C9.69504 26.7292 9.60396 26.9805 9.58915 27.2419C9.57435 27.5033 9.63649 27.7632 9.76787 27.9897C9.88227 28.2175 10.0604 28.4071 10.2807 28.5355C10.5009 28.6639 10.7537 28.7256 11.0083 28.7129C11.4839 28.7129 11.828 28.4652 12.1458 28.1453L19.709 20.5755C19.8298 20.4639 19.9392 20.3405 20.0356 20.2073C20.1895 19.9957 20.2793 19.7443 20.294 19.4831C20.3088 19.2219 20.248 18.962 20.1188 18.7345C20.005 18.5092 19.8288 18.3214 19.6112 18.1936C19.3936 18.0657 19.1437 18.0032 18.8915 18.0135L18.9091 18.0135ZM24.6226 24.15C24.147 24.15 23.8007 24.3845 23.4808 24.7044C21.7173 26.4753 19.9508 28.2432 18.1815 30.0081C18.0519 30.1286 17.9303 30.2574 17.8177 30.3939C17.6461 30.5916 17.5367 30.8356 17.5032 31.0952C17.4697 31.3549 17.5135 31.6186 17.6292 31.8535C17.7285 32.0879 17.893 32.289 18.1032 32.4327C18.3133 32.5764 18.5603 32.6568 18.8148 32.6644C19.0405 32.6739 19.2653 32.6319 19.4723 32.5415C19.6793 32.4511 19.8629 32.3148 20.0093 32.1428C21.8298 30.312 23.6561 28.4857 25.4883 26.6637C25.5885 26.5705 25.6795 26.4677 25.76 26.3569C25.9147 26.1466 26.0061 25.8965 26.0236 25.636C26.0411 25.3755 25.9839 25.1154 25.8587 24.8863C25.744 24.6556 25.564 24.4636 25.3412 24.3342C25.1183 24.2049 24.8623 24.1438 24.6051 24.1587L24.6226 24.15ZM12.4789 18.4978C12.2631 18.4941 12.0491 18.5379 11.8522 18.6262C11.6552 18.7144 11.4801 18.8449 11.3393 19.0085C10.0243 20.3366 8.70056 21.6618 7.36806 22.984C6.90344 23.4487 6.42567 23.8979 5.98296 24.3823C5.81622 24.5566 5.69806 24.7716 5.64027 25.0058C5.58248 25.2401 5.58707 25.4853 5.65358 25.7172C5.72009 25.9491 5.8462 26.1596 6.01935 26.3275C6.1925 26.4955 6.40664 26.6152 6.64045 26.6747C7.22561 26.8369 7.70118 26.6243 8.11978 26.2035C9.84385 24.4678 11.573 22.7364 13.3073 21.0094C13.407 20.9161 13.4972 20.8134 13.5769 20.7026C13.7307 20.4904 13.8209 20.2387 13.8368 19.9771C13.8527 19.7154 13.7937 19.4547 13.6667 19.2254C13.5542 19.004 13.3813 18.819 13.168 18.6917C12.9546 18.5645 12.7097 18.5003 12.4614 18.5066L12.4789 18.4978Z" fill="url(#paint2_linear_199_18743)"/>
<path d="M3.48249 7.50458C2.66063 7.50458 1.84097 7.50458 1.02131 7.50458C0.874318 7.50701 0.727459 7.49453 0.582987 7.46733C0.4201 7.4404 0.272457 7.35543 0.167319 7.22814C0.062181 7.10085 0.00664945 6.93981 0.0109773 6.77477C0.0161982 6.60833 0.0821678 6.44957 0.196433 6.32844C0.310698 6.20731 0.465353 6.1322 0.631203 6.11729C0.781147 6.10156 0.931962 6.0957 1.08267 6.09975C2.64091 6.09975 4.19914 6.08441 5.75738 6.09975C6.22187 6.11252 6.67746 5.97069 7.05262 5.6965C8.3369 4.79356 9.61899 3.88842 11.0633 3.2397C13.0521 2.3514 15.2056 1.89144 17.3839 1.88968C17.8748 1.88968 18.1904 2.16363 18.2013 2.57127C18.2123 2.9789 17.9186 3.26819 17.4145 3.28134C16.1162 3.30237 14.8253 3.48195 13.5705 3.8161C12.2262 4.19304 10.9486 4.77639 9.78336 5.54528C9.02726 6.0362 8.2843 6.54904 7.53477 7.05092C7.06562 7.36307 6.51134 7.52231 5.94805 7.50677C5.12181 7.49801 4.30434 7.50458 3.48249 7.50458Z" fill="url(#paint3_linear_199_18743)"/>
<path d="M17.4057 3.29259C18.1102 3.2852 18.8139 3.34391 19.5075 3.46793C20.5222 3.66737 21.1797 2.57155 21.1797 2.57155C21.1797 2.57155 17.8112 1.71902 16.5356 1.92722" fill="url(#paint4_linear_199_18743)"/>
</g>
<defs>
<linearGradient id="paint0_linear_199_18743" x1="13.9399" y1="16.6129" x2="42.0328" y2="16.6129" gradientUnits="userSpaceOnUse">
<stop stop-color="#77A4A6"/>
<stop offset="1" stop-color="#FACE80"/>
</linearGradient>
<linearGradient id="paint1_linear_199_18743" x1="39.21" y1="23.5848" x2="42.0002" y2="23.5848" gradientUnits="userSpaceOnUse">
<stop stop-color="#77A4A6"/>
<stop offset="1" stop-color="#FACE80"/>
</linearGradient>
<linearGradient id="paint2_linear_199_18743" x1="0.00634727" y1="25.3364" x2="27.6369" y2="25.3364" gradientUnits="userSpaceOnUse">
<stop stop-color="#77A4A6"/>
<stop offset="1" stop-color="#FACE80"/>
</linearGradient>
<linearGradient id="paint3_linear_199_18743" x1="0.0107421" y1="4.69875" x2="18.2016" y2="4.69874" gradientUnits="userSpaceOnUse">
<stop stop-color="#77A4A6"/>
<stop offset="1" stop-color="#FACE80"/>
</linearGradient>
<linearGradient id="paint4_linear_199_18743" x1="16.5356" y1="2.69333" x2="21.1797" y2="2.69333" gradientUnits="userSpaceOnUse">
<stop stop-color="#77A4A6"/>
<stop offset="1" stop-color="#FACE80"/>
</linearGradient>
<clipPath id="clip0_199_18743">
<rect width="33.5776" height="42" fill="white" transform="translate(0 34.0781) rotate(-90)"/>
</clipPath>
</defs>
</svg>
