<svg width="27" height="28" viewBox="0 0 27 28" fill="none" xmlns="http://www.w3.org/2000/svg">
<g clip-path="url(#clip0_199_15397)">
<path d="M21.6216 0.00550005C23.802 0.051495 25.391 1.08419 26.2814 3.04664C27.1717 5.00909 26.8432 6.89489 25.448 8.56166C25.1786 8.88253 24.8676 9.16836 24.5719 9.46514C19.8848 14.1522 15.1969 18.8375 10.5084 23.521C8.98286 25.0432 6.76415 25.0618 5.32845 23.5878C4.69138 22.9445 4.3265 22.0806 4.30957 21.1754C4.29265 20.2702 4.62498 19.3932 5.23756 18.7266C5.70299 18.214 6.21003 17.7409 6.70064 17.246L17.5861 6.36376C17.7022 6.24768 17.8139 6.12612 17.9366 6.0177C18.3527 5.65083 18.8203 5.65083 19.1532 6.01113C19.4599 6.33966 19.4489 6.81166 19.0777 7.18838C17.7942 8.48719 16.4987 9.77396 15.2075 11.0651C12.3668 13.9051 9.52531 16.7444 6.68312 19.5829C6.09613 20.1688 5.79936 20.8292 6.05014 21.6637C6.1385 21.9624 6.29874 22.235 6.51684 22.4575C6.73493 22.6801 7.00424 22.8457 7.30119 22.9401C7.59814 23.0344 7.91369 23.0545 8.22023 22.9987C8.52676 22.9428 8.81493 22.8127 9.05952 22.6197C9.18742 22.5174 9.30919 22.4077 9.4242 22.2912C14.2668 17.4507 19.1087 12.6092 23.9499 7.76661C25.724 5.98923 25.4042 3.26567 23.3015 2.07856C22.6625 1.71317 21.9241 1.5597 21.1923 1.64017C20.4606 1.72064 19.7732 2.03092 19.2288 2.52646C18.69 3.01817 18.1873 3.5493 17.6704 4.0662C13.2016 8.53063 8.73427 12.9958 4.26838 17.4617C1.75508 19.987 2.26103 23.9054 5.30546 25.686C6.23696 26.2245 7.31555 26.4527 8.3853 26.3377C9.45504 26.2227 10.4605 25.7705 11.2563 25.0465C12.1697 24.2054 13.0271 23.3052 13.9054 22.4281C17.1988 19.1376 20.4915 15.8457 23.7834 12.5523C23.8929 12.4493 23.9871 12.342 24.0955 12.2445C24.5084 11.8766 24.9793 11.8645 25.3133 12.2095C25.6473 12.5545 25.6232 12.9859 25.2728 13.3857C25.2257 13.4415 25.1709 13.4952 25.1194 13.5423C20.9865 17.6731 16.871 21.8235 12.7172 25.9292C9.02229 29.5847 2.99038 28.2059 1.38165 23.3326C0.569069 20.8708 1.03778 18.5897 2.78669 16.6524C3.88728 15.4346 5.08644 14.3088 6.25055 13.148C10.0842 9.31219 13.9189 5.47927 17.7548 1.64927C18.8214 0.578248 20.0611 -0.0667778 21.6216 0.00550005Z" fill="url(#paint0_linear_199_15397)"/>
</g>
<defs>
<linearGradient id="paint0_linear_199_15397" x1="13.886" y1="0" x2="13.886" y2="28.0005" gradientUnits="userSpaceOnUse">
<stop stop-color="#76938B"/>
<stop offset="1" stop-color="#D3A85D"/>
</linearGradient>
<clipPath id="clip0_199_15397">
<rect width="25.7846" height="28" fill="white" transform="translate(0.995117)"/>
</clipPath>
</defs>
</svg>
