<svg width="33" height="34" viewBox="0 0 33 34" fill="none" xmlns="http://www.w3.org/2000/svg">
<path d="M18.0806 31.5979L4.21931 27.5547C3.84838 28.131 3.36985 28.5195 2.7252 28.6614C2.40053 28.7332 2.06456 28.7298 1.74131 28.6514C1.41805 28.573 1.11548 28.4216 0.855198 28.2079C0.594917 27.9943 0.383349 27.7237 0.235605 27.4155C0.0878612 27.1073 0.00758584 26.7691 0.000511999 26.425C-0.00656185 26.0809 0.0597404 25.7394 0.194684 25.4249C0.329627 25.1105 0.529881 24.8308 0.781146 24.6058C1.03241 24.3809 1.32849 24.2162 1.64823 24.1237C1.96797 24.0311 2.30348 24.0128 2.63082 24.0702C2.82714 24.1084 2.94229 24.0976 3.05932 23.896C6.91335 17.2604 10.7712 10.6303 14.6327 4.0057C14.6507 3.97439 14.6629 3.94112 14.6865 3.89023C14.241 3.2904 14.0089 2.61816 14.1901 1.85003C14.426 0.848024 15.0442 0.246235 16.0126 0.0417252C16.8621 -0.1393 17.7814 0.281461 18.2779 1.05645C18.5296 1.43665 18.6627 1.88787 18.6589 2.34903C18.6552 2.8102 18.5149 3.25905 18.2571 3.63484C18.0683 3.90295 18.1202 4.06148 18.2675 4.29925C22.0561 10.4156 25.8402 16.535 29.62 22.6572C29.7389 22.8529 29.8258 22.9899 30.1099 22.9224C31.0915 22.6885 32.0919 23.216 32.5497 24.1602C32.7715 24.6229 32.8395 25.1486 32.743 25.6555C32.6465 26.1624 32.3911 26.622 32.0164 26.9627C31.2293 27.6702 30.1146 27.7553 29.2793 27.133C29.0481 26.9617 28.9018 26.9607 28.6639 27.1095C26.7076 28.3489 24.7451 29.5802 22.7762 30.8034C22.6129 30.9012 22.5157 30.9903 22.5591 31.2281C22.8026 32.5618 21.9466 33.779 20.645 33.9767C19.418 34.1626 18.2609 33.2144 18.1032 31.8993C18.091 31.8152 18.0891 31.729 18.0806 31.5979ZM10.8574 21.621C8.7809 22.9371 6.71389 24.2522 4.63743 25.5487C4.28726 25.7679 4.55343 26.0253 4.54305 26.2591C4.53833 26.3364 4.70161 26.4715 4.80921 26.5028C8.4279 27.5661 12.0485 28.6236 15.671 29.6751L18.2996 30.4403C18.7101 30.1008 19.0546 29.8278 19.3784 29.5411C19.4184 29.5077 19.4515 29.4661 19.4755 29.419C19.4995 29.3719 19.514 29.3202 19.5181 29.2671C19.4869 28.8913 19.4237 28.5176 19.3746 28.1428C18.8951 24.6416 18.415 21.1402 17.9343 17.6384C17.4466 14.0896 16.9577 10.5402 16.4676 6.99018C16.4109 6.58214 16.3468 6.17507 16.2788 5.71028C16.2526 5.741 16.2286 5.77371 16.2071 5.80813C15.3173 9.76003 14.4307 13.7132 13.5473 17.6678C13.5454 17.7266 13.5568 17.7851 13.5806 17.8387C13.6043 17.8922 13.6398 17.9392 13.6842 17.976C13.9501 18.1589 14.1758 18.3979 14.3464 18.6775C14.5171 18.9571 14.6288 19.2709 14.6743 19.5984C14.7054 19.8107 14.7686 19.9037 14.982 19.9565C15.6795 20.1307 16.3703 20.3313 17.0584 20.5338C17.4746 20.6561 17.6408 21.0084 17.469 21.3724C17.3076 21.7139 17.0339 21.7433 16.7196 21.6552L14.4543 21.0231C13.5605 22.4684 12.007 22.6396 10.8574 21.621ZM17.3859 5.05761L17.3387 5.08305C17.5514 6.64084 17.7644 8.19799 17.9777 9.75449C18.4138 12.9177 18.8508 16.0816 19.2887 19.2461C19.7411 22.53 20.1939 25.8139 20.6469 29.0978C20.6568 29.1529 20.6777 29.2052 20.7083 29.2513C20.7388 29.2975 20.7784 29.3366 20.8243 29.3659C21.2019 29.5558 21.586 29.7211 22.0145 29.9159C23.9966 28.6741 26.041 27.3952 28.0806 26.1065C28.1939 26.0341 28.3468 25.8442 28.3222 25.7552C28.2533 25.5047 28.4006 25.1681 27.9645 25.0409C26.3779 24.5888 24.8055 24.0829 23.2283 23.5976C22.6309 23.4136 22.0315 23.2375 21.435 23.0428C21.0716 22.9234 20.9291 22.6465 21.0292 22.3147C21.1292 21.983 21.384 21.8362 21.7531 21.9233C21.8475 21.9449 21.9343 21.9762 22.024 22.0045C24.1089 22.6465 26.1948 23.2835 28.276 23.9391C28.5327 24.0203 28.7036 23.9606 28.7706 23.7297C28.8064 23.6034 28.7404 23.4126 28.6639 23.2884C24.9729 17.3057 21.279 11.3266 17.5822 5.35116C17.5199 5.25037 17.452 5.15546 17.3859 5.05761ZM15.0565 5.70147L14.9886 5.66918C11.339 11.9415 7.68667 18.2134 4.03148 24.4851C4.11362 24.4883 4.19462 24.4643 4.26272 24.4166C6.21019 23.1856 8.15671 21.9514 10.1023 20.7139C10.1459 20.6743 10.1802 20.6249 10.2025 20.5694C10.2247 20.5139 10.2344 20.4539 10.2306 20.3939C10.0504 18.932 10.7667 17.8732 12.1476 17.6149C12.3505 17.5768 12.4109 17.4946 12.4534 17.3018C12.9612 15.0101 13.4749 12.72 13.9947 10.4316C14.3489 8.85816 14.7029 7.28145 15.0565 5.70147ZM17.5247 2.34613C17.5247 2.11331 17.4579 1.88576 17.3328 1.69237C17.2078 1.49898 17.0301 1.3485 16.8224 1.26005C16.6147 1.17159 16.3862 1.14915 16.1662 1.19558C15.9461 1.24201 15.7444 1.35521 15.5865 1.5208C15.4286 1.68639 15.3218 1.89689 15.2796 2.12557C15.2374 2.35424 15.2617 2.59075 15.3495 2.80506C15.4373 3.01937 15.5845 3.20179 15.7725 3.32916C15.9605 3.45652 16.1807 3.52307 16.4053 3.52035C16.7029 3.51524 16.9868 3.38946 17.196 3.16996C17.4052 2.95047 17.5232 2.65473 17.5247 2.34613ZM13.5671 19.9457C13.5709 19.7127 13.5077 19.4838 13.3855 19.2881C13.2633 19.0925 13.0878 18.9389 12.8812 18.8471C12.6746 18.7552 12.4463 18.7291 12.2254 18.7722C12.0044 18.8153 11.8009 18.9255 11.6406 19.0889C11.4803 19.2523 11.3705 19.4615 11.3253 19.6898C11.28 19.9181 11.3013 20.1552 11.3864 20.3709C11.4716 20.5866 11.6167 20.7712 11.8034 20.9011C11.99 21.031 12.2097 21.1004 12.4345 21.1004C12.731 21.0982 13.015 20.9764 13.2264 20.7609C13.4378 20.5454 13.56 20.253 13.5671 19.9457ZM30.5431 26.3746C30.7677 26.3724 30.9867 26.301 31.172 26.1695C31.3574 26.038 31.5009 25.8523 31.5842 25.636C31.6676 25.4197 31.687 25.1826 31.64 24.9549C31.593 24.7272 31.4818 24.519 31.3204 24.357C31.1591 24.195 30.9549 24.0863 30.7338 24.0449C30.5128 24.0035 30.2848 24.0312 30.079 24.1244C29.8731 24.2177 29.6987 24.3723 29.5778 24.5685C29.4569 24.7648 29.3951 24.994 29.4001 25.2268C29.4087 25.5348 29.533 25.8272 29.7465 26.0416C29.96 26.256 30.2459 26.3755 30.5431 26.3746ZM2.25423 27.5439C2.47914 27.5468 2.69979 27.4803 2.88806 27.3527C3.07634 27.2251 3.2237 27.0423 3.31138 26.8275C3.39906 26.6128 3.42307 26.3758 3.38037 26.1469C3.33766 25.9179 3.23017 25.7073 3.07159 25.542C2.91301 25.3766 2.71053 25.2639 2.48994 25.2183C2.26936 25.1726 2.04067 25.1962 1.83302 25.2858C1.62537 25.3754 1.44816 25.5271 1.32399 25.7215C1.19981 25.916 1.13429 26.1444 1.13577 26.3775C1.1394 26.6845 1.2582 26.978 1.46698 27.1957C1.67577 27.4135 1.95813 27.5384 2.25423 27.5439ZM20.342 32.8181C20.5666 32.8211 20.787 32.7547 20.9751 32.6274C21.1632 32.5002 21.3106 32.3178 21.3985 32.1035C21.4864 31.8892 21.5108 31.6527 21.4687 31.424C21.4267 31.1952 21.3199 30.9846 21.1621 30.8189C21.0043 30.6533 20.8025 30.54 20.5824 30.4935C20.3623 30.4469 20.1339 30.4693 19.9261 30.5577C19.7183 30.6462 19.5406 30.7967 19.4155 30.9901C19.2904 31.1835 19.2236 31.4111 19.2236 31.6439C19.2248 31.9527 19.3425 32.2488 19.5515 32.4688C19.7605 32.6887 20.0442 32.8152 20.342 32.8211V32.8181Z" fill="url(#paint0_linear_1_3565)"/>
<defs>
<linearGradient id="paint0_linear_1_3565" x1="16.3929" y1="0" x2="16.3929" y2="34" gradientUnits="userSpaceOnUse">
<stop stop-color="#FFCF7E"/>
<stop offset="0.807292" stop-color="#6FA1A9"/>
</linearGradient>
</defs>
</svg>
