<svg width="48" height="48" viewBox="0 0 48 48" fill="none" xmlns="http://www.w3.org/2000/svg">
<g clip-path="url(#clip0_199_16855)">
<path d="M-1.16227e-05 15.8447C0.0544687 15.7366 0.111763 15.6296 0.160608 15.5197C0.508155 14.7374 1.09993 14.2809 1.95846 14.2236C2.817 14.1664 3.49612 14.511 3.91318 15.2567C4.08132 15.5582 4.26824 15.623 4.5754 15.6193C5.72794 15.6061 6.88142 15.6146 8.0828 15.6146C8.09314 15.4051 8.10816 15.2389 8.10816 15.0736C8.10816 13.8865 8.10817 12.6994 8.11286 11.5123C8.1185 10.776 8.36835 10.4407 9.07096 10.2744C11.8156 9.62453 14.3236 8.42991 16.7611 7.03806C21.5517 4.3032 26.3732 4.30226 31.19 6.99862C31.9903 7.4466 32.7915 7.89364 33.667 8.38201C33.6829 8.1491 33.7027 8.00634 33.7027 7.85889C33.7027 6.73189 33.713 5.60958 33.6933 4.4854C33.6933 4.31916 33.5918 4.08155 33.4613 4.0036C32.6591 3.52463 32.2401 2.84467 32.3237 1.9102C32.4073 0.975724 32.9484 0.375592 33.8342 0.0797541C33.8736 0.0666058 33.9037 0.026222 33.9394 -0.00195312H34.8787C34.9867 0.0515795 35.0928 0.109807 35.2037 0.158644C35.9861 0.505197 36.4417 1.09782 36.499 1.95716C36.5563 2.8165 36.2078 3.488 35.4658 3.91344C35.1924 4.06935 35.1051 4.23276 35.1079 4.53236C35.1229 5.89227 35.1229 7.25156 35.1079 8.61023C35.1079 8.89949 35.1764 9.07136 35.4714 9.1634C36.5713 9.5062 37.6591 9.89314 38.7656 10.2162C39.6551 10.4754 39.8927 10.7318 39.8927 11.6635C39.8927 13.6639 39.8927 15.664 39.8927 17.6638C39.8991 17.8212 39.8874 17.9787 39.858 18.1334C39.8323 18.2901 39.7486 18.4314 39.6235 18.5292C39.4983 18.627 39.3409 18.6742 39.1826 18.6612C39.0248 18.6695 38.8696 18.6182 38.7478 18.5175C38.6261 18.4168 38.5466 18.274 38.5251 18.1174C38.497 17.948 38.4863 17.7762 38.4932 17.6047C38.4932 15.746 38.4866 13.8865 38.4932 12.0269C38.4932 11.732 38.4199 11.5893 38.108 11.5104C35.4704 10.8426 33.0179 9.7316 30.694 8.33317C28.2913 6.88685 25.7053 6.23601 22.9062 6.4708C21.0774 6.61324 19.3055 7.17188 17.7258 8.10402C15.2301 9.58039 12.6422 10.8361 9.81209 11.5339C9.47581 11.6165 9.51996 11.841 9.51996 12.0711C9.51996 14.2894 9.51996 16.5086 9.51996 18.727C9.51996 20.9453 9.49178 23.1655 9.5688 25.3819C9.65804 27.9177 10.448 30.2496 11.8316 32.3778C11.9162 32.5093 12.0129 32.6332 12.088 32.7694C12.2862 33.1319 12.2036 33.5076 11.8899 33.7227C11.8167 33.7763 11.7333 33.8144 11.6448 33.8345C11.5563 33.8547 11.4646 33.8564 11.3754 33.8397C11.2862 33.823 11.2014 33.7881 11.1262 33.7373C11.051 33.6865 10.9871 33.6208 10.9383 33.5442C10.5735 33.0189 10.2376 32.474 9.93232 31.912C8.64733 29.5049 8.09783 26.9184 8.11098 24.2014C8.11098 23.6435 8.11098 23.0856 8.11098 22.4677C7.5164 22.4677 6.97347 22.4442 6.43524 22.4855C6.3075 22.4958 6.17599 22.7147 6.083 22.8612C5.83914 23.2481 5.47729 23.5464 5.05088 23.712C4.62448 23.8775 4.15612 23.9016 3.71498 23.7806C3.27677 23.6528 2.89086 23.3883 2.61358 23.0257C2.33629 22.6632 2.18212 22.2215 2.17356 21.7652C2.17428 21.3164 2.31708 20.8795 2.5815 20.5169C2.84593 20.1543 3.21838 19.8848 3.64547 19.7469C4.10247 19.5963 4.59771 19.6098 5.04578 19.7852C5.49385 19.9606 5.86666 20.2869 6.09991 20.7077C6.25396 20.9828 6.42021 21.0768 6.7208 21.0599C7.15476 21.0364 7.5906 21.0542 8.06683 21.0542V17.0224H7.34826C6.37888 17.0224 5.41045 17.013 4.44201 17.0327C4.29078 17.0327 4.07474 17.1351 4.00335 17.2572C3.52806 18.0639 2.84517 18.4781 1.91055 18.3973C0.975935 18.3165 0.375713 17.7737 0.079828 16.8871C0.058613 16.8478 0.030996 16.8122 -0.00189209 16.7819L-1.16227e-05 15.8447ZM34.4053 2.80898C34.5855 2.80786 34.7582 2.73701 34.8873 2.61128C35.0164 2.48556 35.0917 2.31473 35.0975 2.13466C35.1016 2.04157 35.0868 1.94862 35.0542 1.86135C35.0215 1.77408 34.9716 1.69428 34.9074 1.62671C34.8433 1.55914 34.7662 1.50517 34.6807 1.46804C34.5952 1.4309 34.5032 1.41135 34.41 1.41056C34.2295 1.41049 34.0561 1.4808 33.9266 1.60654C33.7972 1.73229 33.7219 1.90356 33.7167 2.08394C33.7128 2.17712 33.7277 2.27014 33.7605 2.35746C33.7932 2.44479 33.8432 2.52464 33.9074 2.59227C33.9716 2.6599 34.0488 2.71394 34.1343 2.75117C34.2199 2.7884 34.312 2.80805 34.4053 2.80898ZM2.80854 16.3077C2.80679 16.2145 2.78627 16.1226 2.74822 16.0375C2.71017 15.9524 2.65537 15.8758 2.58708 15.8123C2.51878 15.7489 2.43841 15.6998 2.35074 15.6681C2.26307 15.6364 2.16991 15.6226 2.07682 15.6277C1.8965 15.6341 1.72585 15.7108 1.60138 15.8413C1.47691 15.9719 1.40852 16.1461 1.41084 16.3264C1.41259 16.4196 1.43311 16.5115 1.47116 16.5966C1.50921 16.6817 1.56402 16.7583 1.63231 16.8218C1.7006 16.8852 1.78098 16.9343 1.86865 16.966C1.95631 16.9977 2.04947 17.0115 2.14257 17.0064C2.32256 16.9991 2.49266 16.9221 2.61693 16.7917C2.7412 16.6613 2.80991 16.4878 2.80854 16.3077ZM4.2673 22.4451C4.35649 22.4497 4.4457 22.4365 4.52979 22.4065C4.61388 22.3764 4.6912 22.33 4.75729 22.27C4.82338 22.2099 4.87693 22.1374 4.91487 22.0566C4.95282 21.9757 4.97439 21.8882 4.97836 21.799C4.98655 21.7061 4.97539 21.6126 4.94559 21.5243C4.9158 21.436 4.86801 21.3548 4.80526 21.2859C4.7425 21.2169 4.66613 21.1618 4.58098 21.1238C4.49582 21.0859 4.40373 21.066 4.31051 21.0655C4.21744 21.0629 4.12478 21.0787 4.03788 21.1121C3.95098 21.1455 3.87156 21.1958 3.80422 21.2601C3.73688 21.3244 3.68294 21.4014 3.64554 21.4866C3.60813 21.5718 3.588 21.6636 3.5863 21.7567C3.59145 21.936 3.66474 22.1066 3.79125 22.2338C3.91776 22.361 4.088 22.4352 4.2673 22.4414V22.4451Z" fill="url(#paint0_linear_199_16855)"/>
<path d="M37.0604 19.5875C37.0604 21.3532 37.0998 23.1188 37.0519 24.8835C36.958 28.2035 35.7613 31.0717 33.4778 33.5013C30.9921 36.1518 28.0012 38.2781 24.6811 39.7553C24.4732 39.8591 24.2441 39.9138 24.0117 39.9149C23.7792 39.9161 23.5496 39.8637 23.3407 39.7618C19.7065 38.1389 16.5504 35.869 13.9475 32.8477C11.836 30.3927 10.9239 27.5019 10.9183 24.3012C10.9114 20.7856 10.9114 17.2703 10.9183 13.7553C10.9183 12.9476 11.1418 12.6781 11.8707 12.3944C13.0759 11.9249 14.2707 11.4299 15.4636 10.9312C16.0028 10.7058 16.4029 10.7847 16.5823 11.1942C16.7617 11.6037 16.5936 11.969 16.0836 12.1897C14.9564 12.6781 13.8142 13.1467 12.6738 13.6107C12.4503 13.7046 12.3178 13.7872 12.3188 14.0662C12.3329 17.6754 12.2925 21.2846 12.3535 24.8929C12.4014 27.7658 13.4497 30.2697 15.4101 32.3941C17.7262 34.9246 20.5383 36.9517 23.6713 38.3493C23.8929 38.4327 24.1378 38.4294 24.3571 38.3399C27.7067 36.8251 30.611 34.7016 33.0044 31.9047C34.8633 29.7315 35.6589 27.1685 35.6655 24.3397C35.673 20.9493 35.6655 17.5599 35.6739 14.1695C35.6739 13.8614 35.6007 13.6999 35.2851 13.5928C33.1462 12.8744 31.1314 11.8863 29.2011 10.7255C27.3225 9.59853 25.2973 9.09889 23.1106 9.28485C21.7848 9.39935 20.4972 9.78724 19.3289 10.4241C19.1777 10.5058 19.0311 10.5969 18.8808 10.6776C18.429 10.9209 18.0355 10.8476 17.8175 10.4898C17.5996 10.132 17.7236 9.73847 18.167 9.47174C20.6004 8.02668 23.2127 7.54363 26.0037 8.02261C27.4202 8.26679 28.7277 8.80681 29.9554 9.54218C31.9052 10.7231 33.9788 11.6865 36.1389 12.4151C36.8669 12.6565 37.0716 12.9551 37.0735 13.7356C37.0782 15.6881 37.0735 17.6416 37.0735 19.5941L37.0604 19.5875Z" fill="url(#paint1_linear_199_16855)"/>
<path d="M39.931 21.8027C41.2038 21.8027 42.4512 21.813 43.6977 21.7877C43.8245 21.7877 43.9794 21.5857 44.0659 21.4449C44.3031 21.0442 44.6647 20.732 45.0957 20.5555C45.5266 20.379 46.0034 20.348 46.4536 20.4672C46.8851 20.5893 47.267 20.8446 47.5448 21.1965C47.8227 21.5485 47.9822 21.9792 48.0007 22.4272C48.0159 22.8918 47.8775 23.3483 47.6068 23.7262C47.336 24.104 46.9482 24.3819 46.5034 24.5169C46.0592 24.6566 45.5807 24.6415 45.1462 24.4742C44.7116 24.3069 44.3467 23.9971 44.111 23.5956C43.9372 23.2903 43.7512 23.1983 43.4168 23.2039C42.2652 23.2237 41.1127 23.2114 39.9488 23.2114C39.8737 24.562 39.8004 25.8637 39.7234 27.2386C40.318 27.2386 40.9492 27.2499 41.5786 27.2255C41.6725 27.2255 41.7833 27.063 41.8481 26.9531C42.3854 26.0543 43.336 25.6383 44.2847 25.9087C44.7229 26.0372 45.1087 26.3021 45.386 26.6649C45.6632 27.0278 45.8174 27.4696 45.8261 27.9261C45.823 28.3905 45.6692 28.8413 45.3879 29.2109C45.1065 29.5804 44.7128 29.8487 44.2659 29.9753C43.3266 30.2261 42.4005 29.8176 41.8538 28.9545C41.7959 28.8747 41.7223 28.8076 41.6375 28.7574C41.5526 28.7071 41.4584 28.6748 41.3606 28.6624C40.7975 28.6289 40.233 28.6289 39.6699 28.6624C39.5299 28.6699 39.3092 28.807 39.2772 28.9254C38.2073 32.8154 35.6533 35.6348 32.6504 38.1292C30.2401 40.1287 27.5461 41.6539 24.6446 42.8251C24.4371 42.913 24.2138 42.9576 23.9884 42.956C23.7631 42.9543 23.5404 42.9066 23.3342 42.8157C21.348 42.0207 19.4477 41.026 17.6626 39.847C17.5687 39.7878 17.4813 39.7343 17.332 39.6422C17.316 39.8394 17.2954 39.9841 17.2954 40.1296C17.2954 41.2388 17.3 42.348 17.2888 43.4571C17.2888 43.7454 17.3451 43.9267 17.6307 44.0845C18.0384 44.3096 18.3583 44.6655 18.5388 45.0947C18.7192 45.524 18.7498 46.0015 18.6254 46.4503C18.5007 46.8961 18.2337 47.2889 17.8651 47.569C17.4964 47.8491 17.0463 48.0011 16.5833 48.0018C16.127 47.9962 15.6844 47.8442 15.3208 47.5683C14.9573 47.2924 14.6919 46.9071 14.5638 46.469C14.435 46.0215 14.4605 45.5437 14.6362 45.1124C14.8118 44.6811 15.1274 44.3213 15.5323 44.0911C15.799 43.9389 15.9014 43.784 15.8977 43.4768C15.8814 41.9742 15.8814 40.474 15.8977 38.9763C15.9036 38.8469 15.8779 38.718 15.8229 38.6007C15.768 38.4834 15.6853 38.3812 15.582 38.303C14.6797 37.5103 13.7908 36.7011 12.9153 35.8752C12.4983 35.4826 12.4729 35.0938 12.7829 34.7726C13.0929 34.4514 13.5231 34.4909 13.9241 34.906C16.6707 37.7395 19.8907 39.8648 23.5305 41.3722C23.6833 41.4412 23.8493 41.4759 24.0169 41.474C24.1846 41.472 24.3497 41.4334 24.5008 41.3609C28.33 39.7921 31.7716 37.4083 34.5863 34.3754C37.2511 31.5109 38.4844 28.1111 38.4863 24.2323C38.4863 23.1542 38.4779 22.0722 38.4976 20.9988C38.5051 20.5611 38.8207 20.27 39.2021 20.2775C39.5665 20.2841 39.8436 20.5639 39.884 20.9762C39.8981 21.1162 39.884 21.258 39.8944 21.3979C39.9 21.5172 39.916 21.6383 39.931 21.8027ZM46.5907 22.4855C46.5882 22.3923 46.5668 22.3006 46.528 22.2158C46.4891 22.1311 46.4336 22.055 46.3646 21.9923C46.2957 21.9295 46.2148 21.8813 46.1268 21.8505C46.0388 21.8197 45.9455 21.8069 45.8524 21.813C45.6726 21.8218 45.5032 21.9004 45.3804 22.0321C45.2576 22.1639 45.191 22.3383 45.1949 22.5183C45.1976 22.6115 45.2191 22.7031 45.258 22.7878C45.2969 22.8725 45.3524 22.9485 45.4213 23.0112C45.4902 23.074 45.5711 23.1222 45.659 23.1531C45.747 23.1839 45.8402 23.1968 45.9332 23.1908C46.1129 23.1813 46.2818 23.1025 46.4045 22.9709C46.5271 22.8394 46.5939 22.6653 46.5907 22.4855ZM16.6012 45.1946C16.4209 45.1933 16.2473 45.2623 16.1171 45.387C15.987 45.5117 15.9106 45.6822 15.9042 45.8623C15.8995 45.9555 15.9137 46.0487 15.9457 46.1363C15.9778 46.2239 16.0271 46.3042 16.0908 46.3723C16.1545 46.4405 16.2313 46.4952 16.3165 46.5331C16.4018 46.571 16.4938 46.5914 16.5871 46.593C16.7675 46.5936 16.941 46.5241 17.0711 46.3992C17.2011 46.2742 17.2775 46.1036 17.2841 45.9234C17.2886 45.8303 17.2744 45.7373 17.2423 45.6499C17.2102 45.5624 17.1608 45.4823 17.0971 45.4143C17.0334 45.3463 16.9566 45.2918 16.8715 45.2541C16.7863 45.2163 16.6944 45.1961 16.6012 45.1946ZM44.4153 27.942C44.4119 27.762 44.3399 27.5901 44.214 27.4613C44.0882 27.3325 43.918 27.2566 43.738 27.2489C43.645 27.2435 43.5519 27.2573 43.4644 27.2896C43.377 27.3218 43.2972 27.3718 43.23 27.4363C43.1627 27.5009 43.1096 27.5786 43.0739 27.6647C43.0381 27.7507 43.0206 27.8432 43.0223 27.9364C43.0195 28.0257 43.0346 28.1146 43.0667 28.198C43.0987 28.2814 43.1471 28.3575 43.2089 28.422C43.2708 28.4864 43.3448 28.5379 43.4268 28.5734C43.5088 28.6089 43.5971 28.6276 43.6864 28.6286C43.7794 28.6317 43.8721 28.6164 43.9592 28.5835C44.0463 28.5507 44.126 28.5009 44.1938 28.4371C44.2616 28.3732 44.316 28.2966 44.354 28.2117C44.392 28.1267 44.4129 28.0351 44.4153 27.942Z" fill="url(#paint2_linear_199_16855)"/>
<path d="M20.507 21.0676C20.507 20.6215 20.4788 20.1538 20.5117 19.6908C20.6272 18.0885 21.8587 16.7427 23.4001 16.506C25.0552 16.2515 26.6435 17.0902 27.2231 18.621C27.4326 19.1733 27.4344 19.8063 27.5124 20.4055C27.5286 20.6381 27.5301 20.8714 27.5171 21.1042C27.7585 21.138 27.9445 21.153 28.1258 21.1906C28.8011 21.3315 29.3563 21.9213 29.3676 22.6501C29.3967 24.6167 29.4023 26.5852 29.3676 28.5518C29.3516 29.3745 28.7204 29.9606 27.8844 30.0273C27.2785 30.0723 26.6633 30.0526 26.0583 30.0535C24.2311 30.0535 22.4041 30.0535 20.5774 30.0535C19.2173 30.0535 18.6143 29.4403 18.6133 28.071C18.6133 26.5251 18.6133 24.9792 18.6133 23.4333C18.6096 21.787 18.8641 21.4592 20.507 21.0676ZM23.9937 28.6467C25.1491 28.6467 26.3054 28.6373 27.4617 28.6523C27.8327 28.6523 27.9943 28.5462 27.9915 28.147C27.9758 26.444 27.9758 24.7413 27.9915 23.0389C27.9915 22.6754 27.8693 22.5458 27.5011 22.5477C25.1735 22.559 22.8459 22.559 20.5183 22.5477C20.12 22.5477 20.0101 22.6961 20.0129 23.0718C20.0267 24.7585 20.0267 26.4456 20.0129 28.1329C20.0129 28.5171 20.1407 28.6598 20.5276 28.6542C21.6811 28.6363 22.8374 28.6467 23.9937 28.6467ZM26.0875 21.1183C26.0875 20.6421 26.1203 20.1913 26.0809 19.7462C26.0391 19.2597 25.8251 18.8042 25.4772 18.4615C25.1293 18.1189 24.6706 17.9117 24.1835 17.8772C23.1681 17.7946 22.2109 18.4088 21.9902 19.3874C21.8662 19.9368 21.9028 20.5219 21.8652 21.1183H26.0875Z" fill="url(#paint3_linear_199_16855)"/>
<path d="M24.019 22.7872C24.4743 22.7929 24.9156 22.9449 25.2778 23.2207C25.6399 23.4966 25.9037 23.8816 26.0301 24.3189C26.1599 24.7648 26.1356 25.2414 25.9613 25.6718C25.7869 26.1022 25.4727 26.4613 25.0692 26.6913C24.7714 26.8566 24.6643 27.0378 24.7038 27.3487C24.7057 27.38 24.7057 27.4113 24.7038 27.4426C24.6953 28.0775 24.4586 28.4043 24.0049 28.409C23.5512 28.4137 23.2798 28.0794 23.3061 27.4539C23.3221 27.0688 23.2122 26.85 22.8637 26.6453C22.0512 26.1691 21.7111 25.1755 21.9826 24.287C22.1147 23.8508 22.3845 23.469 22.7515 23.1987C23.1185 22.9284 23.5632 22.784 24.019 22.7872ZM24.0078 24.1959C23.8274 24.1948 23.6537 24.2641 23.5236 24.3889C23.3935 24.5138 23.3171 24.6844 23.3108 24.8646C23.3061 24.9577 23.3202 25.0508 23.3522 25.1383C23.3842 25.2259 23.4335 25.3061 23.4971 25.3743C23.5607 25.4424 23.6373 25.4971 23.7225 25.5351C23.8076 25.573 23.8995 25.5935 23.9927 25.5953C24.1732 25.5959 24.3468 25.5264 24.477 25.4015C24.6072 25.2766 24.6838 25.106 24.6906 24.9257C24.6952 24.8322 24.6809 24.7389 24.6485 24.6511C24.6162 24.5634 24.5665 24.483 24.5024 24.4149C24.4383 24.3468 24.3611 24.2923 24.2755 24.2547C24.1899 24.2171 24.0975 24.1971 24.004 24.1959H24.0078Z" fill="url(#paint4_linear_199_16855)"/>
</g>
<defs>
<linearGradient id="paint0_linear_199_16855" x1="19.9463" y1="-0.00195313" x2="19.9463" y2="33.8511" gradientUnits="userSpaceOnUse">
<stop stop-color="#FACD81"/>
<stop offset="1" stop-color="#719B9F"/>
</linearGradient>
<linearGradient id="paint1_linear_199_16855" x1="23.9944" y1="7.84375" x2="23.9944" y2="39.9149" gradientUnits="userSpaceOnUse">
<stop stop-color="#FACD81"/>
<stop offset="1" stop-color="#719B9F"/>
</linearGradient>
<linearGradient id="paint2_linear_199_16855" x1="30.2875" y1="20.2773" x2="30.2875" y2="48.0018" gradientUnits="userSpaceOnUse">
<stop stop-color="#FACD81"/>
<stop offset="1" stop-color="#719B9F"/>
</linearGradient>
<linearGradient id="paint3_linear_199_16855" x1="24.0024" y1="16.4609" x2="24.0024" y2="30.0571" gradientUnits="userSpaceOnUse">
<stop stop-color="#FACD81"/>
<stop offset="1" stop-color="#719B9F"/>
</linearGradient>
<linearGradient id="paint4_linear_199_16855" x1="24.0015" y1="22.7871" x2="24.0015" y2="28.4091" gradientUnits="userSpaceOnUse">
<stop stop-color="#FACD81"/>
<stop offset="1" stop-color="#719B9F"/>
</linearGradient>
<clipPath id="clip0_199_16855">
<rect width="48" height="48" fill="white"/>
</clipPath>
</defs>
</svg>
