<svg width="33" height="34" viewBox="0 0 33 34" fill="none" xmlns="http://www.w3.org/2000/svg">
<g clip-path="url(#clip0_1_3570)">
<path d="M16.3022 34L8.77066 29.6836C8.1428 29.3236 7.51629 28.9604 6.88374 28.6091C6.57988 28.4404 6.43633 28.2067 6.43834 27.8574C6.44639 26.3416 6.44639 24.8257 6.43834 23.3099C6.43834 22.946 6.58457 22.7083 6.89917 22.5336C7.61892 22.1352 8.32995 21.7195 9.08258 21.2891C8.35276 20.8708 7.66722 20.4598 6.96357 20.0832C6.58189 19.8787 6.43096 19.6038 6.43565 19.1761C6.45309 17.7045 6.44907 16.233 6.43565 14.7614C6.43565 14.3862 6.57451 14.1365 6.9052 13.9552C7.62362 13.5568 8.33264 13.1438 9.08258 12.7154C8.34874 12.2951 7.66051 11.886 6.95685 11.5049C6.59128 11.3056 6.43096 11.0453 6.43565 10.6276C6.45175 9.15607 6.44907 7.68451 6.43565 6.21295C6.43565 5.82779 6.56981 5.57212 6.91057 5.37755C10.0293 3.60672 13.1442 1.83035 16.2553 0.0484505C16.2726 0.0351536 16.288 0.019492 16.3009 0.00195312H16.7034L24.4382 4.43457C24.9889 4.75 25.5363 5.0721 26.0937 5.37557C26.4224 5.55487 26.5713 5.80189 26.5686 6.17841C26.557 7.67167 26.557 9.16513 26.5686 10.6588C26.5686 11.05 26.4177 11.3016 26.0796 11.4889C25.3686 11.8807 24.671 12.2918 23.9291 12.7148C24.667 13.1365 25.3612 13.5502 26.0722 13.9373C26.4278 14.1312 26.5727 14.3942 26.5686 14.7953C26.5552 16.2775 26.5552 17.7605 26.5686 19.2445C26.5686 19.6203 26.4284 19.8714 26.0991 20.0527C25.382 20.4511 24.673 20.8641 23.9264 21.2905C24.6576 21.7095 25.3465 22.1179 26.0501 22.5004C26.4143 22.6996 26.5727 22.9653 26.568 23.3803C26.5519 24.8512 26.5545 26.3227 26.568 27.7943C26.568 28.1801 26.4338 28.4371 26.093 28.6304C22.9743 30.4012 19.8592 32.1769 16.7477 33.9575C16.7304 33.9706 16.7152 33.9863 16.7027 34.004L16.3022 34ZM8.48222 6.02102C8.57546 6.08743 8.63382 6.13325 8.69889 6.17044C11.2318 7.61854 13.7642 9.06796 16.2962 10.5187C16.4773 10.6223 16.592 10.5851 16.747 10.4962C19.2405 9.06753 21.7352 7.64157 24.2309 6.21827C24.3235 6.16514 24.4107 6.10205 24.5167 6.03299C24.4543 5.98717 24.4221 5.95729 24.3825 5.93604C21.8206 4.47023 19.2595 3.00332 16.6994 1.5353C16.5142 1.42838 16.3941 1.49344 16.2446 1.5791C13.8481 2.9515 11.45 4.32215 9.05038 5.691C8.87195 5.79393 8.69285 5.89884 8.48222 6.02102ZM8.47619 14.5947C8.5701 14.6611 8.61974 14.699 8.67742 14.7275C11.2184 16.1805 13.7589 17.6351 16.2989 19.0911C16.4787 19.1947 16.5954 19.1575 16.751 19.0665C19.0205 17.7654 21.2916 16.4674 23.5642 15.1725C23.8781 14.9932 24.19 14.8092 24.5482 14.6014C23.9378 14.2507 23.3757 13.9373 22.8263 13.6053C22.6479 13.497 22.5211 13.509 22.3454 13.6106C20.5906 14.622 18.8251 15.6154 17.0757 16.6361C16.6678 16.8738 16.3378 16.8672 15.9306 16.6294C14.192 15.6127 12.4378 14.6213 10.6858 13.6272C10.5825 13.5688 10.4141 13.5017 10.3336 13.5449C9.71714 13.8789 9.11679 14.2288 8.47619 14.5947ZM24.5529 23.1811C23.9345 22.8258 23.3723 22.513 22.8223 22.1816C22.6445 22.0747 22.5151 22.0887 22.34 22.1896C20.5959 23.1957 18.8392 24.1818 17.0998 25.1992C16.6853 25.4409 16.3479 25.4535 15.9259 25.2065C14.1886 24.1878 12.4338 23.1977 10.6824 22.2016C10.5851 22.1465 10.4302 22.0688 10.3591 22.1086C9.73525 22.4406 9.12484 22.7992 8.47619 23.1711C8.56339 23.2315 8.6043 23.2647 8.64992 23.2906C11.1989 24.7516 13.7479 26.2114 16.2969 27.6701C16.4767 27.7737 16.5967 27.7319 16.7517 27.6429C17.9859 26.9346 19.2222 26.2262 20.4604 25.5179L24.5529 23.1811ZM7.78326 7.18381C7.78326 8.20116 7.79534 9.15143 7.77521 10.1017C7.76985 10.3633 7.86443 10.4915 8.08244 10.615C10.5702 12.0273 13.055 13.4439 15.5369 14.865C15.6201 14.9122 15.7079 14.9527 15.8327 15.0164C15.8327 14.005 15.8246 13.0355 15.8387 12.066C15.8387 11.8475 15.7683 11.7339 15.5812 11.627C13.1216 10.2312 10.6659 8.83046 8.21391 7.42486L7.78326 7.18381ZM17.1743 15.0018C17.2182 14.9924 17.2612 14.9796 17.3031 14.9633C19.8851 13.49 22.4648 12.0135 25.0419 10.534C25.1372 10.4789 25.2143 10.3096 25.2157 10.1927C25.2297 9.263 25.2244 8.33331 25.2224 7.40362C25.2186 7.3456 25.2107 7.2879 25.1989 7.23096C25.1573 7.23561 25.1445 7.23094 25.1358 7.2389C22.535 8.72242 19.9357 10.2082 17.3379 11.6961C17.2927 11.729 17.2552 11.7713 17.2282 11.8201C17.2012 11.8688 17.1853 11.9228 17.1816 11.9783C17.1702 12.9751 17.1743 13.9705 17.1743 15.0018ZM7.78326 15.7748C7.78326 16.7987 7.79064 17.7603 7.7779 18.7212C7.7779 18.9384 7.84498 19.0533 8.03615 19.1595C10.5324 20.5762 13.0252 21.999 15.5147 23.4281C15.6066 23.4805 15.7032 23.5244 15.8327 23.5895C15.8327 22.5841 15.8253 21.6238 15.8381 20.6676C15.8381 20.4411 15.771 20.315 15.5697 20.2027C13.0829 18.7909 10.5994 17.3743 8.11933 15.9527C8.02743 15.893 7.9295 15.8485 7.78326 15.7748ZM17.1743 23.5443C17.2273 23.5543 17.2413 23.5616 17.2481 23.5576C19.8579 22.0705 22.4668 20.5819 25.0748 19.0918C25.111 19.071 25.1423 19.0428 25.1667 19.0092C25.1911 18.9755 25.208 18.9371 25.2163 18.8965C25.2257 17.8726 25.2224 16.8486 25.2224 15.7655C24.9379 15.9255 24.6985 16.0577 24.4617 16.1931C22.1139 17.5341 19.7673 18.8771 17.4218 20.222C17.3165 20.2831 17.187 20.4212 17.185 20.5228C17.1676 21.5289 17.1743 22.5349 17.1743 23.5456V23.5443ZM7.78326 24.3412C7.78326 25.3645 7.78997 26.3261 7.7779 27.287C7.7779 27.5001 7.83693 27.619 8.03078 27.7272C10.5467 29.1541 13.0594 30.5876 15.5691 32.0277C15.6415 32.0689 15.7213 32.0988 15.8327 32.1506C15.8327 31.1638 15.8226 30.2155 15.8394 29.2679C15.8441 29.0135 15.7656 28.8774 15.5416 28.7506C13.0637 27.3454 10.5898 25.9336 8.12 24.5152C8.02676 24.466 7.92882 24.4195 7.78326 24.3452V24.3412ZM25.2237 24.3531C25.1698 24.3726 25.117 24.3948 25.0654 24.4195C22.4949 25.8867 19.9263 27.3567 17.3594 28.8296C17.3073 28.8699 17.2645 28.9208 17.234 28.9789C17.2034 29.037 17.1858 29.1009 17.1823 29.1663C17.1682 30.0959 17.1743 31.0256 17.1756 31.952C17.1792 32.0114 17.1871 32.0704 17.1991 32.1286C17.2305 32.1269 17.2616 32.1214 17.2917 32.112C19.8813 30.6347 22.4697 29.1543 25.0567 27.6708C25.1023 27.638 25.1403 27.5958 25.1678 27.5471C25.1954 27.4983 25.2119 27.4442 25.2163 27.3886C25.2284 26.3991 25.2237 25.4044 25.2237 24.3571V24.3531Z" fill="url(#paint0_linear_1_3570)"/>
<path d="M2.08157 34C1.71867 33.8047 1.58988 33.5072 1.60464 33.0982C1.6308 32.3916 1.60934 31.6837 1.61336 30.9732C1.61336 30.4937 1.88168 30.2009 2.29957 30.2102C2.70205 30.2188 2.95024 30.5057 2.95225 30.9732C2.95627 31.6804 2.93548 32.3889 2.9603 33.0982C2.97505 33.5072 2.84559 33.8041 2.48404 34H2.08157Z" fill="url(#paint1_linear_1_3570)"/>
<path d="M30.0531 12.086C30.0531 11.2127 30.0443 10.3388 30.0584 9.4656C30.0624 9.21857 30.0081 9.08109 29.7579 8.9682C29.2538 8.7431 28.8518 8.34104 28.6297 7.83965C28.4076 7.33826 28.381 6.77315 28.5552 6.25352C28.9087 5.17243 29.9793 4.53427 31.1303 4.71888C32.2184 4.89287 33.0468 5.89228 32.9978 7.01521C32.9576 7.93494 32.4934 8.60895 31.6509 8.99145C31.4355 9.09039 31.3899 9.20063 31.3906 9.41048C31.3978 11.2256 31.3978 13.0389 31.3906 14.8505C31.3906 15.4202 30.8929 15.7629 30.4267 15.5245C30.1497 15.383 30.0477 15.1427 30.049 14.8392C30.0564 13.9208 30.0531 13.0031 30.0531 12.086ZM30.7131 6.01912C30.4658 6.02088 30.2292 6.11978 30.0555 6.29412C29.8818 6.46845 29.7852 6.70394 29.7868 6.94881C29.7883 7.07028 29.8141 7.19024 29.8627 7.30182C29.9112 7.41339 29.9815 7.51436 30.0696 7.59896C30.1577 7.68356 30.2617 7.75011 30.3759 7.79477C30.49 7.83944 30.6119 7.86134 30.7346 7.85924C30.8571 7.85854 30.9783 7.83392 31.0912 7.7868C31.2041 7.73968 31.3065 7.67098 31.3925 7.58463C31.4786 7.49827 31.5466 7.39594 31.5926 7.28353C31.6387 7.17112 31.6619 7.05084 31.6609 6.92955C31.6594 6.80802 31.6337 6.68796 31.5852 6.57631C31.5367 6.46466 31.4664 6.36361 31.3783 6.27894C31.2903 6.19428 31.1861 6.12767 31.072 6.08297C30.9578 6.03826 30.8359 6.01633 30.7131 6.01844V6.01912Z" fill="url(#paint2_linear_1_3570)"/>
<path d="M31.3948 17.9297C31.3902 18.1072 31.3151 18.2758 31.1858 18.3989C31.0564 18.522 30.8833 18.5896 30.7039 18.5871C30.5304 18.5773 30.3672 18.5026 30.2473 18.378C30.1275 18.2535 30.06 18.0884 30.0586 17.9164C30.0602 17.8285 30.0795 17.7418 30.1152 17.6613C30.151 17.5809 30.2025 17.5082 30.2669 17.4476C30.3312 17.387 30.4071 17.3396 30.49 17.3083C30.573 17.2769 30.6614 17.2622 30.7502 17.265C30.9236 17.2717 31.0877 17.3447 31.2079 17.4686C31.3281 17.5926 31.3951 17.7578 31.3948 17.9297Z" fill="url(#paint3_linear_1_3570)"/>
<path d="M2.22032 17.6316C3.38749 17.6575 4.28232 18.3827 4.50502 19.4047C4.62135 19.9049 4.55868 20.4296 4.32771 20.8893C4.09674 21.3489 3.71179 21.7149 3.23858 21.9248C3.00179 22.0304 2.94611 22.1532 2.94745 22.3929C2.95886 24.0737 2.95148 25.7551 2.95551 27.4358C2.95551 27.7068 2.90654 27.9777 2.64896 28.0859C2.44058 28.1713 2.20975 28.1869 1.99159 28.1304C1.71455 28.0468 1.61058 27.7838 1.61125 27.4916C1.61125 26.5619 1.61125 25.6322 1.61125 24.7026C1.61125 23.9176 1.60185 23.132 1.61728 22.3471C1.62131 22.1253 1.5502 22.0244 1.34897 21.9321C0.916145 21.7439 0.554092 21.4256 0.314047 21.0225C0.0740019 20.6193 -0.0318696 20.1516 0.0114234 19.6855C0.054049 19.2195 0.242251 18.7783 0.549878 18.423C0.857506 18.0678 1.26928 17.8162 1.72796 17.7033C1.89034 17.6689 2.0548 17.6449 2.22032 17.6316ZM2.29344 18.9657C2.04573 18.9622 1.80673 19.0561 1.62899 19.227C1.45125 19.3978 1.34933 19.6316 1.34562 19.8768C1.34473 19.9981 1.368 20.1183 1.41408 20.2307C1.46016 20.3431 1.52817 20.4453 1.61419 20.5317C1.70022 20.618 1.80259 20.6867 1.91546 20.7339C2.02832 20.781 2.14947 20.8057 2.27197 20.8065C2.39464 20.8085 2.51651 20.7865 2.63059 20.7419C2.74467 20.6972 2.84871 20.6306 2.93677 20.546C3.02482 20.4615 3.09514 20.3605 3.14371 20.249C3.19228 20.1374 3.21813 20.0175 3.21979 19.8961C3.22076 19.7747 3.19757 19.6544 3.15152 19.542C3.10548 19.4295 3.03749 19.3272 2.95145 19.2407C2.86541 19.1543 2.76301 19.0856 2.65011 19.0384C2.5372 18.9912 2.416 18.9665 2.29344 18.9657Z" fill="url(#paint4_linear_1_3570)"/>
</g>
<defs>
<linearGradient id="paint0_linear_1_3570" x1="16.5021" y1="0.00195312" x2="16.5021" y2="34.004" gradientUnits="userSpaceOnUse">
<stop stop-color="#FFCF7E"/>
<stop offset="1" stop-color="#6FA1A9"/>
</linearGradient>
<linearGradient id="paint1_linear_1_3570" x1="2.28247" y1="30.21" x2="2.28247" y2="34" gradientUnits="userSpaceOnUse">
<stop stop-color="#FFCF7E"/>
<stop offset="1" stop-color="#6FA1A9"/>
</linearGradient>
<linearGradient id="paint2_linear_1_3570" x1="30.7206" y1="4.68726" x2="30.7206" y2="15.6012" gradientUnits="userSpaceOnUse">
<stop stop-color="#FFCF7E"/>
<stop offset="1" stop-color="#6FA1A9"/>
</linearGradient>
<linearGradient id="paint3_linear_1_3570" x1="30.7267" y1="17.2646" x2="30.7267" y2="18.5872" gradientUnits="userSpaceOnUse">
<stop stop-color="#FFCF7E"/>
<stop offset="1" stop-color="#6FA1A9"/>
</linearGradient>
<linearGradient id="paint4_linear_1_3570" x1="2.28202" y1="17.6316" x2="2.28202" y2="28.1637" gradientUnits="userSpaceOnUse">
<stop stop-color="#FFCF7E"/>
<stop offset="1" stop-color="#6FA1A9"/>
</linearGradient>
<clipPath id="clip0_1_3570">
<rect width="33" height="34" fill="white"/>
</clipPath>
</defs>
</svg>
