<svg width="31" height="30" viewBox="0 0 31 30" fill="none" xmlns="http://www.w3.org/2000/svg">
<g clip-path="url(#clip0_199_15369)">
<path d="M6.78951 16.9721C5.70502 15.5266 5.91284 14.4124 7.42707 13.4201C7.13641 12.8154 7.00826 12.1794 7.28329 11.5262C7.40478 11.2286 7.59336 10.963 7.83433 10.7502C8.07529 10.5375 8.36213 10.3832 8.6725 10.2995C8.69438 8.72746 8.97098 8.26804 10.243 7.68985C10.243 7.59297 10.2305 7.48202 10.2227 7.37732C10.1886 7.07473 10.2224 6.76834 10.3216 6.48046C10.4209 6.19257 10.583 5.93043 10.7963 5.7131C11.0096 5.49578 11.2686 5.32873 11.5546 5.22411C11.8406 5.11949 12.1463 5.07994 12.4495 5.10834C12.7354 5.12396 13.0261 4.99114 13.3183 4.95207C13.7559 4.90363 14.209 4.7958 14.6341 4.86143C16.1967 5.08802 17.7406 5.37242 19.2924 5.64276C19.758 5.72338 20.1809 5.96378 20.4883 6.32259C20.7958 6.68139 20.9686 7.13615 20.9769 7.6086C20.9769 7.8008 20.9613 7.99457 20.9519 8.21022C22.1349 8.65245 22.688 9.48066 22.474 10.7745C23.6616 11.2137 24.2116 12.0434 24.0366 13.3108C25.7165 14.003 26.09 15.6251 24.9195 16.9721C25.5196 17.5565 26.1181 18.1581 26.7431 18.7301C26.8322 18.8098 27.0557 18.7863 27.2119 18.7441C27.5664 18.6282 27.9466 18.6155 28.308 18.7077C28.6694 18.7998 28.9971 18.993 29.2528 19.2645C29.6013 19.6052 29.9529 19.9427 30.2841 20.3021C31.003 21.0834 31.0655 22.1976 30.3201 22.9586C28.1824 25.1464 26.0201 27.3127 23.8335 29.4578C23.1256 30.1531 22.0286 30.1203 21.2769 29.4578C20.8388 29.0672 20.4254 28.6497 20.0393 28.2076C19.5846 27.6919 19.4142 27.0684 19.6518 26.4106C19.7815 26.0496 19.6862 25.8511 19.4315 25.6105C18.822 25.0354 18.2548 24.4166 17.6438 23.8431C17.4875 23.704 17.25 23.6571 17.0421 23.5962C16.9343 23.5634 16.8015 23.6228 16.6937 23.5962C14.5481 22.9571 13.4121 24.44 12.201 25.7558C12.1088 25.8558 12.1088 26.109 12.1588 26.2621C12.4292 27.0856 12.2713 27.8013 11.6728 28.4201C11.3478 28.7561 11.0212 29.0936 10.6805 29.4124C9.83514 30.1938 8.73502 30.2063 7.89899 29.4124C7.47239 29.0124 7.06765 28.5905 6.65979 28.1717C6.39258 27.8966 6.32071 27.581 6.61292 27.2935C6.90514 27.0059 7.21455 27.07 7.48958 27.3419C7.87868 27.7263 8.25371 28.1232 8.65062 28.4983C9.10223 28.9249 9.47103 28.9202 9.92576 28.4983C10.2383 28.2045 10.5415 27.8998 10.8321 27.5857C11.1947 27.1966 11.2165 26.8043 10.8212 26.4043C8.7897 24.3603 6.75825 22.307 4.71428 20.2708C4.16579 19.7255 3.8392 19.7552 3.27351 20.3068C2.99536 20.5803 2.71095 20.849 2.44999 21.1381C2.11089 21.5132 2.10776 21.9195 2.44999 22.2898C2.82034 22.6899 3.21569 23.0711 3.60167 23.454C3.87982 23.7306 4.03297 24.0478 3.72356 24.3744C3.39384 24.726 3.06255 24.5885 2.76408 24.2853C2.36873 23.8822 1.95306 23.4962 1.57021 23.0805C0.815442 22.2617 0.82325 21.1553 1.58427 20.3349C1.91555 19.9786 2.2656 19.6395 2.61408 19.2973C3.14382 18.7785 3.77512 18.6441 4.49864 18.7519C4.72441 18.7854 4.95431 18.7293 5.13932 18.5957C5.69251 18.0816 6.21913 17.5315 6.78951 16.9721ZM10.8134 15.986C10.5008 17.6487 9.47572 18.2894 7.924 17.8612C7.85609 17.8395 7.78432 17.8324 7.71346 17.8405C7.64261 17.8486 7.57429 17.8716 7.51302 17.9081C6.91921 18.4613 6.34727 19.0379 5.84565 19.5317L11.2603 25.0151C11.851 24.415 12.4854 23.8087 13.0745 23.1602C13.3179 22.8798 13.6237 22.6604 13.9673 22.5198C14.3109 22.3792 14.6828 22.3213 15.0529 22.3508C15.3842 22.3664 15.717 22.3601 16.0452 22.3898C17.0499 22.4805 17.9829 22.4242 18.7017 21.5335C18.8158 21.3897 19.3064 21.3772 19.4986 21.5069C19.8299 21.721 19.7455 22.0835 19.4861 22.3664C19.2267 22.6492 18.9767 22.8992 18.7642 23.1227L20.5409 24.9854L25.8102 19.6942L24.0132 17.8456C23.9737 17.8715 23.9366 17.9008 23.9022 17.9331C23.6022 18.2456 23.26 18.5332 22.8615 18.1394C22.463 17.7456 22.763 17.4127 23.0756 17.1002C23.4631 16.7158 23.8569 16.3376 24.2179 15.9266C24.2901 15.8522 24.3468 15.7641 24.3846 15.6675C24.4225 15.5709 24.4406 15.4677 24.4382 15.364C24.4357 15.2603 24.4126 15.1581 24.3702 15.0634C24.3278 14.9687 24.267 14.8834 24.1913 14.8125C23.8522 14.4515 23.4397 14.4202 23.0349 14.7203C22.8668 14.8539 22.71 15.0013 22.5661 15.1609C22.2708 15.4625 21.9411 15.611 21.6067 15.261C21.2941 14.9375 21.4379 14.6203 21.7176 14.3405C22.0302 14.028 22.3661 13.7155 22.6552 13.3764C22.9787 12.9998 22.9818 12.5779 22.6302 12.2185C22.2786 11.859 21.8676 11.8512 21.4723 12.1606C21.2921 12.3098 21.1224 12.4711 20.9644 12.6435C20.6769 12.9404 20.3534 13.1217 20.0065 12.7794C19.6596 12.4372 19.8221 12.1106 20.1206 11.8168C20.4534 11.4871 20.7972 11.1668 21.1035 10.8152C21.1815 10.7394 21.2435 10.6488 21.2858 10.5487C21.3281 10.4486 21.3499 10.341 21.3499 10.2323C21.3499 10.1236 21.3281 10.016 21.2858 9.91589C21.2435 9.81578 21.1815 9.72517 21.1035 9.64943C20.791 9.29158 20.3019 9.27908 19.9003 9.61037C19.723 9.76334 19.555 9.92667 19.3971 10.0995C19.1189 10.387 18.8048 10.5198 18.4798 10.212C18.1235 9.87446 18.2829 9.5463 18.5782 9.25252C18.8736 8.95874 19.1939 8.65245 19.4861 8.33992C19.8909 7.90706 19.9034 7.39295 19.5361 7.04135C19.1689 6.68975 18.7048 6.71006 18.286 7.10385C17.8672 7.49765 17.439 7.96801 16.9968 8.37899C16.7515 8.60714 16.703 8.79622 16.8218 9.13532C16.9146 9.38742 16.9558 9.65561 16.9429 9.92395C16.93 10.1923 16.8632 10.4553 16.7466 10.6973C16.6299 10.9393 16.4658 11.1554 16.264 11.3327C16.0621 11.51 15.8267 11.6449 15.5717 11.7293C15.356 11.8012 15.131 11.845 14.9122 11.9028C14.7841 13.1701 14.0184 13.778 12.8698 13.9499C12.6901 15.1734 12.0166 15.8501 10.8134 15.986ZM29.6684 21.7023C29.5981 21.496 29.5887 21.335 29.5122 21.246C29.1106 20.7959 28.6822 20.3706 28.2292 19.9724C27.9026 19.7005 27.5229 19.8052 27.2276 20.1005C25.144 22.1841 23.0641 24.2676 20.9879 26.3512C20.6066 26.7372 20.6456 27.1591 21.016 27.5435C21.3129 27.856 21.6129 28.1607 21.927 28.453C22.3614 28.8577 22.7693 28.8561 23.2037 28.4233C25.2477 26.3876 27.2854 24.3442 29.3168 22.2929C29.4581 22.1114 29.5762 21.913 29.6684 21.7023ZM10.629 8.74934C10.3789 8.97905 10.0273 9.1525 9.96014 9.40253C9.92378 9.56341 9.92199 9.73017 9.95485 9.89179C9.98772 10.0534 10.0545 10.2062 10.1508 10.3401C10.7884 11.0715 11.4962 11.7465 12.1948 12.4185C12.6026 12.8154 13.0855 12.8185 13.4449 12.4747C13.8043 12.1309 13.7996 11.6012 13.3902 11.1808C12.7276 10.498 12.0557 9.82132 11.3587 9.16344C11.1993 9.00093 10.9446 8.92279 10.629 8.74934V8.74934ZM15.9311 9.77757C15.6732 9.53849 15.5201 9.32127 15.306 9.21501C14.1934 8.65246 13.3168 7.86018 12.8276 6.69444C12.6854 6.35378 12.4666 6.2694 12.1494 6.30065C11.4884 6.36628 11.1196 7.15386 11.5791 7.65391C12.4729 8.62745 13.4136 9.5588 14.3919 10.4526C14.5747 10.6198 15.031 10.6245 15.2935 10.5245C15.5279 10.4339 15.6717 10.0979 15.9311 9.77757V9.77757ZM11.7119 14.0093C11.6197 13.7545 11.6072 13.5702 11.5103 13.4701C10.8852 12.8263 10.2805 12.1716 9.61166 11.584C9.29913 11.3043 8.86471 11.3824 8.55843 11.7028C8.25215 12.0231 8.18652 12.4669 8.49905 12.8123C9.05068 13.4394 9.64486 14.0279 10.2774 14.5734C10.4727 14.7375 10.9212 14.7422 11.1821 14.639C11.4212 14.5468 11.5603 14.2062 11.7166 14.0093H11.7119ZM8.14901 14.5265C7.48645 14.5265 7.03953 15.2641 7.41457 15.8141C7.6567 16.1672 7.96373 16.4711 8.31934 16.7095C8.87565 17.0783 9.60385 16.622 9.59135 15.9579C9.5851 15.4313 8.6772 14.5296 8.15371 14.5265H8.14901ZM13.8277 5.91623C14.1574 7.01009 14.8325 7.57265 15.5185 7.98676L17.0281 6.50692L13.8277 5.91623Z" fill="url(#paint0_linear_199_15369)"/>
<path d="M9.0677 2.93938C8.97394 3.06908 8.88642 3.31286 8.72859 3.37224C8.54576 3.44412 8.22385 3.43787 8.10353 3.32067C7.33938 2.60654 6.59401 1.86896 5.89081 1.09544C5.76736 0.959487 5.78298 0.529758 5.90643 0.385993C6.02988 0.242228 6.48461 0.157843 6.60025 0.262541C7.41439 1.00637 8.18167 1.80177 8.95675 2.58935C9.01145 2.65029 9.01144 2.76749 9.0677 2.93938Z" fill="url(#paint1_linear_199_15369)"/>
<path d="M25.4365 0.10791C25.5928 0.223547 25.8162 0.315744 25.8897 0.47826C25.9631 0.640777 25.9616 0.947059 25.8553 1.06426C25.1287 1.84559 24.3848 2.60973 23.5957 3.32543C23.4629 3.44576 23.0159 3.38794 22.8487 3.25042C22.7206 3.14416 22.6925 2.67849 22.8143 2.54722C23.516 1.76589 24.2692 1.04238 25.0146 0.307931C25.145 0.221503 25.2871 0.154149 25.4365 0.10791Z" fill="url(#paint2_linear_199_15369)"/>
<path d="M15.2701 1.89699C15.2701 1.48914 15.2701 1.08128 15.2701 0.673429C15.2701 0.296827 15.4373 0.0124226 15.8389 -7.86798e-05C16.2405 -0.01258 16.4343 0.262447 16.4405 0.637486C16.4562 1.47195 16.4546 2.30797 16.4405 3.13775C16.4405 3.51904 16.2452 3.78469 15.842 3.77844C15.4389 3.77219 15.2717 3.4956 15.2685 3.11587C15.2623 2.7127 15.2701 2.30485 15.2701 1.89699Z" fill="url(#paint3_linear_199_15369)"/>
<path d="M4.88792 26.4544C4.74572 26.2232 4.46131 25.9653 4.49725 25.7669C4.54462 25.6375 4.62341 25.5219 4.72652 25.4306C4.82963 25.3392 4.95382 25.2749 5.08794 25.2434C5.24421 25.2246 5.57705 25.5872 5.58486 25.7872C5.59267 25.9872 5.31452 26.2372 5.15982 26.4623L4.88792 26.4544Z" fill="url(#paint4_linear_199_15369)"/>
<path d="M21.6268 20.207C21.394 20.3445 21.1487 20.6054 20.9314 20.5836C20.7142 20.5617 20.3892 20.2038 20.4189 20.057C20.4658 19.8288 20.758 19.5241 20.9783 19.496C21.1987 19.4678 21.4159 19.7725 21.6378 19.9288L21.6268 20.207Z" fill="url(#paint5_linear_199_15369)"/>
</g>
<defs>
<linearGradient id="paint0_linear_199_15369" x1="15.9303" y1="4.84082" x2="15.9303" y2="30.0031" gradientUnits="userSpaceOnUse">
<stop stop-color="#779692"/>
<stop offset="1" stop-color="#F6C56E"/>
</linearGradient>
<linearGradient id="paint1_linear_199_15369" x1="7.43668" y1="0.21582" x2="7.43668" y2="3.41903" gradientUnits="userSpaceOnUse">
<stop stop-color="#779692"/>
<stop offset="1" stop-color="#F6C56E"/>
</linearGradient>
<linearGradient id="paint2_linear_199_15369" x1="24.3384" y1="0.10791" x2="24.3384" y2="3.39084" gradientUnits="userSpaceOnUse">
<stop stop-color="#779692"/>
<stop offset="1" stop-color="#F6C56E"/>
</linearGradient>
<linearGradient id="paint3_linear_199_15369" x1="15.8589" y1="-0.000488281" x2="15.8589" y2="3.77855" gradientUnits="userSpaceOnUse">
<stop stop-color="#779692"/>
<stop offset="1" stop-color="#F6C56E"/>
</linearGradient>
<linearGradient id="paint4_linear_199_15369" x1="5.03958" y1="25.2427" x2="5.03958" y2="26.4623" gradientUnits="userSpaceOnUse">
<stop stop-color="#779692"/>
<stop offset="1" stop-color="#F6C56E"/>
</linearGradient>
<linearGradient id="paint5_linear_199_15369" x1="21.0274" y1="19.4941" x2="21.0274" y2="20.5849" gradientUnits="userSpaceOnUse">
<stop stop-color="#779692"/>
<stop offset="1" stop-color="#F6C56E"/>
</linearGradient>
<clipPath id="clip0_199_15369">
<rect width="29.839" height="30" fill="white" transform="translate(0.995117)"/>
</clipPath>
</defs>
</svg>
