<svg width="32" height="32" viewBox="0 0 32 32" fill="none" xmlns="http://www.w3.org/2000/svg">
<g clip-path="url(#clip0_305_15964)">
<path d="M32.0002 8.11725C31.7998 8.64727 31.6706 9.21956 31.3856 9.69948C30.681 10.8918 29.585 11.544 28.2 11.598C26.848 11.6512 25.492 11.6262 24.1384 11.6097C23.816 11.6042 23.5089 11.4716 23.2837 11.2409C23.0585 11.0101 22.9335 10.6999 22.9358 10.3775C22.9328 10.2154 22.9619 10.0543 23.0214 9.90342C23.0809 9.75259 23.1696 9.61501 23.2824 9.4986C23.3953 9.38218 23.53 9.28923 23.679 9.22508C23.8279 9.16094 23.988 9.12687 24.1501 9.12483C25.1679 9.10682 26.1919 9.11857 27.212 9.11779H27.6504C27.259 8.56976 26.9302 8.05226 26.5489 7.58175C24.5134 5.07179 21.9236 3.43945 18.7567 2.79122C14.9206 2.00832 11.3647 2.73798 8.17124 5.01855C5.49687 6.92725 3.70874 9.48105 2.91646 12.6831C1.96054 16.5451 2.5618 20.1871 4.78444 23.487C6.99377 26.7666 10.0972 28.7481 14.0226 29.3446C14.9417 29.4848 15.8898 29.4347 16.8246 29.4707C17.0727 29.4801 17.328 29.4488 17.5691 29.4957C17.8634 29.5534 18.1263 29.7173 18.3076 29.9562C18.4889 30.1951 18.5761 30.4924 18.5524 30.7914C18.5292 31.0904 18.3995 31.3711 18.1869 31.5826C17.9743 31.7941 17.6928 31.9222 17.3937 31.9438C17.198 31.9603 17.0023 31.9838 16.8081 32.0033H15.0576C14.9566 31.9845 14.8556 31.9618 14.7538 31.9478C14.1659 31.8695 13.5716 31.8272 12.99 31.7129C9.52251 31.0474 6.57727 29.4143 4.20666 26.8049C1.00619 23.2819 -0.356824 19.1122 0.0784654 14.3851C0.391623 11.0327 1.6513 8.04365 3.90212 5.53213C7.95125 1.02031 13.0181 -0.756855 18.9846 0.293006C22.9687 0.99761 26.1911 3.06367 28.6838 6.25474C28.95 6.5953 29.1951 6.95308 29.4988 7.36958V6.99693C29.4988 5.97916 29.491 4.95435 29.5027 3.93268C29.509 3.39483 29.7666 2.99321 30.2661 2.78104C30.7538 2.57279 31.2212 2.65656 31.597 3.02374C31.7739 3.19754 31.8694 3.4559 32.0017 3.67589L32.0002 8.11725Z" fill="url(#paint0_linear_305_15964)"/>
<path d="M17.2464 11.0033C17.2464 12.6286 17.2425 14.2538 17.2464 15.8791C17.2521 16.0773 17.2166 16.2745 17.142 16.4582C17.0675 16.6419 16.9556 16.8081 16.8134 16.9462C15.2069 18.5511 13.6036 20.1623 11.9932 21.761C11.24 22.5079 10.1001 22.2354 9.83943 21.2568C9.70947 20.7699 9.86526 20.3549 10.2144 20.0042C10.6779 19.5392 11.1419 19.0749 11.6064 18.6114C12.5858 17.6313 13.5637 16.6487 14.5485 15.6748C14.6155 15.6125 14.668 15.5362 14.7024 15.4514C14.7368 15.3666 14.7521 15.2753 14.7474 15.1839C14.7416 12.162 14.7416 9.14025 14.7474 6.1188C14.7474 5.47056 15.0472 5.00239 15.5718 4.81528C16.4032 4.51778 17.237 5.11591 17.244 6.03268C17.2542 7.50139 17.244 8.97088 17.244 10.4396L17.2464 11.0033Z" fill="url(#paint1_linear_305_15964)"/>
<path d="M22.1167 30.7151C21.842 30.7041 21.5779 30.606 21.3626 30.435C21.1473 30.264 20.9919 30.029 20.9189 29.7639C20.8452 29.5061 20.8597 29.2311 20.9603 28.9825C21.0609 28.734 21.2417 28.5262 21.474 28.3923C21.8892 28.1552 22.3164 27.9399 22.754 27.7472C23.0429 27.6198 23.3697 27.6083 23.6668 27.7151C23.964 27.822 24.2087 28.0389 24.3503 28.321C24.4958 28.5961 24.5303 28.9165 24.4467 29.2162C24.3631 29.5159 24.1678 29.7722 23.901 29.9322C23.4829 30.182 23.0398 30.3902 22.5959 30.5977C22.4526 30.6658 22.2796 30.6775 22.1167 30.7151Z" fill="url(#paint2_linear_305_15964)"/>
<path d="M28.916 20.1478C29.0327 19.7501 29.1618 19.1246 29.4014 18.5445C29.6284 17.9964 30.2955 17.7804 30.8639 17.9651C31.4322 18.1499 31.7994 18.6901 31.6992 19.2694C31.6074 19.8013 31.4728 20.325 31.2968 20.8352C31.1003 21.4044 30.5069 21.6792 29.8743 21.5602C29.3309 21.46 28.9278 20.9534 28.916 20.1478Z" fill="url(#paint3_linear_305_15964)"/>
<path d="M29.2114 24.8328C29.0916 25.0904 29.0015 25.3683 28.845 25.6008C28.615 25.9222 28.368 26.2311 28.1051 26.5262C27.6393 27.0742 26.8869 27.1697 26.3491 26.7462C25.8112 26.3226 25.7056 25.5718 26.1408 24.9933C26.4156 24.6277 26.7053 24.2722 27.0122 23.9325C27.1794 23.7513 27.398 23.6255 27.6386 23.5719C27.8792 23.5183 28.1305 23.5395 28.3588 23.6326C28.8387 23.8221 29.144 24.2769 29.2114 24.8328Z" fill="url(#paint4_linear_305_15964)"/>
</g>
<defs>
<linearGradient id="paint0_linear_305_15964" x1="16.0006" y1="0" x2="16.0006" y2="32.0033" gradientUnits="userSpaceOnUse">
<stop stop-color="#F6CC82"/>
<stop offset="1" stop-color="#668A90" stop-opacity="0.1"/>
</linearGradient>
<linearGradient id="paint1_linear_305_15964" x1="13.5213" y1="4.73828" x2="13.5213" y2="22.1883" gradientUnits="userSpaceOnUse">
<stop stop-color="#F6CC82"/>
<stop offset="1" stop-color="#668A90" stop-opacity="0.1"/>
</linearGradient>
<linearGradient id="paint2_linear_305_15964" x1="22.682" y1="27.6426" x2="22.682" y2="30.7151" gradientUnits="userSpaceOnUse">
<stop stop-color="#F6CC82"/>
<stop offset="1" stop-color="#668A90" stop-opacity="0.1"/>
</linearGradient>
<linearGradient id="paint3_linear_305_15964" x1="30.3158" y1="17.9004" x2="30.3158" y2="21.5875" gradientUnits="userSpaceOnUse">
<stop stop-color="#F6CC82"/>
<stop offset="1" stop-color="#668A90" stop-opacity="0.1"/>
</linearGradient>
<linearGradient id="paint4_linear_305_15964" x1="27.541" y1="23.543" x2="27.541" y2="27.0101" gradientUnits="userSpaceOnUse">
<stop stop-color="#F6CC82"/>
<stop offset="1" stop-color="#668A90" stop-opacity="0.1"/>
</linearGradient>
<clipPath id="clip0_305_15964">
<rect width="31.9992" height="32" fill="white"/>
</clipPath>
</defs>
</svg>
