<svg width="35" height="30" viewBox="0 0 35 30" fill="none" xmlns="http://www.w3.org/2000/svg">
<g clip-path="url(#clip0_1_3545)">
<path d="M17.485 0.0714077C19.4402 -0.0354342 21.3915 -0.0789711 23.3215 0.357627C29.5638 1.77031 34.3616 7.19685 34.9346 13.5348C35.6257 21.1852 30.605 28.015 23.0601 29.6454C22.1209 29.8472 21.1638 29.9555 20.2029 29.9685C18.0156 29.9949 15.819 30.0543 13.6423 29.8855C7.29118 29.3948 1.79963 24.5882 0.389607 18.4178C-1.53906 9.97604 3.8384 1.83759 12.4246 0.20595C12.7318 0.134691 13.0447 0.0905533 13.3597 0.0740471C14.7353 0.0634958 16.1095 0.0714076 17.485 0.0714077ZM19.8833 28.4081C27.3446 28.4081 33.4251 22.3788 33.4224 14.9738C33.4224 7.58724 27.3632 1.5685 19.9231 1.55003C12.4617 1.53157 6.36796 7.55559 6.35735 14.9593C6.34674 22.363 12.4206 28.4042 19.8833 28.4081ZM5.24047 11.0299C4.28807 11.0299 3.3317 11.0233 2.37664 11.0405C2.31911 11.0532 2.26569 11.08 2.22122 11.1185C2.17675 11.1569 2.14263 11.2058 2.12197 11.2607C1.91636 12.2131 1.73198 13.1694 1.53567 14.1626L4.73244 14.1626C4.9062 13.11 5.06803 12.093 5.24047 11.0299ZM1.52638 15.7903C1.72137 16.7756 1.89514 17.6923 2.09278 18.6025C2.12064 18.7251 2.27583 18.9111 2.37532 18.9138C3.33037 18.9375 4.28542 18.9282 5.23782 18.9282C5.06273 17.8532 4.89559 16.8244 4.72846 15.7903L1.52638 15.7903ZM7.47158 6.29326C6.63591 6.29326 5.82544 6.29326 5.0163 6.29326C4.90442 6.29102 4.79586 6.3311 4.71254 6.40539C3.93476 7.31518 3.29198 8.33104 2.80376 9.42202L5.76708 9.42202L7.47158 6.29326ZM2.78387 20.5098C3.28323 21.6202 3.93986 22.6538 4.73377 23.5792C4.79278 23.6331 4.86986 23.6632 4.94997 23.6636C5.78565 23.6636 6.62132 23.6636 7.44239 23.6636C6.91181 22.6414 6.4051 21.6547 5.88513 20.6747C5.85667 20.6304 5.81873 20.5928 5.77402 20.5648C5.72931 20.5368 5.67893 20.5189 5.62647 20.5124C4.71121 20.5045 3.78932 20.5098 2.78387 20.5098ZM6.48204 25.249C7.76207 26.5404 11.1445 28.1259 12.2296 28.0692C11.2175 27.2276 10.1073 26.3029 8.99568 25.3862C8.89565 25.307 8.7732 25.2609 8.64549 25.2543C7.95706 25.2424 7.26465 25.249 6.48867 25.249L6.48204 25.249ZM12.2694 1.85738C10.2014 2.27815 8.25021 3.20541 6.41041 4.70778C7.26996 4.70778 7.99022 4.70778 8.71049 4.70778C8.80836 4.7012 8.90144 4.66327 8.97578 4.59964C10.1019 3.66709 11.2228 2.73321 12.276 1.85738L12.2694 1.85738Z" fill="url(#paint0_linear_1_3545)"/>
<path d="M13.055 23.6659L13.9901 22.4788C18.4682 25.7645 23.8218 24.5602 26.7241 21.599C29.714 18.5534 30.677 13.2074 27.2547 8.90205L28.414 7.94176C31.6519 11.5256 32.2833 18.0482 27.9644 22.583C23.7277 27.0321 17.0251 26.9477 13.055 23.6659Z" fill="url(#paint1_linear_1_3545)"/>
<path d="M11.0377 18.6325L9.65955 19.2036C8.16596 16.2424 8.34105 11.2802 11.5166 7.68188C14.6126 4.17063 20.0378 2.89381 24.1631 4.78794C23.9734 5.24696 23.7811 5.71122 23.5794 6.19398C19.681 4.84329 16.1234 5.37883 13.1853 8.27937C10.2472 11.1799 9.67415 14.707 11.0377 18.6325Z" fill="url(#paint2_linear_1_3545)"/>
<path d="M26.4883 17.6289L25.0995 17.067C25.9511 14.2429 25.3197 11.8634 22.7663 10.2805C20.5405 8.90083 18.3094 9.22531 16.1884 10.8081L15.1909 9.68961C16.9312 7.91948 20.762 6.93553 23.9707 9.14094C27.0892 11.2844 27.6689 15.1729 26.4883 17.6289Z" fill="url(#paint3_linear_1_3545)"/>
<path d="M23.5927 19.147L24.5889 20.2735C22.8353 22.0251 19.2591 22.8996 16.1818 21.0649C13.4904 19.4583 12.0273 15.8824 12.9982 13.2206L14.4574 13.5965C14.0064 16.2886 14.8049 18.4637 17.2429 19.8092C19.4303 21.0213 21.5698 20.6652 23.5927 19.147Z" fill="url(#paint4_linear_1_3545)"/>
<path d="M19.8624 18.138C19.0183 18.1293 18.2123 17.7875 17.6215 17.188C17.0307 16.5884 16.7036 15.78 16.7121 14.9406C16.718 14.5244 16.8064 14.1133 16.9722 13.731C17.1381 13.3488 17.3781 13.0027 17.6787 12.7129C17.9792 12.423 18.3342 12.1949 18.7235 12.0417C19.1128 11.8884 19.5287 11.8131 19.9473 11.8199C20.7838 11.8334 21.5813 12.1738 22.1674 12.7674C22.7534 13.361 23.0809 14.1602 23.0791 14.9921C23.0765 15.409 22.9911 15.8212 22.8279 16.2051C22.6647 16.5891 22.4268 16.9372 22.1279 17.2295C21.8291 17.5218 21.4751 17.7525 21.0863 17.9084C20.6975 18.0643 20.2816 18.1424 19.8624 18.138ZM18.2999 14.9855C18.3057 15.4011 18.4746 15.7978 18.7704 16.0913C19.0663 16.3848 19.4658 16.5517 19.8836 16.5565C20.3015 16.5565 20.7026 16.3932 21.0004 16.1018C21.2982 15.8103 21.4688 15.4141 21.4754 14.9987C21.4772 14.7884 21.4368 14.5798 21.3566 14.3852C21.2764 14.1906 21.158 14.0139 21.0083 13.8653C20.8586 13.7167 20.6807 13.5992 20.4848 13.5198C20.289 13.4404 20.0792 13.4006 19.8677 13.4027C19.4504 13.41 19.0527 13.5799 18.7602 13.876C18.4676 14.172 18.3038 14.5705 18.3038 14.9855L18.2999 14.9855Z" fill="url(#paint5_linear_1_3545)"/>
</g>
<defs>
<linearGradient id="paint0_linear_1_3545" x1="17.4979" y1="30.0005" x2="17.4979" y2="-0.000102619" gradientUnits="userSpaceOnUse">
<stop stop-color="#FFCF7E"/>
<stop offset="1" stop-color="#6FA1A9"/>
</linearGradient>
<linearGradient id="paint1_linear_1_3545" x1="22.0392" y1="26.0356" x2="22.0392" y2="7.94176" gradientUnits="userSpaceOnUse">
<stop stop-color="#FFCF7E"/>
<stop offset="1" stop-color="#6FA1A9"/>
</linearGradient>
<linearGradient id="paint2_linear_1_3545" x1="16.4578" y1="19.2036" x2="16.4578" y2="3.9126" gradientUnits="userSpaceOnUse">
<stop stop-color="#FFCF7E"/>
<stop offset="1" stop-color="#6FA1A9"/>
</linearGradient>
<linearGradient id="paint3_linear_1_3545" x1="21.1233" y1="17.6289" x2="21.1233" y2="7.87104" gradientUnits="userSpaceOnUse">
<stop stop-color="#FFCF7E"/>
<stop offset="1" stop-color="#6FA1A9"/>
</linearGradient>
<linearGradient id="paint4_linear_1_3545" x1="18.6431" y1="22.084" x2="18.6431" y2="13.2206" gradientUnits="userSpaceOnUse">
<stop stop-color="#FFCF7E"/>
<stop offset="1" stop-color="#6FA1A9"/>
</linearGradient>
<linearGradient id="paint5_linear_1_3545" x1="19.8955" y1="18.1382" x2="19.8955" y2="11.8194" gradientUnits="userSpaceOnUse">
<stop stop-color="#FFCF7E"/>
<stop offset="1" stop-color="#6FA1A9"/>
</linearGradient>
<clipPath id="clip0_1_3545">
<rect width="35" height="30" fill="white" transform="translate(35 30) rotate(-180)"/>
</clipPath>
</defs>
</svg>
