<svg width="65" height="270" viewBox="0 0 65 270" fill="none" xmlns="http://www.w3.org/2000/svg">
<path d="M62.6102 2.06955L62.6847 1H61.6126H2.30762H1.23795L1.30988 2.06724L11.9899 160.533C11.9958 167.298 13.764 172.802 17.3956 176.936L17.4069 176.949L17.4187 176.961C21.2598 181.042 25.6866 183.146 30.6709 183.146C35.6325 183.146 40.0531 181.184 43.9006 177.351C48.018 173.25 50.5465 167.651 51.5519 160.641L51.557 160.605L51.5596 160.569L62.6102 2.06955ZM63.3493 237.915C63.3493 231.754 62.8554 226.622 61.8467 222.54C60.8442 218.484 59.3115 215.377 57.1616 213.357C55.1342 211.216 52.0164 209.69 47.9454 208.692C43.8488 207.688 38.6968 207.196 32.5126 207.196C26.3278 207.196 21.1468 207.688 16.9912 208.691C12.8519 209.691 9.6511 211.217 7.50707 213.346C5.35101 215.366 3.81456 218.476 2.81024 222.54C1.80157 226.622 1.30762 231.754 1.30762 237.915C1.30762 244.075 1.8017 249.237 2.8094 253.377C3.81502 257.509 5.35114 260.702 7.49558 262.838C9.63965 264.974 12.8445 266.503 16.9912 267.504C21.1468 268.508 26.3278 269 32.5126 269C38.6968 269 43.8488 268.508 47.9454 267.504C52.0241 266.504 55.146 264.974 57.1731 262.826C59.3114 260.691 60.8437 257.501 61.8475 253.377C62.8552 249.237 63.3493 244.075 63.3493 237.915Z" stroke="white" stroke-width="2"/>
</svg>
