<svg width="23" height="25" viewBox="0 0 23 25" fill="none" xmlns="http://www.w3.org/2000/svg">
<g clip-path="url(#clip0_1_5158)">
<path d="M17.9123 20.8344V22.0126C17.9123 22.9168 17.9123 22.9168 16.9942 22.9168H15.8298C15.8298 23.442 15.8298 23.9428 15.8298 24.4436C15.8298 24.8664 15.6907 25 15.2664 25H0.560526C0.134156 25 0.00408936 24.8664 0.00408936 24.4436C0.00408936 18.569 0.00408936 12.6944 0.00408936 6.81981C0.00408936 6.39066 0.136243 6.25642 0.560526 6.25573C1.06132 6.25573 1.56211 6.25573 2.09073 6.25573C2.09073 5.73059 2.09073 5.2298 2.09073 4.729C2.09073 4.30542 2.22566 4.17257 2.65412 4.17257C3.14795 4.17257 3.64179 4.17257 4.17388 4.17257V2.8719C4.17388 2.14088 4.22466 2.0901 4.9536 2.08941C5.36119 2.08941 5.76877 2.08941 6.17636 2.08941C6.20374 2.08417 6.23053 2.07625 6.25635 2.06576V0.59468C6.25635 0.12936 6.37946 0.00346635 6.83643 0.00346635C10.7579 0.00346635 14.6794 0.00230689 18.6009 -1.15939e-05C18.7045 -0.004754 18.8078 0.0129967 18.9039 0.0520196C19 0.0910424 19.0864 0.150411 19.1573 0.226041C20.0546 1.13257 20.9565 2.03446 21.863 2.93171C21.9391 3.00244 21.9989 3.0888 22.0384 3.18485C22.0779 3.28091 22.0961 3.38438 22.0918 3.48815C22.0877 8.39036 22.0877 13.293 22.0918 18.1962C22.0918 18.6204 21.9569 18.7526 21.5305 18.7526C21.0367 18.7526 20.5429 18.7526 20.0094 18.7526V19.9475C20.0094 20.8218 19.9962 20.8358 19.126 20.8358L17.9123 20.8344ZM0.85474 7.08551V24.1542H14.9827V10.0019H14.6857C13.9825 10.0019 13.28 10.0019 12.5768 10.0019C12.3292 10.0019 12.1184 9.91082 12.1003 9.66042C12.0676 9.22432 12.0913 8.78404 12.0913 8.34723H12.9204V9.14363H14.3866C13.7411 8.49886 13.1235 7.89165 12.517 7.26566C12.4602 7.2027 12.3903 7.15308 12.3121 7.12037C12.2339 7.08766 12.1495 7.07267 12.0649 7.07647C8.42019 7.08204 4.7753 7.08343 1.13017 7.08064L0.85474 7.08551ZM18.4806 3.73994C18.8979 4.15309 19.3027 4.56764 19.7242 4.96549C19.8171 5.04834 19.8903 5.15093 19.9385 5.26575C19.9866 5.38056 20.0085 5.50469 20.0024 5.62904C19.9955 9.62055 19.9938 13.6123 19.9975 17.6042V17.9054H21.2321V3.73994H18.4806ZM19.1525 5.82171H16.396C16.8133 6.23903 17.2209 6.65288 17.6431 7.05004C17.7361 7.13297 17.8094 7.23567 17.8576 7.35061C17.9057 7.46556 17.9275 7.58982 17.9213 7.71429C17.9144 11.7058 17.9128 15.6975 17.9165 19.6895V19.9872H19.1476L19.1525 5.82171ZM14.3136 7.90834C14.7309 8.32567 15.1378 8.73743 15.5586 9.13459C15.6515 9.21744 15.7247 9.32003 15.7729 9.43485C15.821 9.54966 15.8428 9.67379 15.8368 9.79814C15.8298 13.7896 15.8282 17.7814 15.8319 21.7734V22.0738H17.0665V7.90556L14.3136 7.90834ZM7.09448 2.08941H7.4346C10.4185 2.08941 13.4024 2.09358 16.387 2.08245C16.7083 2.08245 16.9434 2.168 17.1632 2.40519C17.543 2.81695 17.9506 3.20437 18.354 3.60987V2.10262H19.1754V2.9032H20.627C20.5526 2.82251 20.5032 2.76409 20.4503 2.71262C19.88 2.14157 19.3062 1.5747 18.7421 0.998097C18.6902 0.942101 18.6265 0.898281 18.5557 0.869781C18.4849 0.841282 18.4086 0.828806 18.3324 0.833252C14.6808 0.837425 11.0287 0.837425 7.37618 0.833252H7.09796L7.09448 2.08941ZM18.555 5.00027C18.4687 4.90706 18.4159 4.85003 18.3665 4.79717C17.7962 4.22612 17.2216 3.65995 16.6575 3.08265C16.6056 3.02682 16.5419 2.98321 16.471 2.95495C16.4002 2.92669 16.324 2.91448 16.2479 2.91919C12.5953 2.92337 8.94324 2.92337 5.29163 2.91919H5.02176V4.17118H5.35353C8.30334 4.17118 11.2525 4.17883 14.2016 4.16283C14.6001 4.16283 14.8922 4.26229 15.1566 4.56138C15.5043 4.95436 15.8931 5.31257 16.2694 5.69164V4.18648H17.0923V4.99749L18.555 5.00027ZM2.93025 6.25225H3.26063C6.27026 6.25225 9.28058 6.25573 12.2909 6.24738C12.4151 6.24144 12.5391 6.26333 12.6538 6.31147C12.7685 6.35961 12.871 6.43277 12.9538 6.5256C13.3106 6.90467 13.6862 7.26566 14.0548 7.63221C14.0976 7.6714 14.1424 7.70832 14.189 7.7428V6.26616H15.0035V7.06186H16.4718C15.8257 6.4164 15.2073 5.80988 14.6008 5.18876C14.5442 5.12572 14.4744 5.07595 14.3964 5.043C14.3184 5.01006 14.234 4.99475 14.1494 4.99818C10.5061 5.00421 6.86286 5.0056 3.2196 5.00235H2.93025V6.25225Z" fill="url(#paint0_linear_1_5158)"/>
<path d="M3.33302 17.2941C3.33302 16.3057 3.34554 15.3166 3.32746 14.3282C3.31772 13.7906 3.53612 13.3913 3.95345 13.0839C4.57388 12.6235 5.29377 12.4044 6.04009 12.2653C7.67045 11.962 9.28689 12.0072 10.8609 12.5629C11.2487 12.7104 11.615 12.909 11.9501 13.1535C12.332 13.4199 12.5066 13.8156 12.501 14.2983C12.4917 16.2848 12.4917 18.2711 12.501 20.2571C12.501 20.794 12.2923 21.1926 11.875 21.5014C11.2629 21.9584 10.5535 22.1789 9.8155 22.3159C8.14063 22.6268 6.48176 22.5858 4.87226 21.9827C4.48892 21.8259 4.12896 21.6172 3.80252 21.3623C3.46726 21.114 3.32467 20.7433 3.32884 20.3127C3.33928 19.307 3.33302 18.3005 3.33302 17.2941ZM7.9111 12.9121C6.91091 12.9288 5.92184 13.0283 4.98981 13.4352C4.76834 13.5328 4.56143 13.6606 4.37495 13.8149C4.08977 14.0514 4.08282 14.2775 4.36869 14.5105C4.59188 14.6877 4.83831 14.8335 5.1011 14.9438C5.78621 15.2345 6.51445 15.35 7.25242 15.3945C8.43068 15.4641 9.59293 15.3876 10.7058 14.9528C10.9397 14.8622 11.161 14.7421 11.3645 14.5953C11.7568 14.3102 11.7596 14.0312 11.3721 13.7468C11.169 13.5995 10.9482 13.4782 10.7148 13.3858C9.81829 13.022 8.87165 12.9302 7.9111 12.9149V12.9121ZM4.17881 15.4662C4.09395 16.4636 4.25531 16.7181 5.20126 17.0722C5.21725 17.0777 5.23464 17.0812 5.25064 17.0868C6.6466 17.557 8.07108 17.5952 9.51155 17.365C10.1215 17.2669 10.7211 17.1139 11.24 16.764C11.409 16.65 11.5947 16.4705 11.642 16.2876C11.7116 16.0233 11.6594 15.7312 11.6594 15.4662C9.15821 16.5255 6.68069 16.5234 4.17881 15.4662ZM11.6615 17.5438C9.15752 18.6065 6.67094 18.6093 4.18367 17.5438C4.07378 18.5015 4.2261 18.7596 5.12475 19.1185C5.16509 19.1345 5.20474 19.1512 5.24577 19.1651C6.73841 19.6631 8.25957 19.7062 9.78421 19.3793C10.2927 19.2701 10.7823 19.0482 11.256 18.8229C11.4435 18.7197 11.5831 18.5472 11.6448 18.3422C11.7109 18.0932 11.6615 17.806 11.6615 17.5465V17.5438ZM11.6615 19.6304C9.14431 20.6876 6.65981 20.6925 4.17254 19.6304C4.11342 20.6827 4.25254 20.9116 5.2569 21.2538C6.73772 21.7595 8.25331 21.7935 9.7696 21.4694C10.2934 21.3574 10.7927 21.1133 11.288 20.8956C11.4897 20.8073 11.6587 20.6327 11.6615 20.3725C11.6643 20.1124 11.6636 19.871 11.6636 19.6325L11.6615 19.6304Z" fill="url(#paint1_linear_1_5158)"/>
<path d="M10.8201 10.4395V11.2359H5.01367V10.4395H10.8201Z" fill="url(#paint2_linear_1_5158)"/>
<path d="M5.8537 8.75763H6.64593V9.56794H5.8537V8.75763Z" fill="url(#paint3_linear_1_5158)"/>
<path d="M8.32231 8.77246V9.56886H7.5127V8.77246H8.32231Z" fill="url(#paint4_linear_1_5158)"/>
<path d="M9.17493 9.56512V8.76733H9.98454V9.56512H9.17493Z" fill="url(#paint5_linear_1_5158)"/>
</g>
<defs>
<linearGradient id="paint0_linear_1_5158" x1="11.0483" y1="-0.000762939" x2="11.0483" y2="25" gradientUnits="userSpaceOnUse">
<stop stop-color="#FFCF7E"/>
<stop offset="0.807292" stop-color="#6FA1A9"/>
</linearGradient>
<linearGradient id="paint1_linear_1_5158" x1="7.91414" y1="12.079" x2="7.91414" y2="22.5066" gradientUnits="userSpaceOnUse">
<stop stop-color="#FFCF7E"/>
<stop offset="0.807292" stop-color="#6FA1A9"/>
</linearGradient>
<linearGradient id="paint2_linear_1_5158" x1="7.91688" y1="10.4395" x2="7.91688" y2="11.2359" gradientUnits="userSpaceOnUse">
<stop stop-color="#FFCF7E"/>
<stop offset="0.807292" stop-color="#6FA1A9"/>
</linearGradient>
<linearGradient id="paint3_linear_1_5158" x1="6.24981" y1="8.75763" x2="6.24981" y2="9.56794" gradientUnits="userSpaceOnUse">
<stop stop-color="#FFCF7E"/>
<stop offset="0.807292" stop-color="#6FA1A9"/>
</linearGradient>
<linearGradient id="paint4_linear_1_5158" x1="7.9175" y1="8.77246" x2="7.9175" y2="9.56886" gradientUnits="userSpaceOnUse">
<stop stop-color="#FFCF7E"/>
<stop offset="0.807292" stop-color="#6FA1A9"/>
</linearGradient>
<linearGradient id="paint5_linear_1_5158" x1="9.57973" y1="8.76733" x2="9.57973" y2="9.56512" gradientUnits="userSpaceOnUse">
<stop stop-color="#FFCF7E"/>
<stop offset="0.807292" stop-color="#6FA1A9"/>
</linearGradient>
<clipPath id="clip0_1_5158">
<rect width="22.0815" height="25" fill="white"/>
</clipPath>
</defs>
</svg>
