<svg width="23" height="25" viewBox="0 0 23 25" fill="none" xmlns="http://www.w3.org/2000/svg">
<path d="M22.3694 12.7239C22.3694 16.013 22.3712 19.3019 22.3747 22.5906C22.3747 22.9236 22.2686 23.126 21.9669 23.2723C20.8722 23.8063 19.7835 24.3544 18.6977 24.907C18.5866 24.9731 18.4586 25.0052 18.3295 24.9993C18.2004 24.9935 18.0758 24.95 17.9711 24.8741C12.1027 21.1986 6.2306 17.5284 0.354735 13.8634C0.240752 13.8023 0.146805 13.7097 0.0841551 13.5966C0.0215054 13.4835 -0.00718517 13.3547 0.00152768 13.2257C0.0129777 11.9861 0.0129777 10.7467 0.00152768 9.50765C0.00152768 9.20895 0.116526 9.03272 0.384607 8.89905C6.2525 5.97033 12.1182 3.03613 17.9816 0.0964615C18.2549 -0.0401923 18.4744 -0.0342167 18.7328 0.130813C19.8235 0.827772 20.9205 1.51378 22.0237 2.18883C22.2746 2.34266 22.3732 2.53532 22.3724 2.82879C22.3664 6.12839 22.3654 9.42675 22.3694 12.7239ZM21.4733 3.38287C20.5862 3.83092 19.7469 4.24162 18.9158 4.67249C18.8463 4.70834 18.797 4.84798 18.7955 4.93983C18.7866 5.73063 18.7903 6.52068 18.7903 7.31148V7.75056C19.6767 7.30252 20.5153 6.88882 21.3486 6.46318C21.3813 6.443 21.4089 6.41574 21.4296 6.38343C21.4503 6.35112 21.4635 6.31458 21.4681 6.2765C21.4771 5.32813 21.4741 4.38052 21.4741 3.38287H21.4733ZM17.895 5.21762C17.8546 5.21762 17.8345 5.2109 17.8203 5.21762C16.9892 5.62982 16.1573 6.03903 15.3284 6.46019C15.2989 6.47765 15.2736 6.50156 15.2546 6.53014C15.2356 6.55872 15.2233 6.59122 15.2186 6.62522C15.2119 7.58031 15.2134 8.53614 15.2134 9.53752C16.1013 9.09395 16.9548 8.66905 17.8046 8.23818C17.8293 8.2213 17.8499 8.19914 17.8651 8.17332C17.8802 8.14749 17.8894 8.11864 17.892 8.08884C17.8972 7.13077 17.8957 6.17494 17.8957 5.21762H17.895ZM11.6343 11.3282C12.5236 10.8839 13.3704 10.4642 14.2098 10.0311C14.2725 9.999 14.3121 9.86608 14.3128 9.77871C14.3218 9.1746 14.3181 8.56974 14.3181 7.96563V6.96275C13.4272 7.40706 12.5811 7.82673 11.7396 8.25611C11.7092 8.27993 11.6844 8.31014 11.667 8.34459C11.6496 8.37904 11.6399 8.4169 11.6388 8.45549C11.6328 9.39414 11.635 10.3328 11.635 11.3282H11.6343ZM18.7903 11.7762C19.6752 11.3334 20.522 10.9145 21.3606 10.4814C21.4241 10.4493 21.4666 10.3186 21.4689 10.2327C21.4793 9.78469 21.4741 9.33664 21.4741 8.89383V7.41005C20.578 7.8581 19.7245 8.27925 18.8762 8.71461C18.8217 8.74298 18.7963 8.87068 18.794 8.95282C18.7858 9.34336 18.794 9.73391 18.794 10.1245L18.7903 11.7762ZM21.4741 11.4357C20.5832 11.8838 19.7364 12.2997 18.8971 12.7328C18.8344 12.7649 18.7963 12.8986 18.7948 12.9852C18.7858 13.5341 18.7903 14.0829 18.7903 14.6281V15.7997C19.6797 15.3516 20.5257 14.9342 21.3673 14.5041C21.3978 14.4806 21.4228 14.4507 21.4405 14.4165C21.4581 14.3823 21.4681 14.3447 21.4696 14.3062C21.4763 13.369 21.4748 12.4304 21.4748 11.4372L21.4741 11.4357ZM18.791 19.8097C18.8354 19.7963 18.879 19.7806 18.9217 19.7627C19.7192 19.3639 20.519 18.9696 21.3113 18.5589C21.3559 18.5276 21.3931 18.4869 21.4204 18.4397C21.4476 18.3925 21.4641 18.3399 21.4689 18.2856C21.4875 17.9331 21.4763 17.5792 21.4763 17.226V15.4629C20.8491 15.775 20.2606 16.0655 19.6744 16.359C19.3855 16.5046 18.9912 16.592 18.8441 16.8287C18.697 17.0654 18.7948 17.4575 18.7933 17.7815C18.7888 18.4499 18.791 19.116 18.791 19.8097ZM18.791 23.8294C18.8353 23.8189 18.8787 23.8051 18.921 23.7883C19.7185 23.3911 20.5183 22.9968 21.3106 22.5861C21.355 22.5544 21.392 22.5135 21.4192 22.4662C21.4464 22.419 21.4631 22.3664 21.4681 22.312C21.4883 22.0133 21.4756 21.7146 21.4756 21.4204V19.502C21.3591 19.5536 21.2747 19.5879 21.1941 19.6282C20.6206 19.9142 20.065 20.2488 19.4706 20.4728C18.9217 20.6849 18.7238 20.9955 18.7761 21.5847C18.8388 22.3225 18.791 23.067 18.791 23.8331V23.8294ZM13.8379 14.2517C13.7349 14.177 13.6632 14.1262 13.587 14.0792C12.8627 13.6252 12.1323 13.1831 11.417 12.7142C11.2258 12.5902 11.0839 12.5917 10.8943 12.6962C10.4462 12.9389 9.98397 13.1577 9.52697 13.3862L8.53081 13.885C9.42242 14.4429 10.27 14.9753 11.122 15.5017C11.1532 15.5172 11.1873 15.5258 11.2221 15.527C11.2569 15.5281 11.2915 15.5218 11.3236 15.5085C12.151 15.0963 12.9777 14.6826 13.8379 14.2517ZM20.9939 2.6212C20.8924 2.551 20.8207 2.49724 20.7445 2.44945C20.2099 2.11291 19.6744 1.77762 19.1383 1.44358C18.8702 1.27706 18.6029 0.995537 18.3273 0.985829C18.0518 0.976121 17.7434 1.22553 17.4536 1.36891C16.8764 1.65416 16.3014 1.94465 15.6831 2.25455C16.5792 2.8161 17.4372 3.35226 18.2967 3.88319C18.3248 3.89511 18.3551 3.90094 18.3856 3.9003C18.4161 3.89966 18.4461 3.89255 18.4737 3.87945C19.3048 3.46874 20.1329 3.05281 20.9939 2.6212ZM12.1077 4.04C13.0038 4.6023 13.8633 5.13921 14.7213 5.67014C14.7494 5.68195 14.7798 5.68766 14.8103 5.68688C14.8408 5.68611 14.8708 5.67888 14.8983 5.66566C15.7287 5.25495 16.557 4.84101 17.3834 4.42383C17.3685 4.39023 17.3655 4.36633 17.3528 4.35812C16.5195 3.8354 15.6876 3.3067 14.849 2.78996C14.8095 2.77315 14.7668 2.76504 14.7239 2.7662C14.681 2.76736 14.6389 2.77775 14.6003 2.79668C13.7826 3.20066 12.9709 3.60913 12.1077 4.04448V4.04ZM13.8125 6.21153C13.7886 6.17046 13.7834 6.14806 13.77 6.13686C12.9441 5.61414 12.1197 5.09664 11.287 4.58886C11.2391 4.56999 11.1877 4.56143 11.1363 4.56375C11.0848 4.56606 11.0344 4.5792 10.9883 4.6023C10.3536 4.90846 9.72411 5.22807 9.09311 5.54394C8.91837 5.63131 8.74289 5.72017 8.52932 5.82845C9.4172 6.38328 10.2573 6.91123 11.1041 7.43021C11.1431 7.44807 11.1855 7.45732 11.2284 7.45732C11.2713 7.45732 11.3137 7.44807 11.3528 7.43021C12.1697 7.03892 12.9814 6.62896 13.8095 6.21452L13.8125 6.21153ZM10.2409 8.00222C10.2188 7.97238 10.1938 7.94486 10.1662 7.92008C9.34476 7.40632 8.53081 6.89032 7.70193 6.38776C7.65399 6.36889 7.60262 6.36034 7.55115 6.36265C7.49968 6.36497 7.44928 6.3781 7.40323 6.4012C6.72668 6.72902 6.0591 7.06879 5.3833 7.40482C5.24963 7.47203 5.11671 7.54073 4.94571 7.62884C5.83358 8.18442 6.67292 8.71386 7.51898 9.23359C7.55816 9.25133 7.60067 9.2605 7.64368 9.2605C7.68669 9.2605 7.72921 9.25133 7.76839 9.23359C8.5913 8.82736 9.40376 8.41815 10.2409 8.00222ZM1.40615 9.39563C1.43303 9.43148 1.44498 9.45985 1.46663 9.47031C2.29253 9.98855 3.11768 10.509 3.9503 11.0176C3.99429 11.0341 4.04123 11.0412 4.08814 11.0387C4.13506 11.0361 4.18093 11.0238 4.22286 11.0026C4.65074 10.801 5.07265 10.5844 5.49232 10.3724C5.87689 10.1797 6.26146 9.98556 6.68711 9.77125C5.7955 9.21268 4.94794 8.67951 4.09666 8.15306C4.06532 8.13802 4.03116 8.12977 3.99641 8.12887C3.96166 8.12797 3.92712 8.13443 3.89504 8.14783C3.07213 8.55705 2.24399 8.97298 1.40839 9.3919L1.40615 9.39563ZM10.2409 12.0257C10.2209 11.996 10.1973 11.9689 10.1707 11.945C9.34924 11.4313 8.53529 10.9153 7.71014 10.4127C7.66253 10.3931 7.61131 10.3838 7.55984 10.3853C7.50837 10.3868 7.4578 10.3992 7.41145 10.4217C6.90814 10.6599 6.41156 10.913 5.91348 11.1624C5.60433 11.317 5.29667 11.4746 4.94944 11.65C5.70066 12.1197 6.42425 12.5379 7.10902 13.0136C7.48239 13.2712 7.77287 13.3056 8.17537 13.0718C8.83997 12.688 9.54265 12.3744 10.2409 12.0257ZM15.2142 15.097C15.2142 16.079 15.2097 17.0005 15.2216 17.9212C15.2307 17.9717 15.2503 18.0197 15.2791 18.0621C15.3079 18.1046 15.3453 18.1405 15.3889 18.1676C16.1409 18.6485 16.8988 19.1197 17.656 19.5917C17.7232 19.6342 17.7964 19.6663 17.8972 19.7216C17.8972 19.0286 17.8972 18.37 17.8972 17.7121C17.8972 17.4052 17.9913 17.04 17.8591 16.807C17.7269 16.5741 17.3648 16.4411 17.0989 16.2731C16.4866 15.8886 15.8728 15.5085 15.2134 15.0963L15.2142 15.097ZM17.8972 23.7682C17.8972 22.781 17.9009 21.852 17.8897 20.9231C17.8897 20.8484 17.8031 20.7476 17.7299 20.6991C17.2931 20.4153 16.8495 20.1435 16.4074 19.8672L15.2127 19.1205C15.2127 20.1166 15.2127 21.062 15.2171 22.0066C15.2233 22.0365 15.2354 22.0649 15.2529 22.0899C15.2703 22.1149 15.2927 22.1362 15.3187 22.1522C16.1603 22.6839 17.0033 23.2096 17.8965 23.7682H17.8972ZM14.2912 21.5115C14.303 21.4778 14.3118 21.443 14.3173 21.4077C14.3173 20.5116 14.324 19.6208 14.3113 18.7269C14.303 18.6722 14.2834 18.6199 14.2537 18.5732C14.224 18.5265 14.1849 18.4866 14.1388 18.4559C13.3637 17.9585 12.5811 17.4739 11.8 16.987C11.7471 16.9583 11.6922 16.9333 11.6358 16.9123C11.6358 17.8697 11.6358 18.7994 11.6432 19.7283C11.6432 19.803 11.7313 19.9023 11.8045 19.9523C12.2242 20.2271 12.6521 20.49 13.0785 20.7558C13.4765 21.006 13.8767 21.2539 14.2904 21.5115H14.2912ZM15.2276 11.0788C15.2209 11.1535 15.2149 11.1871 15.2149 11.2207C15.2149 12.1048 15.2089 12.989 15.2216 13.8731C15.2298 13.9277 15.2493 13.9801 15.2789 14.0267C15.3085 14.0734 15.3475 14.1134 15.3934 14.1442C16.1446 14.6266 16.9033 15.0963 17.6605 15.569C17.7277 15.6108 17.8009 15.6436 17.8972 15.6922C17.8972 14.7289 17.9009 13.7999 17.8897 12.871C17.8897 12.7963 17.8031 12.6955 17.7299 12.647C17.2931 12.3632 16.8488 12.0914 16.4074 11.8158L15.2276 11.0788ZM8.05887 14.649C8.05887 15.6317 8.05439 16.5532 8.06634 17.4739C8.07556 17.5243 8.0952 17.5723 8.124 17.6147C8.1528 17.6572 8.19013 17.6931 8.23361 17.7203C9.00126 18.2109 9.77638 18.6911 10.5485 19.1727C10.6 19.2048 10.656 19.2302 10.7412 19.275C10.7412 18.5432 10.6911 17.8435 10.7561 17.1543C10.8151 16.5233 10.6068 16.1589 10.0445 15.8706C9.3694 15.5271 8.74737 15.0806 8.05738 14.6482L8.05887 14.649ZM3.58589 14.8222C3.58589 13.8402 3.59037 12.9188 3.57842 11.998C3.56931 11.9475 3.54988 11.8995 3.52136 11.8568C3.49284 11.8141 3.45583 11.7778 3.41264 11.7501C2.85109 11.3864 2.28133 11.0347 1.71306 10.68C1.45693 10.5202 1.19856 10.3619 0.902846 10.179C0.902846 11.1669 0.902845 12.1033 0.906578 13.0405C0.909029 13.0708 0.917883 13.1003 0.932558 13.1269C0.947232 13.1536 0.967394 13.1768 0.991708 13.1951C1.83702 13.7305 2.68681 14.2607 3.58439 14.8222H3.58589ZM7.16353 17.0572C7.16353 16.073 7.16876 15.1448 7.15606 14.2196C7.15606 14.1374 7.05749 14.0307 6.97684 13.9791C6.20844 13.4893 5.43407 13.0084 4.66194 12.5267C4.60377 12.4977 4.54363 12.4727 4.48198 12.4521C4.48198 13.4019 4.48198 14.3234 4.48646 15.2449C4.4881 15.2836 4.49785 15.3216 4.51509 15.3563C4.53233 15.391 4.55667 15.4218 4.58652 15.4465C5.42213 15.9737 6.26669 16.4979 7.16204 17.0572H7.16353ZM10.7285 8.75792L8.52335 9.85861L10.7255 11.2326L10.7285 8.75792ZM15.6824 10.3059L17.8838 11.6792V9.20596L15.6824 10.3059ZM12.1032 12.0944L14.3098 13.4714V10.9944L12.1032 12.0944ZM14.3054 17.4963V15.0216L12.1077 16.12L14.3054 17.4963Z" fill="url(#paint0_linear_1_5173)"/>
<defs>
<linearGradient id="paint0_linear_1_5173" x1="11.1873" y1="0" x2="11.1873" y2="25" gradientUnits="userSpaceOnUse">
<stop stop-color="#FFCF7E"/>
<stop offset="0.807292" stop-color="#6FA1A9"/>
</linearGradient>
</defs>
</svg>
