<svg width="25" height="25" viewBox="0 0 25 25" fill="none" xmlns="http://www.w3.org/2000/svg">
<g clip-path="url(#clip0_1_5182)">
<path d="M4.64841 11.259C4.51629 10.6749 4.35705 10.1165 4.26735 9.54771C3.74584 6.23505 5.35766 2.86468 8.25798 1.16384C9.53098 0.405622 10.9853 0.00559459 12.4669 0.00608233C13.4293 0.00608233 14.3959 -0.0217327 15.3527 0.0540607C18.7321 0.321076 21.6553 2.76037 22.5843 6.04104C22.9545 7.32131 23.0061 8.67268 22.7345 9.97743C22.6928 10.1784 22.7269 10.2841 22.8917 10.4079C23.8325 11.1109 24.5424 11.987 24.8491 13.1448C24.9138 13.352 24.9525 13.5664 24.9645 13.7831C24.9749 14.8748 25.0236 15.9714 24.9527 17.0589C24.8679 18.3613 24.1614 19.3675 23.1823 20.188C21.9564 21.2122 20.5163 21.7456 18.9511 21.9702C17.5044 22.1813 16.0292 22.0781 14.626 21.6677C14.5565 21.6482 14.4244 21.674 14.3931 21.724C13.3862 23.3122 11.8801 24.187 10.118 24.6445C7.61478 25.2933 5.18104 25.0902 2.88638 23.8407C1.73279 23.2149 0.810761 22.3387 0.302458 21.0913C0.103416 20.5996 0.00277406 20.0738 0.00623761 19.5434C0.00623761 18.6589 0.0215354 17.7737 0.00623761 16.8899C-0.02853 15.2079 0.673772 13.8742 1.90594 12.7874C2.64093 12.1487 3.49465 11.6612 4.41825 11.3528C4.50099 11.3167 4.58722 11.2833 4.64841 11.259ZM12.4843 15.826C16.6154 15.833 19.9886 12.4668 19.9941 8.33571C19.9914 6.35252 19.2043 4.45092 17.8047 3.04593C16.405 1.64093 14.5064 0.846613 12.5233 0.836332C10.5356 0.833736 8.62803 1.61922 7.21852 3.02065C5.80901 4.42208 5.01257 6.32514 5.00374 8.31276C5.0028 10.3 5.78959 12.2067 7.19174 13.6149C8.59389 15.0232 10.4971 15.8183 12.4843 15.826ZM6.56897 14.192C6.38192 13.9757 6.2067 13.7622 6.01269 13.5661C5.98214 13.5464 5.94771 13.5334 5.91172 13.5282C5.87573 13.5229 5.83902 13.5254 5.80409 13.5356C4.88622 13.7539 4.04693 14.1322 3.36478 14.7997C2.70837 15.4422 2.34123 16.205 2.55748 17.143C2.63327 17.4726 2.80225 17.7807 2.93576 18.1165L2.3162 18.5581C2.27291 18.5102 2.23273 18.4595 2.1959 18.4065C1.52071 17.3071 1.46439 16.1848 2.11037 15.0584C2.63537 14.1426 3.44892 13.5488 4.39738 13.1302C4.72767 12.9848 5.07188 12.8729 5.42025 12.7422L5.01625 12.0246C3.74792 12.4237 2.63119 13.046 1.79259 14.0849C0.867775 15.2308 0.569469 16.5186 1.05343 17.9364C1.38373 18.9051 2.01232 19.6748 2.85231 20.2311C5.44597 21.9563 8.19193 22.0974 11.0192 20.884C12.1791 20.3869 13.1053 19.59 13.7068 18.4503C14.0028 17.8975 14.1551 17.2792 14.1497 16.6521H11.6763C11.4872 17.7918 10.4136 18.7952 9.26138 18.8863L9.05277 18.1332C9.13889 18.1091 9.22304 18.0784 9.30449 18.0414C9.68137 17.8328 10.0798 17.6548 10.4212 17.3989C10.6048 17.2599 10.7112 16.9998 10.8078 16.7731C10.8774 16.6069 10.8204 16.4811 10.593 16.4303C9.59864 16.2159 8.65841 15.8011 7.82965 15.2114C7.55638 15.0153 7.29353 14.9784 6.9834 15.0083C6.21851 15.0841 5.48422 15.2635 4.81251 15.6856C4.65328 15.4519 4.50517 15.2336 4.32577 14.968C4.71516 14.7948 5.06005 14.6127 5.42442 14.4868C5.78878 14.3609 6.17401 14.2921 6.56897 14.192ZM14.9946 18.3982C16.6286 18.8759 18.568 18.8508 20.2048 18.3397C21.3869 17.9719 22.4432 17.4066 23.2553 16.4505C24.4687 15.0222 24.4569 13.2637 23.2234 11.8438C22.9946 11.5809 22.7283 11.3508 22.4515 11.0789C22.3569 11.3063 22.2999 11.4787 22.2165 11.6352C22.133 11.7916 22.147 11.8945 22.2902 12.0259C22.916 12.6059 23.3332 13.3047 23.3186 14.1871C23.3068 15.1307 22.8479 15.865 22.1365 16.4331C20.5713 17.6847 18.7376 18.0018 16.7997 17.8725C16.2003 17.8328 15.6072 17.6965 14.9918 17.602V18.3975L14.9946 18.3982ZM21.7179 12.6406C20.1478 15.066 17.9289 16.4011 15.0655 16.6785C16.4161 17.1298 17.865 17.2 19.2529 16.8816C20.2264 16.6681 21.1248 16.2982 21.8389 15.5771C22.7443 14.6627 22.7005 13.5258 21.7179 12.6406ZM17.0646 19.6004L15.0356 19.3091C14.9702 19.8181 14.9056 20.3278 14.8318 20.9007L17.0646 21.2748V19.6004ZM7.92629 24.1689L9.56316 23.9492V22.2886L7.92629 22.5035V24.1689ZM7.06823 22.5L5.43137 22.2845V23.9478L7.06823 24.1633V22.5ZM19.5582 21.0328V19.3849L17.9255 19.5851V21.2491L19.5582 21.0328ZM4.5747 22.0647L2.91629 21.3165C2.91629 21.8116 2.91629 22.3026 2.91629 22.7928C2.91739 22.8213 2.92476 22.8492 2.93785 22.8746C2.95095 22.8999 2.96946 22.9221 2.99208 22.9395C3.50316 23.2051 4.01772 23.4624 4.57122 23.7419L4.5747 22.0647ZM12.0769 21.3284C11.54 21.5585 11.0338 21.772 10.5304 21.9966C10.5001 22.0133 10.4741 22.0369 10.4544 22.0653C10.4348 22.0938 10.422 22.1265 10.4171 22.1607C10.408 22.66 10.4115 23.1606 10.4115 23.7461C10.9678 23.4638 11.4851 23.2079 11.9941 22.9423C12.0187 22.9214 12.0386 22.8954 12.0523 22.8661C12.066 22.8368 12.0731 22.8049 12.0734 22.7726C12.0845 22.29 12.0796 21.8075 12.0796 21.3284H12.0769ZM20.4051 20.8333C20.9614 20.5551 21.4606 20.3041 21.9543 20.0454C21.9848 20.026 22.0105 20.0001 22.0297 19.9696C22.049 19.9391 22.0612 19.9046 22.0656 19.8688C22.0746 19.4127 22.0705 18.9565 22.0705 18.4997C21.5343 18.7118 21.0149 18.9169 20.5004 19.1255C20.4724 19.147 20.4496 19.1745 20.4338 19.2061C20.4181 19.2377 20.4097 19.2724 20.4093 19.3077C20.4044 19.7847 20.4079 20.2603 20.4079 20.8333H20.4051ZM20.5859 6.24965C20.6721 6.81497 20.7549 7.35804 20.8369 7.89346H22.0976C22.0016 7.38168 21.9154 6.89772 21.8146 6.41653C21.8021 6.35326 21.72 6.25939 21.6665 6.2573C21.3049 6.2427 20.9433 6.24965 20.5887 6.24965H20.5859ZM20.5859 10.4127C20.9336 10.4127 21.2812 10.419 21.6289 10.4072C21.6663 10.4016 21.7018 10.387 21.7323 10.3648C21.7628 10.3425 21.7875 10.3131 21.8041 10.2792C21.9091 9.78274 21.9974 9.28347 22.0955 8.76126H20.8369C20.7569 9.30781 20.6763 9.84462 20.5901 10.4127H20.5859ZM21.501 11.3167L21.4238 11.243C21.0963 11.243 20.7681 11.2381 20.4399 11.2471C20.4045 11.2489 20.3699 11.2583 20.3386 11.2747C20.3073 11.2912 20.2799 11.3143 20.2584 11.3424C20.0011 11.8563 19.7549 12.375 19.4984 12.9076C19.8008 12.9076 20.1096 12.9076 20.4176 12.9076C20.4424 12.9068 20.4668 12.9008 20.4892 12.89C20.5116 12.8792 20.5315 12.8639 20.5476 12.8451C20.8731 12.3382 21.1888 11.8285 21.5051 11.3195L21.501 11.3167ZM21.4704 5.41314C21.2348 4.83613 20.9211 4.29424 20.5379 3.80271C20.524 3.78718 20.5071 3.77463 20.4882 3.76579C20.4693 3.75695 20.4489 3.752 20.428 3.75125C20.1144 3.74708 19.8022 3.75125 19.497 3.75125C19.7563 4.28806 20.0011 4.79984 20.2535 5.30814C20.2695 5.33539 20.2913 5.35876 20.3174 5.37655C20.3435 5.39435 20.3732 5.40613 20.4044 5.41106C20.7514 5.4201 21.0942 5.41592 21.4718 5.41592L21.4704 5.41314ZM0.832317 19.4384C0.807979 20.5378 1.2683 21.4264 2.08395 22.2379C2.08395 21.7066 2.08395 21.2421 2.08395 20.7776C2.07672 20.7198 2.04969 20.6662 2.00746 20.6261C1.62153 20.2346 1.23284 19.8431 0.836484 19.4412L0.832317 19.4384ZM12.9085 22.2407C13.72 21.4208 14.1873 20.535 14.1553 19.4426C13.7596 19.8424 13.3653 20.2381 12.9732 20.6386C12.9341 20.6819 12.9112 20.7374 12.9085 20.7957C12.9106 21.2554 12.9127 21.7136 12.9127 22.2435L12.9085 22.2407ZM22.9021 19.3251C23.6524 18.5692 24.1092 17.7591 24.1482 16.7523C23.7442 17.1319 23.3485 17.5011 22.9563 17.8746C22.9227 17.913 22.9044 17.9625 22.9049 18.0136C22.9049 18.4274 22.9063 18.8411 22.9063 19.3278L22.9021 19.3251ZM16.8755 1.22156C17.5695 1.67825 18.2007 2.22387 18.7529 2.84451C18.7782 2.87952 18.8152 2.90422 18.8572 2.91405C19.1354 2.91961 19.4135 2.91752 19.7487 2.91752C18.883 2.10466 17.9491 1.54837 16.8755 1.22156ZM16.8755 15.438C17.9516 15.1064 18.9348 14.5267 19.7459 13.7455C19.4163 13.7455 19.1514 13.7407 18.8871 13.7455C18.8294 13.7548 18.7769 13.7844 18.739 13.829C18.1912 14.4422 17.5673 14.983 16.8824 15.438H16.8755Z" fill="url(#paint0_linear_1_5182)"/>
<path d="M2.51153 4.9969C2.45715 4.99957 2.40281 4.99105 2.35186 4.97186C2.3009 4.95268 2.25443 4.92324 2.21531 4.88537C2.1762 4.84749 2.14529 4.80199 2.12447 4.75169C2.10366 4.70138 2.09339 4.64733 2.09431 4.59289C2.09126 4.15027 1.91478 3.72648 1.60276 3.41252C1.29075 3.09855 0.868069 2.91943 0.425469 2.91362C0.370758 2.91552 0.316237 2.90625 0.265221 2.8864C0.214204 2.86654 0.167765 2.83651 0.128731 2.79812C0.0896965 2.75974 0.0588811 2.71381 0.0381702 2.66313C0.0174593 2.61246 0.00728108 2.5581 0.00825781 2.50336C0.00585109 2.44852 0.0147695 2.39377 0.0344439 2.34253C0.0541182 2.29128 0.0841317 2.24464 0.122619 2.2055C0.161107 2.16636 0.207242 2.13556 0.25815 2.11503C0.309058 2.0945 0.363645 2.08467 0.418517 2.08615C0.861028 2.08109 1.28399 1.90306 1.59692 1.59013C1.90984 1.27721 2.08787 0.854252 2.09293 0.411742C2.09145 0.356869 2.10128 0.302278 2.12181 0.25137C2.14234 0.200462 2.17314 0.154328 2.21228 0.11584C2.25142 0.0773527 2.29806 0.0473371 2.34931 0.0276628C2.40055 0.00798848 2.4553 -0.000923613 2.51014 0.00148311C2.56479 0.00059734 2.61904 0.0108477 2.6696 0.0316087C2.72016 0.0523698 2.76596 0.0832076 2.80422 0.122242C2.84247 0.161277 2.87238 0.207691 2.89211 0.258658C2.91185 0.309625 2.92099 0.364076 2.919 0.418695C2.92449 0.85708 3.10009 1.27618 3.40874 1.58755C3.71738 1.89892 4.13493 2.0782 4.57325 2.08754C4.83957 2.0938 5.00854 2.27598 5.00298 2.51101C4.99742 2.74604 4.83192 2.89345 4.57882 2.9171C3.57055 3.00981 3.01844 3.56215 2.92248 4.57412C2.89467 4.82723 2.73612 4.99203 2.51153 4.9969ZM3.06781 2.51379L2.51153 1.9144L1.9177 2.50614L2.50457 3.07355L3.06781 2.51379Z" fill="url(#paint1_linear_1_5182)"/>
<path d="M22.3459 22.1357C22.485 22.3791 22.613 22.603 22.7395 22.8255C21.3697 23.9068 17.2956 24.5236 15.3438 23.9381L15.4828 23.1503C17.8727 23.5355 20.1639 23.2893 22.3459 22.1357Z" fill="url(#paint2_linear_1_5182)"/>
<path d="M2.41931 10.9349C2.12606 9.80514 2.02869 8.63342 2.13143 7.4707L2.94986 7.53468C2.86889 8.60638 2.96139 9.68412 3.22383 10.7263L2.41931 10.9349Z" fill="url(#paint3_linear_1_5182)"/>
<path d="M23.084 21.6651L23.8572 20.9746L24.4712 21.5371L23.5839 22.3292C23.4059 22.0934 23.2523 21.889 23.084 21.6651Z" fill="url(#paint4_linear_1_5182)"/>
<path d="M2.41195 5.72656L3.21091 5.93517L3.05028 6.72648L2.23047 6.59575L2.41195 5.72656Z" fill="url(#paint5_linear_1_5182)"/>
<path d="M8.32914 8.31117C8.32914 7.66101 8.33471 7.01086 8.32914 6.36001C8.32076 6.25204 8.34531 6.14406 8.39956 6.05033C8.45381 5.9566 8.53521 5.88153 8.63301 5.83502C9.82438 5.17953 11.013 4.51941 12.1988 3.85465C12.29 3.79696 12.3958 3.76673 12.5037 3.7676C12.6116 3.76846 12.717 3.80037 12.8072 3.85952C13.9856 4.5201 15.1665 5.17629 16.35 5.82806C16.5753 5.95183 16.665 6.12081 16.6636 6.37461C16.6567 7.67492 16.6567 8.97546 16.6636 10.2762C16.6636 10.5405 16.5725 10.7122 16.3382 10.8416C15.1612 11.4878 13.9879 12.1402 12.8183 12.799C12.724 12.8598 12.6142 12.8921 12.502 12.8921C12.3897 12.8921 12.2799 12.8598 12.1856 12.799C11.009 12.1365 9.82832 11.4801 8.64344 10.8297C8.54164 10.7818 8.45695 10.7039 8.40076 10.6065C8.34457 10.509 8.31958 10.3967 8.32914 10.2846C8.33818 9.62955 8.32914 8.97036 8.32914 8.31117ZM9.16357 8.32855C9.16357 8.8751 9.16913 9.42095 9.16357 9.96749C9.15705 10.0304 9.17099 10.0937 9.20331 10.1481C9.23562 10.2024 9.28459 10.2449 9.34296 10.2693C10.3387 10.8144 11.3305 11.3658 12.3184 11.9235C12.3751 11.9603 12.4417 11.979 12.5093 11.9774C12.5768 11.9758 12.6424 11.9539 12.6973 11.9145C13.6787 11.3624 14.6626 10.8151 15.6491 10.2728C15.7077 10.2491 15.7572 10.2073 15.7903 10.1535C15.8235 10.0997 15.8386 10.0367 15.8334 9.97375C15.8264 8.88066 15.8264 7.7878 15.8334 6.69517C15.8398 6.63236 15.826 6.56914 15.794 6.51473C15.762 6.46031 15.7134 6.41756 15.6554 6.39269C14.6606 5.84753 13.6687 5.29635 12.68 4.73914C12.6275 4.70375 12.5656 4.68484 12.5023 4.68484C12.439 4.68484 12.3771 4.70375 12.3246 4.73914C11.3358 5.29542 10.344 5.84661 9.34923 6.39269C9.28736 6.41944 9.23586 6.46558 9.20249 6.52415C9.16913 6.58272 9.15571 6.65055 9.16426 6.71742C9.16982 7.25075 9.16357 7.79104 9.16357 8.32855Z" fill="url(#paint6_linear_1_5182)"/>
<path d="M8.5248 12.617L7.98798 13.1893C5.86646 11.4127 4.86585 7.54584 7.08402 4.45361C9.30915 1.34747 13.3422 1.02205 15.8093 2.58033C15.6772 2.8091 15.5451 3.03857 15.413 3.26665C12.53 1.68681 9.36826 2.72636 7.79189 4.88821C6.16547 7.11681 6.23222 10.3933 8.5248 12.617Z" fill="url(#paint7_linear_1_5182)"/>
<path d="M16.7866 4.35754L17.3616 3.81934C19.2259 5.6648 19.9831 9.25212 17.9513 12.151C15.9069 15.068 12.1326 15.7029 9.39844 14.2114C9.52012 13.9798 9.64181 13.7469 9.77463 13.4931C11.3322 14.258 12.9225 14.3845 14.544 13.7851C15.6508 13.3771 16.6046 12.6374 17.2754 11.6671C18.6703 9.69437 18.8232 6.68071 16.7866 4.35754Z" fill="url(#paint8_linear_1_5182)"/>
<path d="M12.9765 18.0976C12.4898 18.9911 11.7861 19.6093 10.9183 20.0237C8.65423 21.105 6.37487 21.1022 4.09828 20.0439C4.03709 20.0154 3.98007 19.9743 3.89941 19.9298L4.26378 19.279C4.90628 19.4779 5.51541 19.7212 6.14123 19.8499C7.55132 20.1519 9.02118 19.9922 10.3335 19.3944C11.1248 19.0384 11.7868 18.5224 12.2374 17.7207L12.9765 18.0976Z" fill="url(#paint9_linear_1_5182)"/>
<path d="M7.89355 18.3242C7.90676 18.6024 7.91927 18.8589 7.93527 19.1906C7.37273 19.1433 6.838 19.1253 6.31231 19.0474C5.48693 18.925 4.71301 18.6434 4.07259 18.0892C3.51074 17.6024 3.20756 17.0121 3.38975 16.2465C3.39573 16.2212 3.4046 16.1967 3.41617 16.1735C3.43157 16.1521 3.44904 16.1323 3.46832 16.1144L4.19636 16.3772C4.06633 17.0343 4.4592 17.4029 4.94455 17.6984C5.73169 18.1754 6.60784 18.3166 7.51249 18.3242C7.62514 18.3249 7.73709 18.3242 7.89355 18.3242Z" fill="url(#paint10_linear_1_5182)"/>
<path d="M10.6436 6.70936C11.2318 6.41801 11.7916 6.12944 12.3652 5.86938C12.4668 5.82349 12.6434 5.86382 12.7526 5.9257C13.4201 6.31093 14.0828 6.70519 14.7343 7.11615C14.8497 7.18985 14.9742 7.35257 14.9798 7.47912C15.0069 8.03053 14.9916 8.58404 14.9916 9.14797H14.1613C14.1613 8.75718 14.1516 8.36222 14.1662 7.96587C14.1732 7.78577 14.1099 7.68773 13.9576 7.59942C13.514 7.34631 13.0835 7.07095 12.6364 6.82132C12.5865 6.79798 12.5323 6.78503 12.4772 6.78324C12.4221 6.78144 12.3672 6.79085 12.3159 6.81089C11.8841 7.00767 11.462 7.2281 11.0184 7.44783L10.6436 6.70936Z" fill="url(#paint11_linear_1_5182)"/>
</g>
<defs>
<linearGradient id="paint0_linear_1_5182" x1="12.4978" y1="0.00109863" x2="12.4978" y2="25.005" gradientUnits="userSpaceOnUse">
<stop stop-color="#FFCF7E"/>
<stop offset="0.807292" stop-color="#6FA1A9"/>
</linearGradient>
<linearGradient id="paint1_linear_1_5182" x1="2.50549" y1="0.00109863" x2="2.50549" y2="4.99737" gradientUnits="userSpaceOnUse">
<stop stop-color="#FFCF7E"/>
<stop offset="0.807292" stop-color="#6FA1A9"/>
</linearGradient>
<linearGradient id="paint2_linear_1_5182" x1="19.0416" y1="22.1357" x2="19.0416" y2="24.164" gradientUnits="userSpaceOnUse">
<stop stop-color="#FFCF7E"/>
<stop offset="0.807292" stop-color="#6FA1A9"/>
</linearGradient>
<linearGradient id="paint3_linear_1_5182" x1="2.65781" y1="7.4707" x2="2.65781" y2="10.9349" gradientUnits="userSpaceOnUse">
<stop stop-color="#FFCF7E"/>
<stop offset="0.807292" stop-color="#6FA1A9"/>
</linearGradient>
<linearGradient id="paint4_linear_1_5182" x1="23.7776" y1="20.9746" x2="23.7776" y2="22.3292" gradientUnits="userSpaceOnUse">
<stop stop-color="#FFCF7E"/>
<stop offset="0.807292" stop-color="#6FA1A9"/>
</linearGradient>
<linearGradient id="paint5_linear_1_5182" x1="2.72069" y1="5.72656" x2="2.72069" y2="6.72648" gradientUnits="userSpaceOnUse">
<stop stop-color="#FFCF7E"/>
<stop offset="0.807292" stop-color="#6FA1A9"/>
</linearGradient>
<linearGradient id="paint6_linear_1_5182" x1="12.4954" y1="3.76758" x2="12.4954" y2="12.8921" gradientUnits="userSpaceOnUse">
<stop stop-color="#FFCF7E"/>
<stop offset="0.807292" stop-color="#6FA1A9"/>
</linearGradient>
<linearGradient id="paint7_linear_1_5182" x1="10.8211" y1="1.66913" x2="10.8211" y2="13.1893" gradientUnits="userSpaceOnUse">
<stop stop-color="#FFCF7E"/>
<stop offset="0.807292" stop-color="#6FA1A9"/>
</linearGradient>
<linearGradient id="paint8_linear_1_5182" x1="14.2793" y1="3.81934" x2="14.2793" y2="14.9894" gradientUnits="userSpaceOnUse">
<stop stop-color="#FFCF7E"/>
<stop offset="0.807292" stop-color="#6FA1A9"/>
</linearGradient>
<linearGradient id="paint9_linear_1_5182" x1="8.43798" y1="17.7207" x2="8.43798" y2="20.8362" gradientUnits="userSpaceOnUse">
<stop stop-color="#FFCF7E"/>
<stop offset="0.807292" stop-color="#6FA1A9"/>
</linearGradient>
<linearGradient id="paint10_linear_1_5182" x1="5.63606" y1="16.1144" x2="5.63606" y2="19.1906" gradientUnits="userSpaceOnUse">
<stop stop-color="#FFCF7E"/>
<stop offset="0.807292" stop-color="#6FA1A9"/>
</linearGradient>
<linearGradient id="paint11_linear_1_5182" x1="12.8197" y1="5.84961" x2="12.8197" y2="9.14797" gradientUnits="userSpaceOnUse">
<stop stop-color="#FFCF7E"/>
<stop offset="0.807292" stop-color="#6FA1A9"/>
</linearGradient>
<clipPath id="clip0_1_5182">
<rect width="24.991" height="25" fill="white"/>
</clipPath>
</defs>
</svg>
