<svg width="22" height="25" viewBox="0 0 22 25" fill="none" xmlns="http://www.w3.org/2000/svg">
<g clip-path="url(#clip0_1_5203)">
<path d="M21.877 12.4717C21.877 14.3586 21.8658 16.2462 21.8833 18.1331C21.8897 18.7945 21.6308 19.2349 21.0503 19.5571C17.9618 21.2738 14.8797 23.0029 11.8043 24.7444C11.2048 25.0849 10.6786 25.0814 10.0792 24.7409C7.00557 22.997 3.92308 21.2682 0.831673 19.5543C0.25265 19.2328 -0.00203661 18.7889 7.40413e-05 18.1289C0.0122689 14.372 0.0122689 10.615 7.40413e-05 6.85803C7.40413e-05 6.23961 0.236469 5.81607 0.779611 5.51355C3.93668 3.75514 7.08836 1.98852 10.2346 0.213691C10.7532 -0.0789866 11.2358 -0.06773 11.7501 0.220023C14.8753 1.98031 18.0037 3.7345 21.1355 5.48259C21.6484 5.76893 21.889 6.1587 21.8833 6.75672C21.8651 8.66264 21.877 10.5679 21.877 12.4717ZM11.3857 19.3123C11.4236 19.3123 11.4433 19.3179 11.456 19.3123C12.6007 18.7016 13.7496 18.098 14.8837 17.4676C15.0111 17.3972 15.1103 17.1749 15.1222 17.0159C15.1539 16.5706 15.1363 16.1217 15.1328 15.6742C15.1271 15.0783 15.3896 14.6527 15.9236 14.3888C16.4428 14.1328 16.9564 13.8668 17.4777 13.6149C17.6346 13.5397 17.7127 13.4602 17.7169 13.2632C17.7289 12.7074 18.2446 12.1769 18.799 12.1129C19.4322 12.039 20.0063 12.3887 20.1843 12.9571C20.258 13.2023 20.2572 13.4639 20.1821 13.7086C20.1069 13.9534 19.9608 14.1703 19.7621 14.3319C19.5574 14.494 19.3061 14.5862 19.0451 14.5949C18.7841 14.6037 18.5272 14.5285 18.3121 14.3804C18.1524 14.2721 18.0434 14.2868 17.89 14.367C17.3771 14.6337 16.8586 14.8912 16.338 15.1445C16.1163 15.2521 16.0087 15.4069 16.0164 15.6616C16.0298 16.0739 16.008 16.4868 16.0228 16.8991C16.046 17.5189 15.7829 17.9446 15.2334 18.2359C14.0169 18.8803 12.8139 19.5494 11.6002 20.1995C11.4405 20.2853 11.3772 20.3754 11.3793 20.5604C11.3892 21.4912 11.3835 22.4213 11.3835 23.3521V23.9811C11.4968 23.9206 11.5728 23.8812 11.6474 23.8404C12.8866 23.1462 14.1258 22.452 15.3649 21.7578C17.1477 20.7595 18.9327 19.7661 20.7119 18.7572C20.8632 18.6714 21.0539 18.4898 21.0637 18.3449C21.0996 17.6132 21.0799 16.8794 21.0799 16.1111C20.5769 16.3616 20.1118 16.6036 19.6376 16.8238C19.4666 16.904 19.3942 16.9955 19.3886 17.1946C19.3812 17.4463 19.297 17.6897 19.1472 17.8921C18.9974 18.0945 18.7892 18.2461 18.5506 18.3266C18.2805 18.4108 17.9902 18.4035 17.7246 18.306C17.459 18.2084 17.233 18.026 17.0816 17.787C16.9398 17.5425 16.8832 17.2579 16.9207 16.9778C16.9581 16.6976 17.0875 16.4379 17.2885 16.2392C17.4912 16.0414 17.7562 15.9199 18.0385 15.8956C18.3207 15.8712 18.6026 15.9454 18.8363 16.1055C18.977 16.2019 19.0804 16.211 19.2331 16.1294C19.7743 15.8396 20.3208 15.5605 20.8723 15.2922C21.0278 15.2169 21.0876 15.1339 21.0876 14.9559C21.0815 12.3401 21.0797 9.72454 21.082 7.1092C21.082 7.04588 21.0722 6.98186 21.0644 6.8918L11.3885 12.3092V14.3375C11.6164 14.2249 11.793 14.1264 11.978 14.0504C12.1631 13.9745 12.2334 13.876 12.2426 13.6628C12.2471 13.4821 12.292 13.3046 12.3739 13.1435C12.4559 12.9824 12.5729 12.8416 12.7163 12.7315C12.8597 12.6214 13.0259 12.5448 13.2027 12.5073C13.3796 12.4698 13.5626 12.4722 13.7383 12.5146C14.2533 12.6398 14.603 12.955 14.6966 13.4827C14.7901 14.0103 14.6206 14.4676 14.1675 14.7681C13.7144 15.0685 13.236 15.0495 12.7822 14.7582C12.6471 14.6724 12.5521 14.652 12.4086 14.7364C12.137 14.8954 11.8535 15.0375 11.5679 15.1705C11.4272 15.2359 11.3835 15.3232 11.3857 15.4744C11.3927 16.2293 11.3857 16.9842 11.3857 17.7392V19.3123ZM10.5414 16.826V16.496C10.5414 15.2141 10.5344 13.9322 10.547 12.6511C10.547 12.3978 10.4844 12.2641 10.248 12.1333C7.79261 10.7754 5.34707 9.39926 2.89871 8.02804L0.847151 6.88266C0.847151 7.35122 0.855594 7.77757 0.84293 8.20322C0.838005 8.3763 0.887254 8.46776 1.04977 8.54304C1.59854 8.79702 2.14028 9.06578 2.68061 9.33805C3.13862 9.56952 3.35531 9.95858 3.37501 10.4637C3.37994 10.5862 3.37501 10.7086 3.37501 10.8282C3.46296 10.8767 3.54175 10.9161 3.61563 10.9619C3.84384 11.0992 4.0212 11.307 4.12095 11.554C4.22071 11.8009 4.23743 12.0737 4.16862 12.331C4.09405 12.5989 3.9358 12.836 3.71696 13.0076C3.49812 13.1792 3.23016 13.2764 2.95218 13.285C2.38934 13.285 1.90318 12.9079 1.74066 12.3338C1.67022 12.078 1.68561 11.8062 1.78448 11.5601C1.88336 11.3139 2.06025 11.107 2.28803 10.971C2.62925 10.7599 2.65387 10.3216 2.3035 10.1176C1.84479 9.85024 1.35934 9.62932 0.848559 9.36901V9.66872C0.848559 12.4829 0.85278 15.3042 0.84293 18.1219C0.84293 18.4476 0.961831 18.6362 1.23973 18.7903C4.27626 20.4746 7.31021 22.1631 10.3416 23.8558C10.4119 23.8959 10.4893 23.9304 10.5892 23.9804C10.5892 23.6989 10.5653 23.4597 10.5949 23.2269C10.6329 22.9328 10.5013 22.7963 10.255 22.664C9.05901 22.0308 7.87915 21.38 6.68944 20.7419C6.19274 20.476 5.93735 20.0813 5.95072 19.5107C5.96057 19.0632 5.94579 18.6151 5.95564 18.1676C5.96524 18.0531 5.94036 17.9383 5.88419 17.838C5.82802 17.7377 5.74314 17.6565 5.64045 17.6048C5.2535 17.3811 4.87006 17.1505 4.49014 16.9132C4.3431 16.821 4.23686 16.8013 4.06801 16.9076C3.80593 17.082 3.48828 17.1525 3.17702 17.1054C2.86575 17.0583 2.58318 16.897 2.38441 16.6529C2.21866 16.4404 2.12288 16.1818 2.11028 15.9127C2.09768 15.6435 2.16887 15.3771 2.31406 15.1501C2.46397 14.9266 2.68118 14.7567 2.93419 14.6649C3.1872 14.5732 3.46285 14.5645 3.72116 14.64C3.97828 14.7069 4.20625 14.8565 4.36989 15.0658C4.53353 15.2751 4.62375 15.5324 4.62663 15.7981C4.62121 15.8705 4.63867 15.9428 4.67654 16.0048C4.71441 16.0667 4.77078 16.1153 4.8377 16.1435C5.24716 16.363 5.6503 16.5952 6.04921 16.8337C6.50511 17.1067 6.75276 17.5049 6.74291 18.0494C6.73658 18.4969 6.75206 18.945 6.73799 19.3925C6.72955 19.6739 6.84634 19.8463 7.08977 19.9772C8.14931 20.54 9.20042 21.119 10.26 21.6903C10.3409 21.7339 10.4267 21.7684 10.5329 21.8184C10.5329 20.5287 10.5273 19.2736 10.5386 18.0192C10.5386 17.8137 10.4753 17.7117 10.2958 17.616C9.06534 16.9603 7.84327 16.2898 6.61557 15.6285C6.12801 15.3654 5.88388 14.9665 5.89654 14.4114C5.89654 14.2798 5.88458 14.1461 5.89654 14.0167C5.92187 13.7873 5.86348 13.6459 5.63764 13.5242C5.17118 13.2667 4.95941 12.687 5.09168 12.1839C5.16188 11.9237 5.31126 11.6918 5.51912 11.5202C5.72698 11.3487 5.98304 11.246 6.25184 11.2264C6.78091 11.1996 7.31912 11.5739 7.50767 12.1002C7.68356 12.5927 7.54426 13.1738 7.08554 13.451C6.76472 13.6452 6.7014 13.8731 6.73377 14.1919C6.74046 14.2794 6.74046 14.3674 6.73377 14.455C6.72547 14.5477 6.74543 14.6407 6.79102 14.7218C6.8366 14.8029 6.90568 14.8684 6.98916 14.9095C8.1669 15.5427 9.33128 16.1716 10.5428 16.8274L10.5414 16.826ZM7.16927 9.44992C7.16927 8.98628 7.17912 8.57399 7.16927 8.16171C7.15731 7.76139 7.32264 7.47997 7.66175 7.27242C8.53908 6.73913 9.42063 6.21076 10.2754 5.64511C10.7377 5.33977 11.164 5.27223 11.6453 5.56983C11.7255 5.61908 11.8824 5.60501 11.9766 5.56139C12.2862 5.42068 12.5796 5.23916 12.8913 5.09141C13.0411 5.02106 13.0805 4.92256 13.0784 4.76356C13.0693 4.14021 13.0749 3.51687 13.0735 2.89352C13.0735 2.8309 13.0615 2.76758 13.0531 2.68245C11.8866 3.31565 10.7377 3.92 9.612 4.56234C9.13077 4.83743 8.69105 4.91412 8.20841 4.60385C8.16411 4.58335 8.11568 4.57331 8.06688 4.57453C8.01808 4.57575 7.97021 4.58819 7.92699 4.61089C7.01237 5.16622 6.10245 5.72907 5.19721 6.29941C5.16122 6.32596 5.13121 6.35979 5.10915 6.3987C5.08709 6.43761 5.07347 6.48073 5.06917 6.52525C5.05861 7.05995 5.06002 7.59606 5.06917 8.13146C5.07068 8.16794 5.07993 8.20368 5.0963 8.2363C5.11268 8.26893 5.1358 8.29771 5.16414 8.32072C5.81493 8.69571 6.47275 9.06015 7.17067 9.45132L7.16927 9.44992ZM1.27069 6.16574L4.21927 7.80712C4.21927 7.36389 4.23194 6.96286 4.21927 6.56465C4.20098 6.13337 4.36983 5.83366 4.74131 5.60993C5.62849 5.07664 6.51426 4.53983 7.37963 3.97206C7.82216 3.6815 8.22811 3.65476 8.6812 3.91508C8.73639 3.94037 8.79638 3.95347 8.85709 3.95347C8.9178 3.95347 8.97779 3.94037 9.03298 3.91508C10.2382 3.26781 11.4363 2.60788 12.6359 1.95006C12.702 1.91418 12.7639 1.87196 12.8512 1.81779C12.3157 1.50963 11.8022 1.2247 11.3033 0.920057C11.074 0.779347 10.8812 0.779348 10.6448 0.91443C8.52149 2.11187 6.39489 3.30392 4.26501 4.49058C3.28144 5.03935 2.3035 5.58812 1.2721 6.16715L1.27069 6.16574ZM16.4421 4.11488C16.3358 4.16976 16.2592 4.20635 16.1853 4.24786C14.9688 4.92678 13.7433 5.59094 12.5402 6.29378C12.0667 6.56958 11.6375 6.63149 11.1626 6.336C11.1145 6.31502 11.0623 6.30507 11.0098 6.3069C10.9573 6.30873 10.9059 6.32227 10.8594 6.34655C9.93774 6.90611 9.02148 7.47434 8.11062 8.05126C8.07193 8.07974 8.03948 8.11585 8.01528 8.15735C7.99108 8.19885 7.97564 8.24487 7.96991 8.29257C7.95302 8.57399 8.00438 8.86104 7.95513 9.13332C7.84608 9.74259 8.09584 10.0859 8.65306 10.3012C8.98865 10.4314 9.29399 10.6417 9.64999 10.8366C9.64999 10.468 9.65491 10.1535 9.64999 9.83898C9.63882 9.66311 9.6781 9.48771 9.76323 9.33341C9.84836 9.1791 9.97578 9.05233 10.1305 8.96798C11.0142 8.42977 11.9021 7.89858 12.7646 7.32871C13.2275 7.02266 13.6553 6.96075 14.133 7.25835C14.1766 7.2803 14.2245 7.29208 14.2732 7.29281C14.322 7.29354 14.3703 7.28321 14.4144 7.26257C15.0512 6.87632 15.6808 6.47741 16.3091 6.07639C16.3408 6.05761 16.3684 6.03259 16.3902 6.00284C16.412 5.97309 16.4275 5.93923 16.4357 5.90331C16.447 5.31937 16.4435 4.7326 16.4435 4.11629L16.4421 4.11488ZM19.0164 5.42208C18.908 5.484 18.8335 5.5234 18.7624 5.56842C17.5305 6.35781 16.2887 7.13382 15.068 7.94291C14.6079 8.24825 14.1851 8.32775 13.7024 8.02804C13.6505 8.00624 13.5944 7.99631 13.5382 7.99899C13.4819 8.00167 13.427 8.01688 13.3774 8.04352C12.4773 8.5876 11.5831 9.14082 10.6948 9.70319C10.6533 9.73513 10.6189 9.77531 10.5937 9.8212C10.5685 9.86709 10.5531 9.9177 10.5484 9.96984C10.5315 10.3287 10.5414 10.6882 10.5414 11.0477C10.5414 11.4846 10.8425 11.657 11.2358 11.4396C11.869 11.0878 12.5064 10.7318 13.141 10.3772C15.0303 9.3214 16.9189 8.26443 18.8067 7.20629C18.889 7.15986 19.0044 7.07332 19.0072 7.00156C19.0255 6.49148 19.0178 5.97437 19.0178 5.42349L19.0164 5.42208ZM13.9255 4.51591L15.8525 3.50913L13.9255 2.42284V4.51591ZM17.2913 5.48681L18.2966 4.81562L17.2913 4.27318V5.48681ZM2.9571 11.645C2.90246 11.6419 2.84777 11.6501 2.79642 11.669C2.74507 11.6879 2.69815 11.7172 2.65857 11.755C2.619 11.7928 2.5876 11.8383 2.56634 11.8887C2.54508 11.9392 2.5344 11.9934 2.53497 12.0481C2.53014 12.105 2.53745 12.1622 2.5564 12.2159C2.57535 12.2697 2.60552 12.3189 2.6449 12.3601C2.68428 12.4014 2.73198 12.4338 2.78483 12.4552C2.83769 12.4766 2.89449 12.4865 2.95147 12.4843C3.00618 12.4872 3.0609 12.4789 3.11226 12.4598C3.16362 12.4407 3.21052 12.4113 3.25007 12.3734C3.28963 12.3355 3.32099 12.2899 3.34224 12.2394C3.36349 12.1889 3.37416 12.1346 3.37361 12.0798C3.378 12.0233 3.37041 11.9665 3.35136 11.9132C3.3323 11.8599 3.3022 11.8111 3.26301 11.7702C3.22383 11.7293 3.17646 11.6972 3.12398 11.6758C3.07151 11.6545 3.01512 11.6445 2.95851 11.6464L2.9571 11.645ZM6.32008 12.9058C6.37479 12.909 6.42958 12.9011 6.48111 12.8824C6.53263 12.8637 6.5798 12.8347 6.61972 12.7972C6.65964 12.7596 6.69147 12.7143 6.71326 12.664C6.73505 12.6137 6.74634 12.5595 6.74643 12.5047C6.75143 12.448 6.74435 12.3909 6.72566 12.3371C6.70698 12.2833 6.67711 12.2341 6.63803 12.1927C6.59894 12.1513 6.55153 12.1186 6.49891 12.0968C6.44629 12.0751 6.38966 12.0647 6.33274 12.0664C6.27806 12.0629 6.22322 12.0706 6.17164 12.0891C6.12007 12.1076 6.07285 12.1365 6.03293 12.1741C5.99301 12.2116 5.96124 12.257 5.93959 12.3073C5.91794 12.3577 5.90688 12.4119 5.90709 12.4667C5.90166 12.5237 5.90844 12.5812 5.92698 12.6353C5.94552 12.6895 5.9754 12.7391 6.01461 12.7807C6.05383 12.8224 6.10149 12.8553 6.15441 12.8771C6.20733 12.8989 6.26429 12.9091 6.32149 12.9072L6.32008 12.9058ZM18.9587 12.9058C18.9036 12.9046 18.8489 12.9149 18.798 12.9359C18.747 12.9569 18.701 12.9882 18.6627 13.0278C18.6245 13.0674 18.5948 13.1146 18.5757 13.1662C18.5565 13.2178 18.5482 13.2729 18.5513 13.3279C18.5485 13.3849 18.5578 13.4419 18.5786 13.4951C18.5995 13.5482 18.6314 13.5964 18.6722 13.6363C18.7131 13.6762 18.7619 13.707 18.8155 13.7266C18.8692 13.7462 18.9264 13.7542 18.9833 13.75C19.0383 13.751 19.0929 13.7406 19.1438 13.7195C19.1946 13.6984 19.2406 13.6671 19.2788 13.6275C19.317 13.5879 19.3466 13.5409 19.3659 13.4894C19.3851 13.4378 19.3936 13.3828 19.3907 13.3279C19.3931 13.2713 19.3835 13.2148 19.3626 13.1622C19.3416 13.1096 19.3098 13.062 19.2691 13.0226C19.2284 12.9832 19.1798 12.9528 19.1266 12.9335C19.0733 12.9142 19.0166 12.9065 18.9601 12.9107L18.9587 12.9058ZM13.9114 13.7585C13.9155 13.7038 13.9084 13.649 13.8905 13.5972C13.8727 13.5454 13.8443 13.4978 13.8074 13.4574C13.7704 13.417 13.7255 13.3846 13.6755 13.3622C13.6255 13.3398 13.5715 13.3279 13.5167 13.3272C13.4601 13.3212 13.4028 13.3273 13.3487 13.3451C13.2946 13.3629 13.2449 13.392 13.2029 13.4304C13.1608 13.4689 13.1274 13.5158 13.1049 13.5681C13.0823 13.6204 13.0712 13.6769 13.0721 13.7338C13.0679 13.7885 13.075 13.8434 13.0929 13.8952C13.1108 13.947 13.1391 13.9946 13.1761 14.0351C13.213 14.0756 13.2579 14.1081 13.3079 14.1305C13.3579 14.153 13.412 14.165 13.4668 14.1658C13.5231 14.1717 13.5801 14.1657 13.634 14.1482C13.6878 14.1307 13.7374 14.102 13.7795 14.064C13.8216 14.0261 13.8552 13.9797 13.8781 13.9279C13.9011 13.8761 13.9129 13.8201 13.9128 13.7634L13.9114 13.7585ZM3.37923 15.4336C3.32462 15.4306 3.26997 15.4389 3.21867 15.4578C3.16736 15.4768 3.12048 15.5061 3.08093 15.5438C3.04137 15.5816 3.00998 15.6271 2.98868 15.6775C2.96738 15.7279 2.95664 15.7821 2.9571 15.8368C2.95227 15.8936 2.95958 15.9508 2.97853 16.0046C2.99748 16.0584 3.02765 16.1075 3.06703 16.1487C3.10641 16.19 3.15411 16.2224 3.20696 16.2438C3.25982 16.2652 3.31662 16.2752 3.37361 16.273C3.4282 16.2758 3.4828 16.2675 3.53406 16.2485C3.58532 16.2295 3.63215 16.2003 3.67169 16.1625C3.71122 16.1248 3.74262 16.0793 3.76395 16.029C3.78528 15.9787 3.7961 15.9245 3.79574 15.8698C3.7997 15.8135 3.79181 15.7571 3.77258 15.704C3.75334 15.651 3.72318 15.6026 3.68406 15.5619C3.64493 15.5213 3.59771 15.4893 3.54544 15.468C3.49318 15.4468 3.43703 15.4367 3.38064 15.4385L3.37923 15.4336ZM17.7085 17.1257C17.707 17.1804 17.7167 17.2348 17.7371 17.2855C17.7574 17.3363 17.7879 17.3824 17.8268 17.421C17.8656 17.4595 17.9119 17.4897 17.9628 17.5097C18.0137 17.5297 18.0682 17.5391 18.1229 17.5372C18.1795 17.5401 18.2362 17.531 18.2891 17.5105C18.342 17.4899 18.39 17.4584 18.4298 17.418C18.4697 17.3776 18.5006 17.3292 18.5204 17.2761C18.5403 17.2229 18.5486 17.1661 18.545 17.1095C18.5464 17.0525 18.5358 16.996 18.5138 16.9434C18.4917 16.8909 18.4588 16.8436 18.4172 16.8048C18.3756 16.7659 18.3262 16.7362 18.2724 16.7178C18.2185 16.6994 18.1613 16.6926 18.1046 16.6979C18.0497 16.6986 17.9955 16.7106 17.9454 16.733C17.8953 16.7555 17.8504 16.7881 17.8134 16.8286C17.7764 16.8692 17.7481 16.9169 17.7303 16.9689C17.7125 17.0208 17.7055 17.0759 17.7099 17.1306L17.7085 17.1257ZM19.8248 6.61882L20.6535 6.16081L19.8248 5.70421V6.61882Z" fill="url(#paint0_linear_1_5203)"/>
</g>
<defs>
<linearGradient id="paint0_linear_1_5203" x1="10.9418" y1="-0.000854492" x2="10.9418" y2="24.9981" gradientUnits="userSpaceOnUse">
<stop stop-color="#FFCF7E"/>
<stop offset="0.807292" stop-color="#6FA1A9"/>
</linearGradient>
<clipPath id="clip0_1_5203">
<rect width="21.884" height="25" fill="white"/>
</clipPath>
</defs>
</svg>
